<?xml version="1.0" encoding="utf-8"?>
<!-- Generator: Adobe Illustrator 19.1.0, SVG Export Plug-In . SVG Version: 6.00 Build 0)  -->
<svg version="1.1" id="Layer_1" xmlns="http://www.w3.org/2000/svg" xmlns:xlink="http://www.w3.org/1999/xlink" x="0px" y="0px"
	 viewBox="0 0 645.4 150.1" style="enable-background:new 0 0 645.4 150.1;" xml:space="preserve">
<style type="text/css">
	.st0{fill:url(#SVGID_1_);}
	.st1{fill:#B0AFAF;}
	.st2{fill:#676865;}
	.st3{fill:#414142;}
	.st4{fill:#FFFFFF;}
</style>
<linearGradient id="SVGID_1_" gradientUnits="userSpaceOnUse" x1="382.0648" y1="-15572.5625" x2="410.1054" y2="-15731.5879" gradientTransform="matrix(1 0 0 -1 0 -15540)">
	<stop  offset="6.989247e-002" style="stop-color:#FFFFFF;stop-opacity:0"/>
	<stop  offset="0.1678" style="stop-color:#F7F9E7;stop-opacity:0.116"/>
	<stop  offset="0.3661" style="stop-color:#E6ECB5;stop-opacity:0.3509"/>
	<stop  offset="0.5469" style="stop-color:#D9E289;stop-opacity:0.5651"/>
	<stop  offset="0.7043" style="stop-color:#CFDB65;stop-opacity:0.7515"/>
	<stop  offset="0.8319" style="stop-color:#C8D64E;stop-opacity:0.9028"/>
	<stop  offset="0.914" style="stop-color:#C6D545"/>
</linearGradient>
<polygon class="st0" points="164.5,70.9 152.1,104.4 221.9,150.1 645.4,150.1 "/>
<g>
	<rect x="46.4" y="116.1" class="st1" width="33.5" height="33.5"/>
	<circle class="st2" cx="63.2" cy="133.1" r="11.1"/>
	<rect x="15.6" y="66.8" transform="matrix(0.9382 0.3461 -0.3461 0.9382 33.5869 -1.151)" class="st3" width="8.9" height="53.3"/>
	<path class="st3" d="M14.2,119.7l3.1-8.4l45.9,16.9c2.3,0.8,3.5,3.4,2.6,5.7l0,0.1c-0.8,2.3-3.4,3.5-5.7,2.6L14.2,119.7z"/>
	
		<rect x="143.6" y="67.2" transform="matrix(0.9382 0.3461 -0.3461 0.9382 38.7749 -47.0755)" class="st3" width="15.1" height="35.6"/>
	
		<rect x="8.9" y="34.8" transform="matrix(0.9382 0.3461 -0.3461 0.9382 25.5602 -23.4252)" class="st1" width="139" height="50.1"/>
	<path class="st4" d="M116.1,84.3L14.2,46.7C9,44.8,6.4,39,8.3,33.8L18.3,6.5c1.9-5.2,7.7-7.8,12.9-5.9L159.7,48
		c0.2,0.1,0.4,0.2,0.6,0.3c6.3,2.8,6.7,11.7,1,15.4L135,80.9C129.2,84.7,121.2,86.2,116.1,84.3z"/>
	<circle class="st4" cx="29.2" cy="68.5" r="12.2"/>
	<circle class="st2" cx="29.2" cy="68.5" r="7.2"/>
	<rect x="1.9" y="107.1" transform="matrix(0.9382 0.3461 -0.3461 0.9382 40.4819 2.5214)" class="st2" width="22.6" height="15"/>
</g>
</svg>
