<?xml version="1.0" encoding="UTF-8" standalone="no"?>
<!-- Generator: Adobe Illustrator 19.1.0, SVG Export Plug-In . SVG Version: 6.00 Build 0)  -->

<svg
   xmlns:dc="http://purl.org/dc/elements/1.1/"
   xmlns:cc="http://creativecommons.org/ns#"
   xmlns:rdf="http://www.w3.org/1999/02/22-rdf-syntax-ns#"
   xmlns:svg="http://www.w3.org/2000/svg"
   xmlns="http://www.w3.org/2000/svg"
   xmlns:sodipodi="http://sodipodi.sourceforge.net/DTD/sodipodi-0.dtd"
   xmlns:inkscape="http://www.inkscape.org/namespaces/inkscape"
   version="1.1"
   id="Layer_1"
   x="0px"
   y="0px"
   viewBox="0 0 40.200001 63.299998"
   xml:space="preserve"
   inkscape:version="0.91 r13725"
   sodipodi:docname="kornet_logo.svg"
   width="40.200001"
   height="63.299999"><metadata
     id="metadata35"><rdf:RDF><cc:Work
         rdf:about=""><dc:format>image/svg+xml</dc:format><dc:type
           rdf:resource="http://purl.org/dc/dcmitype/StillImage" /><dc:title></dc:title></cc:Work></rdf:RDF></metadata><defs
     id="defs33" /><sodipodi:namedview
     pagecolor="#ffffff"
     bordercolor="#666666"
     borderopacity="1"
     objecttolerance="10"
     gridtolerance="10"
     guidetolerance="10"
     inkscape:pageopacity="0"
     inkscape:pageshadow="2"
     inkscape:window-width="1920"
     inkscape:window-height="1177"
     id="namedview31"
     showgrid="false"
     fit-margin-top="0"
     fit-margin-left="0"
     fit-margin-right="0"
     fit-margin-bottom="0"
     inkscape:zoom="3.7223974"
     inkscape:cx="19.7"
     inkscape:cy="31.699999"
     inkscape:window-x="-8"
     inkscape:window-y="-8"
     inkscape:window-maximized="1"
     inkscape:current-layer="Layer_1" /><style
     type="text/css"
     id="style3">
	.st0{fill:#412813;}
	.st1{fill:#EA5827;}
</style><g
     id="g5"
     transform="translate(-15.3,-0.1)"><g
       id="g7"><path
         class="st0"
         d="m 22.2,60.7 -2.4,0 -2.4,-3.6 c 0,-0.1 -0.1,-0.2 -0.2,-0.5 l 0,0 0,4.1 -1.9,0 0,-8.3 1.9,0 0,3.9 0,0 c 0,-0.1 0.1,-0.3 0.2,-0.5 l 2.3,-3.5 2.3,0 -2.9,4 3.1,4.4 z"
         id="path9"
         inkscape:connector-curvature="0"
         style="fill:#412813" /><path
         class="st0"
         d="m 25.6,60.8 c -1,0 -1.8,-0.3 -2.3,-0.8 -0.6,-0.6 -0.8,-1.3 -0.8,-2.3 0,-1 0.3,-1.7 0.9,-2.3 0.6,-0.6 1.4,-0.8 2.4,-0.8 1,0 1.8,0.3 2.3,0.8 0.6,0.6 0.8,1.3 0.8,2.2 0,1 -0.3,1.8 -0.9,2.3 -0.6,0.7 -1.4,0.9 -2.4,0.9 z m 0,-4.8 c -0.4,0 -0.8,0.1 -1,0.4 -0.2,0.3 -0.4,0.7 -0.4,1.3 0,1.1 0.5,1.7 1.4,1.7 0.9,0 1.3,-0.6 1.3,-1.8 0,-1 -0.4,-1.6 -1.3,-1.6 z"
         id="path11"
         inkscape:connector-curvature="0"
         style="fill:#412813" /><path
         class="st0"
         d="m 31.8,60 0,0 0,3.4 -1.8,0 0,-8.7 1.8,0 0,0.9 0,0 c 0.5,-0.7 1.1,-1 1.9,-1 0.8,0 1.4,0.3 1.8,0.8 0.4,0.5 0.6,1.2 0.6,2.2 0,1 -0.2,1.8 -0.7,2.4 -0.5,0.6 -1.1,0.9 -1.9,0.9 -0.7,-0.1 -1.3,-0.3 -1.7,-0.9 z m 0,-2.4 0,0.5 c 0,0.4 0.1,0.7 0.3,1 0.2,0.3 0.5,0.4 0.9,0.4 0.4,0 0.7,-0.2 1,-0.5 0.3,-0.3 0.3,-0.8 0.3,-1.4 0,-1 -0.4,-1.6 -1.2,-1.6 -0.4,0 -0.7,0.1 -0.9,0.4 -0.3,0.3 -0.4,0.7 -0.4,1.2 z"
         id="path13"
         inkscape:connector-curvature="0"
         style="fill:#412813" /><path
         class="st0"
         d="m 43.1,60.7 -1.8,0 0,-2.5 -2,0 0,2.5 -1.8,0 0,-5.9 1.8,0 0,2.2 2,0 0,-2.2 1.8,0 0,5.9 z"
         id="path15"
         inkscape:connector-curvature="0"
         style="fill:#412813" /><path
         class="st0"
         d="m 49.9,58.3 -3.9,0 c 0.1,0.9 0.6,1.3 1.6,1.3 0.7,0 1.2,-0.2 1.7,-0.5 l 0,1.3 c -0.5,0.3 -1.3,0.4 -2.1,0.4 -1,0 -1.7,-0.3 -2.2,-0.8 -0.5,-0.5 -0.8,-1.3 -0.8,-2.2 0,-1 0.3,-1.8 0.9,-2.3 0.6,-0.6 1.3,-0.9 2.1,-0.9 0.9,0 1.5,0.3 2,0.8 0.5,0.5 0.7,1.2 0.7,2.1 l 0,0.8 z m -1.7,-1.2 c 0,-0.8 -0.3,-1.3 -1,-1.3 -0.3,0 -0.5,0.1 -0.8,0.4 -0.2,0.2 -0.3,0.5 -0.4,0.9 l 2.2,0 z"
         id="path17"
         inkscape:connector-curvature="0"
         style="fill:#412813" /><path
         class="st0"
         d="m 55.4,56.2 -1.6,0 0,4.5 -1.8,0 0,-4.5 -1.6,0 0,-1.4 5,0 0,1.4 z"
         id="path19"
         inkscape:connector-curvature="0"
         style="fill:#412813" /></g><g
       id="g21"><g
         id="g23"><path
           class="st0"
           d="m 32.3,8.6 -17,0 0,21.2 c 0,4.2 1.4,8.2 4,11.5 2.2,2.7 5.6,5.4 10.8,6.9 0,0 -3.9,-2.2 -8.4,-8.5 -2.6,-3.6 -3.2,-6.9 -3.2,-9.6 0,-6.9 0,-18.3 0,-18.3 l 11.2,0 2.6,-3.2 z"
           id="path25"
           inkscape:connector-curvature="0"
           style="fill:#412813" /><path
           class="st0"
           d="m 41.6,8.6 13.9,0 0,21.2 c 0,4.2 -1.4,8.2 -4,11.5 -2.2,2.7 -5.6,5.4 -10.8,6.9 0,0 3.9,-2.2 8.4,-8.5 2.6,-3.6 3.2,-6.9 3.2,-9.6 0,-6.9 0,-18.3 0,-18.3 l -11.3,0 0.6,-3.2 z"
           id="path27"
           inkscape:connector-curvature="0"
           style="fill:#412813" /></g></g><path
       class="st1"
       d="m 45.6,34 c 0,0 -0.4,-2.5 -3.2,-6.2 -2.8,-3.7 -1.8,-7.6 -1.8,-7.6 0,0 -2.2,1.9 -1.9,4.8 0,0 -4.3,-0.9 -1.8,-7.1 2.5,-6.2 2.7,-12.1 -0.8,-17.8 0,0 1.3,7.2 -5.2,15 -6.5,7.8 -13.4,23.4 3.8,32.4 0,-0.1 11.9,-3.8 10.9,-13.5 z M 34.8,44.6 c 0,0 -8.5,-5 -7.4,-14.2 0,0 2.7,5 5.8,6.7 0,0 -6.2,-8.3 -4.1,-14.2 1.9,-5.4 5.4,-7.2 6.3,-9.2 0.1,-0.2 0.1,-0.3 0.1,-0.2 0,0.1 -0.1,0.2 -0.1,0.2 -0.4,1 -1.9,4.9 -2.5,8.2 -1,5.6 5.2,9.1 6.6,12 1.6,3 2,6.9 -4.7,10.7 z"
       id="path29"
       inkscape:connector-curvature="0"
       style="fill:#ea5827" /></g></svg>