<?xml version="1.0" encoding="utf-8"?>
<!-- Generator: Adobe Illustrator 19.1.0, SVG Export Plug-In . SVG Version: 6.00 Build 0)  -->
<svg version="1.1" id="Layer_1" xmlns="http://www.w3.org/2000/svg" xmlns:xlink="http://www.w3.org/1999/xlink" x="0px" y="0px"
	 viewBox="0 0 70 63.4" style="enable-background:new 0 0 70 63.4;" xml:space="preserve">
<style type="text/css">
	.st0{fill:#412813;}
	.st1{fill:#EA5827;}
</style>
<g>
	<g>
		<path class="st0" d="M22.2,60.7h-2.4l-2.4-3.6c0-0.1-0.1-0.2-0.2-0.5h0v4.1h-1.9v-8.3h1.9v3.9h0c0-0.1,0.1-0.3,0.2-0.5l2.3-3.5H22
			l-2.9,4L22.2,60.7z"/>
		<path class="st0" d="M25.6,60.8c-1,0-1.8-0.3-2.3-0.8c-0.6-0.6-0.8-1.3-0.8-2.3c0-1,0.3-1.7,0.9-2.3c0.6-0.6,1.4-0.8,2.4-0.8
			c1,0,1.8,0.3,2.3,0.8c0.6,0.6,0.8,1.3,0.8,2.2c0,1-0.3,1.8-0.9,2.3C27.4,60.6,26.6,60.8,25.6,60.8z M25.6,56c-0.4,0-0.8,0.1-1,0.4
			c-0.2,0.3-0.4,0.7-0.4,1.3c0,1.1,0.5,1.7,1.4,1.7c0.9,0,1.3-0.6,1.3-1.8C26.9,56.6,26.5,56,25.6,56z"/>
		<path class="st0" d="M31.8,60L31.8,60l0,3.4H30v-8.7h1.8v0.9h0c0.5-0.7,1.1-1,1.9-1c0.8,0,1.4,0.3,1.8,0.8
			c0.4,0.5,0.6,1.2,0.6,2.2c0,1-0.2,1.8-0.7,2.4s-1.1,0.9-1.9,0.9C32.8,60.8,32.2,60.6,31.8,60z M31.8,57.6v0.5c0,0.4,0.1,0.7,0.3,1
			c0.2,0.3,0.5,0.4,0.9,0.4c0.4,0,0.7-0.2,1-0.5s0.3-0.8,0.3-1.4c0-1-0.4-1.6-1.2-1.6c-0.4,0-0.7,0.1-0.9,0.4
			C31.9,56.7,31.8,57.1,31.8,57.6z"/>
		<path class="st0" d="M43.1,60.7h-1.8v-2.5h-2v2.5h-1.8v-5.9h1.8V57h2v-2.2h1.8V60.7z"/>
		<path class="st0" d="M49.9,58.3h-3.9c0.1,0.9,0.6,1.3,1.6,1.3c0.7,0,1.2-0.2,1.7-0.5v1.3c-0.5,0.3-1.3,0.4-2.1,0.4
			c-1,0-1.7-0.3-2.2-0.8c-0.5-0.5-0.8-1.3-0.8-2.2c0-1,0.3-1.8,0.9-2.3c0.6-0.6,1.3-0.9,2.1-0.9c0.9,0,1.5,0.3,2,0.8
			c0.5,0.5,0.7,1.2,0.7,2.1V58.3z M48.2,57.1c0-0.8-0.3-1.3-1-1.3c-0.3,0-0.5,0.1-0.8,0.4c-0.2,0.2-0.3,0.5-0.4,0.9H48.2z"/>
		<path class="st0" d="M55.4,56.2h-1.6v4.5H52v-4.5h-1.6v-1.4h5V56.2z"/>
	</g>
	<g>
		<g>
			<path class="st0" d="M32.3,8.6h-17v21.2c0,4.2,1.4,8.2,4,11.5c2.2,2.7,5.6,5.4,10.8,6.9c0,0-3.9-2.2-8.4-8.5
				c-2.6-3.6-3.2-6.9-3.2-9.6c0-6.9,0-18.3,0-18.3h11.2L32.3,8.6z"/>
			<path class="st0" d="M41.6,8.6h13.9v21.2c0,4.2-1.4,8.2-4,11.5c-2.2,2.7-5.6,5.4-10.8,6.9c0,0,3.9-2.2,8.4-8.5
				c2.6-3.6,3.2-6.9,3.2-9.6c0-6.9,0-18.3,0-18.3H41L41.6,8.6z"/>
		</g>
	</g>
	<path class="st1" d="M45.6,34c0,0-0.4-2.5-3.2-6.2s-1.8-7.6-1.8-7.6s-2.2,1.9-1.9,4.8c0,0-4.3-0.9-1.8-7.1
		c2.5-6.2,2.7-12.1-0.8-17.8c0,0,1.3,7.2-5.2,15s-13.4,23.4,3.8,32.4C34.7,47.4,46.6,43.7,45.6,34z M34.8,44.6c0,0-8.5-5-7.4-14.2
		c0,0,2.7,5,5.8,6.7c0,0-6.2-8.3-4.1-14.2c1.9-5.4,5.4-7.2,6.3-9.2c0.1-0.2,0.1-0.3,0.1-0.2c0,0.1-0.1,0.2-0.1,0.2
		c-0.4,1-1.9,4.9-2.5,8.2c-1,5.6,5.2,9.1,6.6,12C41.1,36.9,41.5,40.8,34.8,44.6z"/>
</g>
</svg>
