<?xml version="1.0" encoding="utf-8"?>
<!-- Generator: Adobe Illustrator 19.1.0, SVG Export Plug-In . SVG Version: 6.00 Build 0)  -->
<svg version="1.1" xmlns="http://www.w3.org/2000/svg" xmlns:xlink="http://www.w3.org/1999/xlink" x="0px" y="0px"
	 viewBox="0 0 70.7 30.7" style="enable-background:new 0 0 70.7 30.7;" xml:space="preserve">
<style type="text/css">
	.st0{fill:#676865;}
	.st1{fill:#FFFFFF;}
	.st2{fill:#414142;}
	.st3{fill:#515556;}
	.st4{fill:#BE2127;}
	.st5{fill:#BABABA;}
	.st6{display:none;}
	.st7{display:inline;}
	.st8{fill:#AB7A32;}
	.st9{fill:#794722;}
	.st10{fill:#CCAD5C;}
	.st11{fill:#05808B;}
	.st12{fill:#F8AC22;}
	.st13{fill:#257CB7;}
	.st14{fill:#231F20;}
	.st15{fill:#DE211F;}
	.st16{fill:url(#SVGID_3_);}
	.st17{fill:url(#SVGID_4_);}
	.st18{fill:url(#SVGID_5_);}
	.st19{fill:#F8AA1E;}
	.st20{fill:#721514;}
</style>
<g id="Layer_1">
	<g>
		<path class="st0" d="M26.3,17.1C26.3,17.1,26.3,17.1,26.3,17.1c4.8-1.5,12.3-1.7,16.9,0.2l1.7-5.8c0,0-2.1-1.6-2.1-1.6
			c-4.6-3.1-11.2-3.4-15.8-0.1c0.2,0-2.5,1.5-2.3,1.6L26.3,17.1z"/>
		<path class="st1" d="M26.3,17.1c0.1,0.1,2.2,2.8,8.8,2.8c5.8,0,7.6-2.2,8.1-2.7C38,15.2,31.8,15.4,26.3,17.1z"/>
		<path class="st2" d="M22.6,9.5c0,0.8,0.5,1.5,1.2,1.8c0.4,0.1,0.3,0.2,0.9,0.3c5.3-3.7,14.8-3.2,20.1,0.3c0,0,0.6-0.1,1-0.4
			c0.8-0.5,1-1.1,1-1.9V9.4C39.4,5.3,29.3,5.1,22.6,9.5z"/>
		<path class="st3" d="M46.9,9.9V4.1c0-0.9-0.7-1.5-1.5-1.9C43.5,1.5,39.5,0,34.7,0C30,0,26.3,1.4,24.1,2.2c-0.8,0.3-1.5,1-1.5,1.9
			v5.4c0,0,0,0,0,0C29.3,5.1,39.4,5.7,46.9,9.9z"/>
		<g>
			<path class="st4" d="M43.6,21c-0.1-0.1-0.3-0.2-0.5-0.2c-0.2,0-0.4,0.1-0.5,0.2c-0.3,0.3-0.3,0.7,0,1l5.2,5.2
				c0.3,0.3,0.7,0.3,1,0c0.3-0.3,0.3-0.7,0-1L43.6,21z"/>
			<path class="st4" d="M27.5,20.8c-0.2,0-0.4,0.1-0.5,0.2l-5.1,5.2c-0.3,0.3-0.3,0.7,0,1c0.3,0.3,0.7,0.3,1,0l5.2-5.2
				c0.3-0.3,0.3-0.7,0-1C27.9,20.9,27.7,20.8,27.5,20.8z"/>
			<path class="st4" d="M35.4,22.7c0-0.2-0.1-0.4-0.2-0.5C35,22.1,34.9,22,34.7,22c-0.4,0-0.7,0.3-0.7,0.7l0,7.3
				c0,0.4,0.3,0.7,0.7,0.7c0.4,0,0.7-0.3,0.7-0.7L35.4,22.7z"/>
			<path class="st4" d="M23.9,14.3c-0.1-0.1-0.3-0.2-0.5-0.2l-7.3,0c-0.4,0-0.7,0.3-0.7,0.7c0,0.4,0.3,0.7,0.7,0.7l7.3,0
				c0.4,0,0.7-0.3,0.7-0.7C24.1,14.6,24,14.4,23.9,14.3z"/>
			<path class="st4" d="M55.1,13.7c-0.1-0.1-0.3-0.2-0.5-0.2l-7.3,0c-0.4,0-0.7,0.3-0.7,0.7c0,0.4,0.3,0.7,0.7,0.7l7.3,0
				c0.4,0,0.7-0.3,0.7-0.7C55.3,14,55.2,13.8,55.1,13.7z"/>
		</g>
		<path class="st5" d="M26.1,11.6l1.1,4.1c0,0,1.7-0.7,3.8-0.9l-0.6-4.5C30.5,10.3,28,10.7,26.1,11.6z"/>
		<path class="st5" d="M43.4,12l-1,3.9c0,0-1.8-0.9-3.9-1.1l0.6-4.3C39.1,10.5,41.5,11.1,43.4,12z"/>
		<path class="st5" d="M32.2,10c0,0,2.1-0.4,5.1,0l-0.3,4.6c0,0-2.4-0.2-4.4,0L32.2,10z"/>
	</g>
</g>
<g id="Layer_2" class="st6">
	<g class="st7">
		<path class="st2" d="M38.7,29.9c0,0.5-0.4,0.9-0.9,0.9h-22c-0.5,0-0.9-0.4-0.9-0.9V3.8c0-0.5,0.4-0.9,0.9-0.9h22
			c0.5,0,0.9,0.4,0.9,0.9V29.9z"/>
		<path class="st0" d="M38.7,28.1c0,0.6-0.5,1.1-1.1,1.1H16c-0.6,0-1.1-0.5-1.1-1.1V2.4c0-0.6,0.5-1.1,1.1-1.1h21.6
			c0.6,0,1.1,0.5,1.1,1.1V28.1z"/>
		<path class="st2" d="M38.7,2.6c0,0.6-0.5,1.1-1.1,1.1H16c-0.6,0-1.1-0.5-1.1-1.1V1.2c0-0.6,0.5-1.1,1.1-1.1h21.6
			c0.6,0,1.1,0.5,1.1,1.1V2.6z"/>
		<path class="st1" d="M26.8,8.1c-4.5,0-8.2,3.7-8.2,8.2c0,0.4,0,0.8,0.1,1.2c0.6,4,4,7,8.1,7c4.1,0,7.5-3.1,8.1-7
			c0.1-0.4,0.1-0.8,0.1-1.2C35,11.7,31.3,8.1,26.8,8.1z"/>
		<path class="st4" d="M30.9,15.8c0,0-0.1,0-0.1,0.1c-0.2,0.4-0.5,0.7-0.9,1c0.1-0.4,0.1-0.8,0-1.2c-0.1-0.6-0.5-1.1-0.6-1.7
			c0-0.1-0.2-0.1-0.3,0c-0.1,0.7-0.7,1.5-1.3,2c0.2-0.5,0.5-1.1,0.5-1.6c0.1-0.5-0.2-1-0.3-1.5c-0.3-0.8-0.5-1.7-0.7-2.5
			c0-0.2-0.2-0.1-0.3,0c-0.1,1-0.7,1.6-1.4,2.3c-0.6,0.6-0.9,1.3-1,2.2c0,0.4,0,0.9,0,1.3c0,0.2,0.4,1.3-0.1,0.9
			c-0.4-0.3-0.5-0.9-0.9-1.2c-0.1-0.1-0.2,0-0.2,0.1c0,0,0,0.1,0,0.1c-0.4,1.1-0.3,2.5,0.4,3.5c0.6,0.8,1.6,1.3,2.6,1.6
			c0.1,0,0.2-0.1,0.2-0.2c0,0,0,0,0-0.1c-0.4-1-0.8-2.1-0.6-3.2c0.1-0.5,0.3-1,0.4-1.5c0.5,0.9,0.9,2,0.6,2.9c0,0.1,0,0.2,0.1,0.2
			c0.7-0.1,1.3-0.7,1.7-1.3c0.1,0.4,0.1,0.9,0,1.3c-0.1,0.7-0.7,1.1-1.1,1.6c0,0,0,0,0,0c0,0.1,0,0.1,0.1,0.2
			c1.1,0.4,2.3-0.7,2.8-1.6c0.6-1,0.6-2.4,0.6-3.5C31.1,15.8,31,15.8,30.9,15.8z"/>
		<g>
			<path class="st8" d="M50.7,13.6l0-9.4c0-0.9-0.8-1.7-1.7-1.7l-0.4,0c-0.9,0-1.7,0.8-1.7,1.7l0,9.4c0,0.9-0.8,1.7-1.7,1.7l-1.6,0
				c-0.7,0-1.2,0.6-1.2,1.2l0,3.8l13-0.1l0-3.8c0-0.7-0.6-1.2-1.2-1.2l-1.6,0C51.5,15.3,50.7,14.5,50.7,13.6z"/>
			<path class="st9" d="M55.2,19.3l-12.8,0.1c-0.3,0-0.5,0.2-0.5,0.5l0,0.7c0,0.3,0.2,0.5,0.5,0.5l12.8-0.1c0.3,0,0.5-0.2,0.5-0.5
				l0-0.7C55.8,19.6,55.5,19.3,55.2,19.3z"/>
			<path class="st10" d="M55,21.1l-6.2,0l-6.2,0l-0.5,4.9c0,0,0.6,1.8,6.6,1.8c6.1,0,6.6-1.8,6.6-1.8L55,21.1z"/>
			<g>
				<defs>
					<path id="SVGID_1_" d="M55,21.1l-6.2,0l-6.2,0l-0.5,4.9c0,0,0.6,1.8,6.6,1.8c6.1,0,6.6-1.8,6.6-1.8L55,21.1z"/>
				</defs>
				<clipPath id="SVGID_2_">
					<use xlink:href="#SVGID_1_"  style="overflow:visible;"/>
				</clipPath>
			</g>
			<path class="st11" d="M42.4,24l-0.2,2.1c0,0,0.4,1.8,6.6,1.8c6.2,0,6.6-1.8,6.6-1.8s-5.7,1.1-5.9-0.4c-0.2-1.3-2.6-2.6-4-1.7
				C43.7,25.1,42.4,24,42.4,24z"/>
		</g>
		<path class="st11" d="M37.6,1.5c0,0.6-0.4,1-1,1H17c-0.6,0-1-0.4-1-1v0.3c0-0.6,0.4-1,1-1h19.6c0.6,0,1,0.4,1,1V1.5z"/>
	</g>
</g>
<g id="Layer_3" class="st6">
	<g class="st7">
		<rect x="38.5" y="3.7" class="st1" width="11.2" height="16.7"/>
		<rect x="20.9" y="3.7" class="st1" width="11.2" height="16.7"/>
		<path class="st12" d="M29.7,20c-0.4-1.7-1.4-3.1-2.2-4.7c-1-1.9-1.1-3.8-0.6-5.9c0-0.2-0.1-0.3-0.3-0.2c0,0,0,0-0.1,0
			c-2.3,2-2.1,4.7-1.8,7.5c0.1,0.5,0.2,1.2,0,1.7c-0.3,1-1.2,0.3-1.5-0.3c-0.3-0.7-0.4-1.4-0.4-2.1c0-0.2-0.3-0.3-0.4-0.1
			c0,0,0,0,0,0.1c-0.4,1.5-0.8,3.1-0.8,4.7c0,0,0,0.1,0,0.1c0,2,1.6,3.4,3.6,3.5c0.6,0,1.2,0,1.8-0.1c0.7-0.1,1.3-0.4,2-0.9
			C30,22.5,30,21.1,29.7,20z"/>
		<path class="st12" d="M27.1,18.6c0.3-1.2,1-2.2,1.5-3.3c0.7-1.4,0.8-2.7,0.4-4.2c0-0.1,0.1-0.2,0.2-0.2c0,0,0,0,0,0
			c1.6,1.4,1.5,3.3,1.3,5.3c0,0.4-0.1,0.8,0,1.2c0.2,0.7,0.9,0.2,1.1-0.2c0.2-0.5,0.3-1,0.3-1.5c0-0.2,0.2-0.2,0.3-0.1c0,0,0,0,0,0
			c0.3,1.1,0.6,2.2,0.6,3.3c0,0,0,0,0,0.1c0,1.4-1.1,2.4-2.5,2.5c-0.4,0-0.9,0-1.2-0.1c-0.5-0.1-0.9-0.3-1.4-0.6
			C26.9,20.4,26.9,19.4,27.1,18.6z"/>
		<path class="st12" d="M44.3,19.2c-0.3-1.3-1.1-2.4-1.7-3.5c-0.7-1.5-0.9-2.9-0.5-4.5c0-0.1-0.1-0.2-0.2-0.2c0,0,0,0,0,0
			c-1.7,1.5-1.6,3.6-1.4,5.7c0,0.4,0.1,0.9,0,1.3c-0.3,0.7-0.9,0.3-1.1-0.2c-0.2-0.5-0.3-1.1-0.3-1.6c0-0.2-0.2-0.2-0.3-0.1
			c0,0,0,0,0,0c-0.3,1.1-0.6,2.4-0.6,3.6c0,0,0,0,0,0.1c0,1.5,1.2,2.6,2.7,2.7c0.5,0,0.9,0,1.3-0.1c0.5-0.1,1-0.3,1.5-0.6
			C44.5,21.1,44.5,20.1,44.3,19.2z"/>
		<path class="st12" d="M45.1,18.1c0.3-1.2,1-2.2,1.5-3.3c0.7-1.4,0.8-2.7,0.4-4.2c0-0.1,0.1-0.2,0.2-0.2c0,0,0,0,0,0
			c1.6,1.4,1.5,3.3,1.3,5.3c0,0.4-0.1,0.8,0,1.2c0.2,0.7,0.9,0.2,1.1-0.2c0.2-0.5,0.3-1,0.3-1.5c0-0.2,0.2-0.2,0.3-0.1c0,0,0,0,0,0
			c0.3,1.1,0.6,2.2,0.6,3.3c0,0,0,0,0,0.1c0,1.4-1.1,2.4-2.5,2.5c-0.4,0-0.9,0-1.2-0.1c-0.5-0.1-0.9-0.3-1.4-0.6
			C44.9,19.9,44.9,18.9,45.1,18.1z"/>
		<path class="st12" d="M41.4,19.5c0.4-1.7,1.4-3.1,2.2-4.7c1-1.9,1.2-3.8,0.6-5.9c0-0.2,0.2-0.3,0.3-0.3c0,0,0,0,0.1,0
			c2.3,2,2.1,4.7,1.8,7.5c-0.1,0.5-0.2,1.2,0,1.7c0.3,1,1.2,0.3,1.5-0.3c0.3-0.7,0.7,1.6,0.7,0.8c0-0.2,0.3-0.3,0.4-0.1
			c0,0,0.6-0.7,0.6-0.7c0.4,1.5,0,0.9,0,2.5c0,0,0,0.1,0,0.1c0,2-1.6,3.4-3.6,3.5c-0.6,0-1.2,0-1.8-0.1c-0.7-0.1-1.3-0.4-2-0.9
			C41.2,22.1,41.1,20.7,41.4,19.5z"/>
		<path class="st0" d="M35.5,0v30.7H53V0H35.5z M49.7,20.4H38.5V3.7h11.2V20.4z"/>
		<rect x="36.3" y="11.8" class="st2" width="1.3" height="8.7"/>
		<path class="st0" d="M17.7,0v30.7h17.4V0L17.7,0z M20.9,3.7h11.2v16.7H20.9V3.7z"/>
		<rect x="33" y="11.8" class="st2" width="1.3" height="8.7"/>
	</g>
</g>
<g id="Layer_4" class="st6">
	<g class="st7">
		<g>
			<path class="st13" d="M50.9,7.7c-0.2,0-0.4,0.1-0.5,0.2c-0.1,0.1-0.2,0.3-0.2,0.5c0,0.4,0.3,0.7,0.7,0.7l7.4,0
				c0.4,0,0.7-0.3,0.7-0.7c0-0.4-0.3-0.7-0.7-0.7L50.9,7.7z"/>
			<path class="st13" d="M50.1,11.3c0.1,0.2,0.2,0.3,0.4,0.4l6.6,3.3c0.4,0.2,0.8,0,1-0.3c0.2-0.4,0-0.8-0.3-1l-6.6-3.3
				c-0.4-0.2-0.8,0-1,0.3C50.1,10.9,50.1,11.1,50.1,11.3z"/>
			<path class="st13" d="M50.1,5.5c0.1-0.2,0.2-0.3,0.4-0.4L57.2,2c0.4-0.2,0.8,0,1,0.4c0.2,0.4,0,0.8-0.4,1l-6.7,3.1
				c-0.4,0.2-0.8,0-1-0.4C50,5.9,50,5.7,50.1,5.5z"/>
		</g>
		<g>
			<g>
				<path class="st2" d="M20.1,7.5h-2.2c0-4.1,3.3-7.5,7.5-7.5h5.8v2.2h-5.8C22.4,2.2,20.1,4.6,20.1,7.5z"/>
			</g>
			<path class="st14" d="M13.5,11.6h-0.9c-0.5,0-0.9-0.4-0.9-0.9V6.7c0-0.5,0.4-0.9,0.9-0.9h0.9c0.5,0,0.9,0.4,0.9,0.9v4.1
				C14.3,11.3,14,11.6,13.5,11.6z"/>
			<path class="st14" d="M18,8.3v0.9c0,0.5-0.4,0.9-0.9,0.9h-4.1c-0.5,0-0.9-0.4-0.9-0.9V8.3c0-0.5,0.4-0.9,0.9-0.9h4.1
				C17.6,7.4,18,7.8,18,8.3z"/>
			<path class="st1" d="M31.2,17.3h8.9l3,5.8c0.5,0.9,0.7,1.9,0.7,3v1.3c0,1.7-1.4,3.1-3.1,3.1H31c-1.7,0-3.1-1.4-3.1-3.1v-1.2
				c0-1,0.2-2.1,0.6-3L31.2,17.3z"/>
			<path class="st4" d="M39.2,23.9c0,0-0.1,0-0.1,0.1c-0.2,0.3-0.4,0.6-0.7,0.9c0.1-0.3,0.1-0.7,0-1c-0.1-0.5-0.4-0.9-0.5-1.5
				c0-0.1-0.2-0.1-0.2,0c-0.1,0.6-0.6,1.3-1.2,1.7c0.2-0.5,0.4-0.9,0.5-1.4c0.1-0.4-0.2-0.9-0.3-1.3c-0.2-0.7-0.4-1.5-0.6-2.2
				c0-0.1-0.2-0.1-0.2,0c-0.1,0.8-0.6,1.4-1.2,2c-0.5,0.5-0.8,1.1-0.8,1.9c0,0.4,0,0.8,0,1.1c0,0.2,0.4,1.2-0.1,0.8
				c-0.3-0.3-0.5-0.7-0.8-1c-0.1-0.1-0.2,0-0.2,0.1c0,0,0,0,0,0.1c-0.3,1-0.2,2.2,0.4,3.1c0.5,0.7,1.4,1.2,2.3,1.4
				c0.1,0,0.2-0.1,0.1-0.2c0,0,0,0,0,0c-0.4-0.9-0.7-1.9-0.5-2.8c0.1-0.4,0.2-0.9,0.4-1.3c0.4,0.7,0.8,1.7,0.5,2.5
				c0,0.1,0,0.2,0.1,0.1c0.6-0.1,1.1-0.6,1.4-1.1c0.1,0.4,0.1,0.8,0,1.1c-0.1,0.6-0.6,1-0.9,1.4c0,0,0,0,0,0c0,0.1,0,0.1,0.1,0.1
				c1,0.4,2-0.6,2.4-1.4c0.5-0.9,0.5-2.1,0.5-3C39.3,24,39.2,23.9,39.2,23.9z"/>
			<polygon class="st2" points="31.2,17.3 40.1,17.3 40.1,5 36.3,0 31.2,0 			"/>
			<path class="st2" d="M16.9,30.4l1.2,0.2c1.8,0.4,3.5-0.8,3.8-2.5l3.3-16.5c0.4-1.8-0.8-3.5-2.5-3.8l-1.2-0.2
				c-1.8-0.4-3.5,0.8-3.8,2.5l-3.3,16.5C14.1,28.4,15.2,30.1,16.9,30.4z"/>
			<path class="st14" d="M41.6,6.5L17,4.7c-0.5,0-1,0.4-1,0.9v6.4c0,0.5,0.5,0.9,1,0.9l24.6-2.4c0.5,0,0.8-0.4,0.8-0.9V7.4
				C42.4,6.9,42,6.6,41.6,6.5z"/>
			<path class="st14" d="M41.8,10.4l4.4,2c0.5,0.2,1.1-0.1,1.1-0.7V5.4c0-0.6-0.6-0.9-1.1-0.7l-4.4,1.9c-0.3,0.1-0.5,0.4-0.5,0.7
				v2.4C41.3,10,41.5,10.2,41.8,10.4z"/>
		</g>
	</g>
</g>
<g id="Layer_5" class="st6">
	<g class="st7">
		<path class="st13" d="M29.6,22.9c-0.1,0-0.3,0.1-0.4,0.2L26,27.7c-0.2,0.2-0.1,0.6,0.1,0.8c0.2,0.2,0.6,0.1,0.8-0.1l3.2-4.5
			c0.2-0.2,0.1-0.6-0.1-0.8C29.9,23,29.8,22.9,29.6,22.9z"/>
		<path class="st13" d="M35.9,24.7c0-0.2-0.1-0.3-0.2-0.4c-0.1-0.1-0.2-0.2-0.4-0.2c-0.3,0-0.6,0.2-0.6,0.6l0,5.5
			c0,0.3,0.2,0.6,0.6,0.6c0.3,0,0.6-0.2,0.6-0.6L35.9,24.7z"/>
		<path class="st15" d="M46.7,15.9l-0.6-0.8c-0.3-0.4-1-0.5-1.4-0.2L42,17c-0.1,0.1-0.3,0.2-0.5,0.2H29.1c-0.2,0-0.3-0.1-0.5-0.2
			l-2.7-2.1c-0.4-0.3-1.1-0.3-1.4,0.2L24,15.9c-0.3,0.4-0.2,1,0.2,1.3l3.4,2.6c0.2,0.2,0.5,0.3,0.7,0.3l14.2,0
			c0.2,0,0.4-0.1,0.6-0.2l3.5-2.7C47,16.9,47,16.3,46.7,15.9z"/>
		<path class="st2" d="M48.8,0h-27c-0.9,0-1.7,0.7-1.7,1.7v2.5c0,0.9,0.7,1.7,1.7,1.7h27c0.9,0,1.7-0.7,1.7-1.7V1.7
			C50.5,0.7,49.7,0,48.8,0z"/>
		<rect x="30.9" y="5.8" class="st0" width="8.9" height="2.8"/>
		<rect x="31.7" y="14.9" class="st0" width="7.2" height="2.3"/>
		<rect x="33.3" y="8.7" class="st0" width="4.1" height="6.3"/>
		<rect x="33.3" y="8.7" class="st3" width="4.1" height="1"/>
		<rect x="33.3" y="13.9" class="st3" width="4.1" height="1"/>
		<path class="st13" d="M32.2,24c-0.1,0.1-0.2,0.2-0.3,0.3l-1.5,5.3c-0.1,0.3,0.1,0.6,0.4,0.7c0.3,0.1,0.6-0.1,0.7-0.4l1.5-5.3
			c0.1-0.3-0.1-0.6-0.4-0.7C32.4,23.9,32.3,23.9,32.2,24z"/>
		<path class="st13" d="M41,22.9c0.1,0,0.3,0.1,0.4,0.2l3.2,4.5c0.2,0.2,0.1,0.6-0.1,0.8c-0.2,0.2-0.6,0.1-0.8-0.1l-3.2-4.5
			c-0.2-0.2-0.1-0.6,0.1-0.8C40.7,23,40.9,22.9,41,22.9z"/>
		<path class="st13" d="M38.5,24c0.1,0.1,0.2,0.2,0.3,0.3l1.5,5.3c0.1,0.3-0.1,0.6-0.4,0.7c-0.3,0.1-0.6-0.1-0.7-0.4l-1.5-5.3
			c-0.1-0.3,0.1-0.6,0.4-0.7C38.2,23.9,38.4,23.9,38.5,24z"/>
	</g>
</g>
<g id="Layer_6" class="st6">
	<g class="st7">
		<rect x="33.4" y="4" class="st14" width="5.8" height="2.9"/>
		<path class="st14" d="M50.9,1.2c0.3,0.4,0.3,1.8,0.1,2c-0.1,0.1-0.2,0.2-0.4,0.2c0,0-1.5-0.6-9.2-0.5c-0.2,0-0.5,0.3-0.1,0.6
			c1.4,0.9,5.5,2.4,6.9,3c0.3,0.1,0.6,0.4,0.6,0.7C48.9,7.5,49,8,49,8.4c0,0.3-0.4,0.6-0.7,0.4c-1.8-1-4.5-2.8-8.1-4
			c-1.8-0.6-2.4,1.4-3-0.4c-0.2-0.1,0.4-3.4,0.4-3.4c0-0.3,0.2,0,0.6,0c0,0,6.9,0.1,11.7-0.2C50.6,0.9,50.5,0.9,50.9,1.2z"/>
		<path class="st14" d="M48.6,8.5c-0.3-0.2-0.7-0.4-1.1-0.7c-1.7-1-4.1-2.4-7-3.4c-0.2-0.1-0.5-0.1-0.7-0.1c-0.4,0-0.8,0.1-1.1,0.3
			l-0.1,0.1c-0.2,0.1-0.4,0.2-0.5,0.2c-0.2,0-0.3-0.1-0.5-0.7l0,0l0,0c-0.1-0.2,0.2-1.6,0.4-3c0,0-0.1,0-0.1,0c0,0-0.1,0-0.1-0.1
			c0,0,0,0,0,0.1c-0.3,1.5-0.5,3.1-0.5,3.3l0,0l0,0c0.2,0.6,0.4,0.7,0.5,0.7c0.1,0,0.3-0.1,0.5-0.2l0.1-0.1c0.3-0.1,0.6-0.3,1.1-0.3
			c0.2,0,0.5,0,0.7,0.1c2.9,1,5.3,2.4,7,3.4c0.4,0.2,0.8,0.5,1.1,0.7c0.1,0,0.1,0,0.2,0c0.1,0,0.2,0,0.3-0.1c0,0,0.1-0.1,0.1-0.1
			c0,0-0.1,0-0.1,0C48.7,8.6,48.6,8.6,48.6,8.5z"/>
		<path class="st14" d="M37.3,4.6c0,0.3-0.2,0.5-0.5,0.5h-4.9c-0.3,0-0.5-0.2-0.5-0.5V2.2c0-0.3,0.2-0.5,0.5-0.5h4.9
			c0.3,0,0.5,0.2,0.5,0.5V4.6z"/>
		<g>
			
				<linearGradient id="SVGID_3_" gradientUnits="userSpaceOnUse" x1="1673.1575" y1="5.1086" x2="1672.8738" y2="2.0633" gradientTransform="matrix(1 0 0 1 -1636.7065 0)">
				<stop  offset="0" style="stop-color:#FFFFFF"/>
				<stop  offset="0.1641" style="stop-color:#C8C8C8"/>
				<stop  offset="0.3931" style="stop-color:#828282"/>
				<stop  offset="0.5995" style="stop-color:#4A4A4A"/>
				<stop  offset="0.7759" style="stop-color:#222222"/>
				<stop  offset="0.9151" style="stop-color:#090909"/>
				<stop  offset="1" style="stop-color:#000000"/>
			</linearGradient>
			<circle class="st16" cx="36.3" cy="3.2" r="0.5"/>
			
				<linearGradient id="SVGID_4_" gradientUnits="userSpaceOnUse" x1="1673.1373" y1="4.529" x2="1672.8291" y2="1.9391" gradientTransform="matrix(1 0 0 1 -1636.7065 0)">
				<stop  offset="0" style="stop-color:#FFFFFF"/>
				<stop  offset="0.1641" style="stop-color:#C8C8C8"/>
				<stop  offset="0.3931" style="stop-color:#828282"/>
				<stop  offset="0.5995" style="stop-color:#4A4A4A"/>
				<stop  offset="0.7759" style="stop-color:#222222"/>
				<stop  offset="0.9151" style="stop-color:#090909"/>
				<stop  offset="1" style="stop-color:#000000"/>
			</linearGradient>
			<circle class="st17" cx="36.3" cy="3.2" r="0.5"/>
			
				<radialGradient id="SVGID_5_" cx="1672.7996" cy="2.9824" r="1.2946" gradientTransform="matrix(1 0 0 1 -1636.7065 0)" gradientUnits="userSpaceOnUse">
				<stop  offset="0" style="stop-color:#FFFFFF"/>
				<stop  offset="9.917910e-002" style="stop-color:#EEEEEE"/>
				<stop  offset="0.2953" style="stop-color:#C2C2C2"/>
				<stop  offset="0.5697" style="stop-color:#7C7C7C"/>
				<stop  offset="0.9086" style="stop-color:#1B1B1B"/>
				<stop  offset="1" style="stop-color:#000000"/>
			</radialGradient>
			<circle class="st18" cx="36.3" cy="3.2" r="0.4"/>
		</g>
		<circle class="st2" cx="36.3" cy="3.1" r="3.1"/>
		<path class="st14" d="M32,1.9h-0.2c0,0-0.1,0-0.1,0l0,0c0.1,0-0.3-0.1-0.4,0.3c0,0.1-0.3,0.3-0.4,0.3c-1.4,0.1-3.5,0.4-5.4,2.1
			c-2.1,1.8-4,4.1-4,9.6c0-0.5,1.6-0.1,1.6-0.1c0-5.2,1.9-6.8,3.5-8.2c1.5-1.3,3.2-1.6,4.3-1.6c0.1,0,0.3,0.2,0.4,0.3
			c0.1,0.4,0.3,0.4,0.4,0.4c0,0,0,0,0,0c0,0,0,0,0,0H32c0.2,0,0.3,0,0.3-0.2V2.1C32.3,1.9,32.2,1.9,32,1.9z"/>
		<path class="st19" d="M25.2,17.2v-0.3c0-1.1-0.6-2-1.5-2.5c0,0,0,0,0,0v-0.6c0-0.2-0.1-0.3-0.3-0.3h-2.1c-0.2,0-0.3,0.1-0.3,0.3
			v0.6c0,0,0,0,0,0c-0.9,0.5-1.5,1.4-1.5,2.5v7.7c0,0.2,0.1,0.3,0.3,0.3h5.1c0.2,0,0.3-0.1,0.3-0.3v-7.3
			C25.2,17.3,25.2,17.2,25.2,17.2z"/>
		<rect x="33.4" y="6.7" class="st20" width="5.8" height="4.3"/>
		<path class="st4" d="M46.3,18.6c0-4.4-3.5-7.9-7.9-7.9h-4.7c-4.4,0-7.9,3.5-7.9,7.9c0,0.1,0,0.1,0,0.2h20.4
			C46.3,18.8,46.3,18.7,46.3,18.6z"/>
		<path class="st14" d="M46.3,19c0-0.1,0-0.1,0-0.2c0,0,0,0,0,0H25.9c0,0,0,0.1,0,0.1c0,0,0,0.1,0,0.1v1.5h20.5V19z"/>
		<rect x="25.9" y="20.5" class="st4" width="20.5" height="10.2"/>
		<circle class="st19" cx="36.3" cy="3.1" r="1.1"/>
	</g>
</g>
</svg>
