<?xml version="1.0" encoding="utf-8"?>
<!-- Generator: Adobe Illustrator 19.1.0, SVG Export Plug-In . SVG Version: 6.00 Build 0)  -->
<svg version="1.1" id="Layer_1" xmlns="http://www.w3.org/2000/svg" xmlns:xlink="http://www.w3.org/1999/xlink" x="0px" y="0px"
	 viewBox="0 0 470 250" style="enable-background:new 0 0 470 250;" xml:space="preserve">
<style type="text/css">
	.st0{fill:url(#SVGID_1_);}
	.st1{fill:none;stroke:#FFFFFF;stroke-width:2;stroke-miterlimit:10;}
	.st2{fill:#414142;}
	.st3{fill:#676865;}
	.st4{fill:#FFFFFF;}
	.st5{fill:#B62127;}
	.st6{fill:#A27A32;}
	.st7{fill:#794722;}
	.st8{fill:#C2A45C;}
	.st9{fill:#068082;}
	.st10{fill:#AD926A;}
	.st11{fill:#CBB591;}
	.st12{fill:#60422C;}
	.st13{fill:#8C693B;}
	.st14{fill:#BE9F65;}
	.st15{fill:#AF8755;}
	.st16{fill:#684626;}
	.st17{fill:#AF874B;}
	.st18{fill:#78572E;}
</style>
<linearGradient id="SVGID_1_" gradientUnits="userSpaceOnUse" x1="3.051757e-005" y1="-16257" x2="470" y2="-16257" gradientTransform="matrix(1 0 0 -1 0 -16132)">
	<stop  offset="0" style="stop-color:#E8DFC9"/>
	<stop  offset="0.5681" style="stop-color:#E1D0A4"/>
	<stop  offset="0.8444" style="stop-color:#D6B57B"/>
	<stop  offset="1" style="stop-color:#CFA462"/>
</linearGradient>
<rect x="0" y="0" class="st0" width="470" height="250"/>
<g>
	<rect x="19.1" y="17.3" class="st1" width="71.8" height="55"/>
	<g>
		<path class="st2" d="M62,63.3c0,0.6-0.5,1.1-1.1,1.1H33.2c-0.6,0-1.1-0.5-1.1-1.1V30.5c0-0.6,0.5-1.1,1.1-1.1h27.7
			c0.6,0,1.1,0.5,1.1,1.1V63.3z"/>
		<path class="st3" d="M62,60.9c0,0.8-0.6,1.4-1.4,1.4H33.5c-0.8,0-1.4-0.6-1.4-1.4V28.8c0-0.8,0.6-1.4,1.4-1.4h27.1
			c0.8,0,1.4,0.6,1.4,1.4V60.9z"/>
		<path class="st2" d="M62,29c0,0.8-0.6,1.4-1.4,1.4H33.5c-0.8,0-1.4-0.6-1.4-1.4v-1.7c0-0.8,0.6-1.4,1.4-1.4h27.1
			c0.8,0,1.4,0.6,1.4,1.4V29z"/>
		<path class="st4" d="M47,35.9c-5.7,0-10.3,4.6-10.3,10.3c0,0.5,0,1,0.1,1.5c0.7,5,5,8.8,10.2,8.8c5.2,0,9.5-3.8,10.2-8.8
			c0.1-0.5,0.1-1,0.1-1.5C57.3,40.5,52.7,35.9,47,35.9z"/>
		<path class="st5" d="M52.2,45.5c-0.1,0-0.1,0-0.2,0.1c-0.2,0.5-0.7,0.9-1.1,1.3c0.1-0.5,0.1-1,0-1.5c-0.2-0.7-0.6-1.4-0.7-2.1
			c0-0.2-0.3-0.2-0.3,0c-0.1,0.9-0.9,1.9-1.7,2.5c0.3-0.7,0.6-1.3,0.7-2.1c0.1-0.6-0.2-1.3-0.4-1.9c-0.3-1.1-0.6-2.1-0.9-3.2
			c-0.1-0.2-0.3-0.1-0.3,0c-0.1,1.2-0.9,2-1.7,2.8c-0.7,0.8-1.1,1.7-1.2,2.7c0,0.5,0,1.1,0,1.6c0,0.3,0.6,1.7-0.1,1.1
			c-0.5-0.4-0.7-1.1-1.1-1.5c-0.1-0.1-0.2,0-0.3,0.1c0,0,0,0.1,0,0.1c-0.5,1.4-0.3,3.1,0.5,4.4c0.8,1,2.1,1.7,3.3,2
			c0.2,0,0.3-0.1,0.2-0.2c0,0,0,0,0-0.1c-0.6-1.3-1.1-2.7-0.8-4.1c0.1-0.6,0.3-1.3,0.6-1.9c0.6,1.1,1.1,2.5,0.7,3.6
			c0,0.1,0.1,0.2,0.2,0.2c0.9-0.1,1.6-0.8,2.1-1.6c0.1,0.6,0.1,1.1,0,1.7c-0.2,0.8-0.9,1.4-1.3,2.1c0,0,0,0,0,0c0,0.1,0,0.2,0.1,0.2
			c1.4,0.5,2.8-0.9,3.5-2c0.7-1.3,0.7-3,0.7-4.4C52.4,45.6,52.3,45.5,52.2,45.5z"/>
		<g>
			<path class="st6" d="M77,42.8L77,31c0-1.2-0.9-2.1-2.1-2.1l-0.5,0c-1.2,0-2.1,0.9-2.1,2.1l0,11.8c0,1.2-1,2.1-2.1,2.2l-2.1,0
				c-0.9,0-1.5,0.7-1.5,1.6l0,4.7l16.3-0.1l0-4.7c0-0.9-0.7-1.5-1.6-1.5l-2.1,0C78,44.9,77,44,77,42.8z"/>
			<path class="st7" d="M82.9,50L66.5,50c-0.3,0-0.5,0.2-0.5,0.5l0,1.1c0,0.3,0.2,0.5,0.5,0.5l16.3-0.1c0.3,0,0.5-0.2,0.5-0.5l0-1.1
				C83.4,50.2,83.2,50,82.9,50z"/>
			<path class="st8" d="M82.4,52.2l-7.7,0l-7.7,0l-0.6,6.2c0,0,0.7,2.3,8.3,2.2s8.3-2.3,8.3-2.3L82.4,52.2z"/>
			<g>
				<defs>
					<path id="SVGID_2_" d="M82.4,52.2l-7.7,0l-7.7,0l-0.6,6.2c0,0,0.7,2.3,8.3,2.2s8.3-2.3,8.3-2.3L82.4,52.2z"/>
				</defs>
				<clipPath id="SVGID_3_">
					<use xlink:href="#SVGID_2_"  style="overflow:visible;"/>
				</clipPath>
			</g>
			<path class="st9" d="M66.7,55.8l-0.2,2.6c0,0,0.5,2.3,8.3,2.2s8.3-2.3,8.3-2.3s-7.1,1.3-7.4-0.5c-0.3-1.6-3.3-3.3-5-2.2
				C68.2,57.3,66.7,55.8,66.7,55.8z"/>
		</g>
		<path class="st9" d="M60.6,27.7c0,0.7-0.6,1.3-1.3,1.3H34.8c-0.7,0-1.3-0.6-1.3-1.3V28c0-0.7,0.6-1.3,1.3-1.3h24.6
			c0.7,0,1.3,0.6,1.3,1.3V27.7z"/>
	</g>
</g>
<rect x="344.7" y="0" class="st10" width="13.2" height="109.3"/>
<rect x="358" y="0" class="st11" width="65.4" height="109.3"/>
<rect x="418.5" y="0" class="st10" width="4.8" height="109.3"/>
<g>
	<path class="st12" d="M380.9,84.7h0.2V44.3h-0.2h-4.6h-0.2v40.4h0.2c-2.3,0-4.2,1.9-4.2,4.2v15.2h13V88.9
		C385.1,86.6,383.2,84.7,380.9,84.7z"/>
	<path class="st12" d="M327.3,84.7h0.2V44.3h-0.2h-4.6h-0.2v40.4h0.2c-2.3,0-4.2,1.9-4.2,4.2v15.7h13V88.9
		C331.5,86.6,329.6,84.7,327.3,84.7z"/>
	<path class="st12" d="M324.3,40.9l9.8,0c1.2,0,3.6-1.2,3.6-1.2s0,4,0,4.8v0c0,2-1.6,3.6-3.6,3.6l-9.8,0c-2,0-3.6-1.6-3.6-3.6v0
		C320.7,42.5,322.3,40.9,324.3,40.9z"/>
	<rect x="230.7" y="204.2" class="st13" width="13" height="16.7"/>
	<path class="st14" d="M249.8,220.9h-52c-1.7,0-3.2,1.4-3.2,3.2v6.4c0,1.7,1.4,3.2,3.2,3.2h52c1.7,0,3.2-1.4,3.2-3.2v-6.4
		C252.9,222.3,251.5,220.9,249.8,220.9z"/>
	<path class="st14" d="M279.2,191.5h-52c-1.7,0-3.2,1.4-3.2,3.2v6.4c0,1.7,1.4,3.2,3.2,3.2h52c1.7,0,3.2-1.4,3.2-3.2v-6.4
		C282.3,192.9,280.9,191.5,279.2,191.5z"/>
	<path class="st12" d="M321.5,42.2L206.2,157.5c-1.4,1.4-1.4,3.7,0,5.1l0,0c1.4,1.4,3.7,1.4,5.1,0L326.6,47.3c1.4-1.4,1.4-3.7,0-5.1
		v0C325.2,40.8,322.9,40.8,321.5,42.2z"/>
	<path class="st12" d="M208.5,156.4h-10.1c-1.2,0-3.8-1.2-3.8-1.2s0,4,0,4.8v0c0,2,1.7,3.6,3.8,3.6h10.1c2.1,0,3.8-1.6,3.8-3.6l0,0
		C212.3,158,210.6,156.4,208.5,156.4z"/>
	<path class="st14" d="M308.6,162h-52c-1.7,0-3.2,1.4-3.2,3.2v6.4c0,1.7,1.4,3.2,3.2,3.2h52c1.7,0,3.2-1.4,3.2-3.2v-6.4
		C311.8,163.4,310.4,162,308.6,162z"/>
	<path class="st14" d="M337.2,133.4h-52c-1.7,0-3.2,1.4-3.2,3.2v6.4c0,1.7,1.4,3.2,3.2,3.2h52c1.7,0,3.2-1.4,3.2-3.2v-6.4
		C340.4,134.8,339,133.4,337.2,133.4z"/>
	<path class="st14" d="M366.6,104.1h-52c-1.7,0-3.2,1.4-3.2,3.2v6.4c0,1.7,1.4,3.2,3.2,3.2h52c1.7,0,3.2-1.4,3.2-3.2v-6.4
		C369.7,105.5,368.3,104.1,366.6,104.1z"/>
	<path class="st15" d="M321.7,37.1L206.5,152.3c-1.4,1.4-1.4,3.7,0,5.1l0,0c1.4,1.4,3.7,1.4,5.1,0L326.8,42.2c1.4-1.4,1.4-3.7,0-5.1
		v0C325.4,35.7,323.1,35.7,321.7,37.1z"/>
	<path class="st15" d="M208.7,151.5h-10.4c-2,0-3.6,1.6-3.6,3.6l0,0c0,2,1.6,3.6,3.6,3.6h10.4c2,0,3.6-1.6,3.6-3.6v0
		C212.3,153.1,210.7,151.5,208.7,151.5z"/>
	<path class="st15" d="M324.3,36l9.8,0c2,0,3.6,1.6,3.6,3.6v0c0,2-1.6,3.6-3.6,3.6h-9.8c-2,0-3.6-1.6-3.6-3.6v0
		C320.7,37.7,322.3,36,324.3,36z"/>
	<path class="st12" d="M377.9,40.9l9.8,0c1.2,0,3.6-1.2,3.6-1.2s0,4,0,4.8v0c0,2-1.6,3.6-3.6,3.6l-9.8,0c-2,0-3.6-1.6-3.6-3.6v0
		C374.3,42.5,375.9,40.9,377.9,40.9z"/>
	<path class="st16" d="M375.6,104.1v25.4l-5.9,13.6v-3.6h-26.4v22.3h7.7l-7.3,7.3v0h-26.4v22.3h4.1l-8.7,8.7h-21.7v21.7l-6,6h-29
		v22.3h46.8l120.7-120.7v-22.1c0-1.8-1.5-3.3-3.3-3.3H375.6z"/>
	<rect x="318.5" y="116.8" class="st13" width="66.2" height="16.6"/>
	<rect x="289" y="146.1" class="st13" width="66.4" height="15.9"/>
	<rect x="259.8" y="174.7" class="st13" width="67" height="16.8"/>
	<rect x="230.7" y="204.2" class="st13" width="66.6" height="16.7"/>
	<rect x="202.2" y="233.5" class="st13" width="66.6" height="16.7"/>
	<path class="st17" d="M303.4,220.9h-52c-1.7,0-3.2,1.4-3.2,3.2v6.4c0,1.7,1.4,3.2,3.2,3.2h52c1.7,0,3.2-1.4,3.2-3.2v-6.4
		C306.5,222.3,305.1,220.9,303.4,220.9z"/>
	<path class="st17" d="M332.8,191.5h-52c-1.7,0-3.2,1.4-3.2,3.2v6.4c0,1.7,1.4,3.2,3.2,3.2h52c1.7,0,3.2-1.4,3.2-3.2v-6.4
		C335.9,192.9,334.5,191.5,332.8,191.5z"/>
	<path class="st12" d="M375.1,42.2L259.9,157.5c-1.4,1.4-1.4,3.7,0,5.1l0,0c1.4,1.4,3.7,1.4,5.1,0L380.2,47.3c1.4-1.4,1.4-3.7,0-5.1
		v0C378.8,40.8,376.5,40.8,375.1,42.2z"/>
	<path class="st12" d="M262.1,156.4H252c-1.2,0-3.8-1.2-3.8-1.2s0,4,0,4.8v0c0,2,1.7,3.6,3.8,3.6h10.1c2.1,0,3.8-1.6,3.8-3.6l0,0
		C265.9,158,264.2,156.4,262.1,156.4z"/>
	<path class="st17" d="M362.3,162h-52c-1.7,0-3.2,1.4-3.2,3.2v6.4c0,1.7,1.4,3.2,3.2,3.2h52c1.7,0,3.2-1.4,3.2-3.2v-6.4
		C365.4,163.4,364,162,362.3,162z"/>
	<path class="st17" d="M390.9,133.4h-52c-1.7,0-3.2,1.4-3.2,3.2v6.4c0,1.7,1.4,3.2,3.2,3.2h52c1.7,0,3.2-1.4,3.2-3.2v-6.4
		C394,134.8,392.6,133.4,390.9,133.4z"/>
	<path class="st17" d="M420.2,104.1h-52c-1.7,0-3.2,1.4-3.2,3.2v6.4c0,1.7,1.4,3.2,3.2,3.2h52c1.7,0,3.2-1.4,3.2-3.2v-6.4
		C423.3,105.5,421.9,104.1,420.2,104.1z"/>
	<path class="st15" d="M375.4,37.1L260.1,152.3c-1.4,1.4-1.4,3.7,0,5.1l0,0c1.4,1.4,3.7,1.4,5.1,0L380.5,42.2c1.4-1.4,1.4-3.7,0-5.1
		v0C379.1,35.7,376.8,35.7,375.4,37.1z"/>
	<path class="st15" d="M262.3,151.5h-10.4c-2,0-3.6,1.6-3.6,3.6l0,0c0,2,1.6,3.6,3.6,3.6h10.4c2,0,3.6-1.6,3.6-3.6v0
		C265.9,153.1,264.3,151.5,262.3,151.5z"/>
	<path class="st15" d="M377.9,36l9.8,0c2,0,3.6,1.6,3.6,3.6v0c0,2-1.6,3.6-3.6,3.6h-9.8c-2,0-3.6-1.6-3.6-3.6v0
		C374.3,37.7,375.9,36,377.9,36z"/>
	<path class="st12" d="M211,201h0.2v-40.4H211h-4.6h-0.2V201h0.2c-2.3,0-4.2,1.9-4.2,4.2v15.7h13v-15.7
		C215.2,202.9,213.3,201,211,201z"/>
	<path class="st12" d="M264.6,201h0.2v-40.4h-0.2H260h-0.2V201h0.2c-2.3,0-4.2,1.9-4.2,4.2v15.7h13v-15.7
		C268.8,202.9,266.9,201,264.6,201z"/>
	<rect x="342" y="146.1" class="st18" width="13.4" height="15.9"/>
	<rect x="314.3" y="174.7" class="st18" width="12.5" height="16.8"/>
	<rect x="285" y="204.2" class="st18" width="12.3" height="16.8"/>
	<rect x="255.8" y="233.5" class="st18" width="13" height="16.8"/>
	<rect x="372.1" y="116.8" class="st18" width="12.6" height="16.6"/>
</g>
</svg>
