<?xml version="1.0" encoding="utf-8"?>
<!-- Generator: Adobe Illustrator 19.1.0, SVG Export Plug-In . SVG Version: 6.00 Build 0)  -->
<svg version="1.1" id="Layer_1" xmlns="http://www.w3.org/2000/svg" xmlns:xlink="http://www.w3.org/1999/xlink" x="0px" y="0px"
	 viewBox="0 0 470 250" style="enable-background:new 0 0 470 250;" xml:space="preserve">
<style type="text/css">
	.st0{fill:url(#SVGID_1_);}
	.st1{fill:none;stroke:#FFFFFF;stroke-width:2;stroke-miterlimit:10;}
	.st2{fill:#414142;}
	.st3{fill:#676865;}
	.st4{fill:#FFFFFF;}
	.st5{fill:#B62127;}
	.st6{fill:#A27A32;}
	.st7{fill:#794722;}
	.st8{fill:#C2A45C;}
	.st9{fill:#068082;}
	.st10{clip-path:url(#SVGID_7_);}
	.st11{fill:#686D73;}
	.st12{fill:#4D5457;}
	.st13{fill:#363337;}
	.st14{fill:#A95D32;}
	.st15{fill:#E28D56;}
	.st16{fill:#706F6C;}
	.st17{fill:#3C2214;}
	.st18{clip-path:url(#SVGID_9_);}
	.st19{fill:#684530;}
	.st20{clip-path:url(#SVGID_11_);}
	.st21{opacity:0.48;fill:#502B18;}
	.st22{opacity:0.48;clip-path:url(#SVGID_11_);fill:#502B18;}
	.st23{clip-path:url(#SVGID_13_);}
	.st24{opacity:0.48;clip-path:url(#SVGID_13_);fill:#502B18;}
	.st25{clip-path:url(#SVGID_15_);}
	.st26{opacity:0.48;clip-path:url(#SVGID_15_);fill:#502B18;}
	.st27{clip-path:url(#SVGID_17_);}
	.st28{opacity:0.48;clip-path:url(#SVGID_17_);fill:#502B18;}
	.st29{clip-path:url(#SVGID_19_);}
	.st30{opacity:0.48;clip-path:url(#SVGID_19_);fill:#502B18;}
	.st31{clip-path:url(#SVGID_21_);}
	.st32{opacity:0.48;clip-path:url(#SVGID_21_);fill:#502B18;}
	.st33{clip-path:url(#SVGID_23_);}
	.st34{opacity:0.48;clip-path:url(#SVGID_23_);fill:#502B18;}
	.st35{clip-path:url(#SVGID_25_);}
	.st36{opacity:0.48;clip-path:url(#SVGID_25_);fill:#502B18;}
	.st37{clip-path:url(#SVGID_27_);}
	.st38{opacity:0.48;clip-path:url(#SVGID_27_);fill:#502B18;}
	.st39{clip-path:url(#SVGID_29_);}
	.st40{opacity:0.48;clip-path:url(#SVGID_29_);fill:#502B18;}
	.st41{clip-path:url(#SVGID_31_);}
	.st42{opacity:0.48;clip-path:url(#SVGID_31_);fill:#502B18;}
	.st43{clip-path:url(#SVGID_33_);}
	.st44{opacity:0.48;clip-path:url(#SVGID_33_);fill:#502B18;}
	.st45{clip-path:url(#SVGID_35_);}
	.st46{opacity:0.48;clip-path:url(#SVGID_35_);fill:#502B18;}
	.st47{clip-path:url(#SVGID_37_);}
	.st48{opacity:0.48;clip-path:url(#SVGID_37_);fill:#502B18;}
	.st49{fill:#AF8755;}
	.st50{fill:#815E3E;}
	.st51{fill:#4E2C17;}
	.st52{fill:none;stroke:#815E3E;stroke-miterlimit:10;}
</style>
<linearGradient id="SVGID_1_" gradientUnits="userSpaceOnUse" x1="3.051757e-005" y1="-16257.1934" x2="470" y2="-16257.1934" gradientTransform="matrix(1 0 0 -1 0 -16132)">
	<stop  offset="2.153458e-007" style="stop-color:#92ACC2"/>
	<stop  offset="0.2384" style="stop-color:#81A0B8"/>
	<stop  offset="0.2437" style="stop-color:#FFFFFF"/>
	<stop  offset="0.3264" style="stop-color:#FAFBFB"/>
	<stop  offset="0.4404" style="stop-color:#EBEEEE"/>
	<stop  offset="0.5251" style="stop-color:#DCE1E1"/>
	<stop  offset="0.7778" style="stop-color:#D5DBDC"/>
</linearGradient>
<rect x="0" y="0.4" class="st0" width="470" height="249.6"/>
<g>
	<rect x="19.1" y="17.7" class="st1" width="71.8" height="55"/>
	<g>
		<path class="st2" d="M62,63.7c0,0.6-0.5,1.1-1.1,1.1H33.2c-0.6,0-1.1-0.5-1.1-1.1V30.9c0-0.6,0.5-1.1,1.1-1.1h27.7
			c0.6,0,1.1,0.5,1.1,1.1V63.7z"/>
		<path class="st3" d="M62,61.3c0,0.8-0.6,1.4-1.4,1.4H33.5c-0.8,0-1.4-0.6-1.4-1.4V29.1c0-0.8,0.6-1.4,1.4-1.4h27.1
			c0.8,0,1.4,0.6,1.4,1.4V61.3z"/>
		<path class="st2" d="M62,29.4c0,0.8-0.6,1.4-1.4,1.4H33.5c-0.8,0-1.4-0.6-1.4-1.4v-1.7c0-0.8,0.6-1.4,1.4-1.4h27.1
			c0.8,0,1.4,0.6,1.4,1.4V29.4z"/>
		<path class="st4" d="M47,36.3c-5.7,0-10.3,4.6-10.3,10.3c0,0.5,0,1,0.1,1.5c0.7,5,5,8.8,10.2,8.8c5.2,0,9.5-3.8,10.2-8.8
			c0.1-0.5,0.1-1,0.1-1.5C57.3,40.9,52.7,36.3,47,36.3z"/>
		<path class="st5" d="M52.2,45.9c-0.1,0-0.1,0-0.2,0.1c-0.2,0.5-0.7,0.9-1.1,1.3c0.1-0.5,0.1-1,0-1.5c-0.2-0.7-0.6-1.4-0.7-2.1
			c0-0.2-0.3-0.2-0.3,0c-0.1,0.9-0.9,1.9-1.7,2.5c0.3-0.7,0.6-1.3,0.7-2.1c0.1-0.6-0.2-1.3-0.4-1.9c-0.3-1.1-0.6-2.1-0.9-3.2
			c-0.1-0.2-0.3-0.1-0.3,0c-0.1,1.2-0.9,2-1.7,2.8c-0.7,0.8-1.1,1.7-1.2,2.7c0,0.5,0,1.1,0,1.6c0,0.3,0.6,1.7-0.1,1.1
			c-0.5-0.4-0.7-1.1-1.1-1.5c-0.1-0.1-0.2,0-0.3,0.1c0,0,0,0.1,0,0.1c-0.5,1.4-0.3,3.1,0.5,4.4c0.8,1,2.1,1.7,3.3,2
			c0.2,0,0.3-0.1,0.2-0.2c0,0,0,0,0-0.1c-0.6-1.3-1.1-2.7-0.8-4.1c0.1-0.6,0.3-1.3,0.6-1.9c0.6,1.1,1.1,2.5,0.7,3.6
			c0,0.1,0.1,0.2,0.2,0.2c0.9-0.1,1.6-0.8,2.1-1.6c0.1,0.6,0.1,1.1,0,1.7c-0.2,0.8-0.9,1.4-1.3,2.1c0,0,0,0,0,0c0,0.1,0,0.2,0.1,0.2
			c1.4,0.5,2.8-0.9,3.5-2c0.7-1.3,0.7-3,0.7-4.4C52.4,46,52.3,45.9,52.2,45.9z"/>
		<g>
			<path class="st6" d="M77,43.2l0-11.8c0-1.2-0.9-2.1-2.1-2.1l-0.5,0c-1.2,0-2.1,0.9-2.1,2.1l0,11.8c0,1.2-1,2.1-2.1,2.2l-2.1,0
				c-0.9,0-1.5,0.7-1.5,1.6l0,4.7l16.3-0.1l0-4.7c0-0.9-0.7-1.5-1.6-1.5l-2.1,0C78,45.3,77,44.4,77,43.2z"/>
			<path class="st7" d="M82.9,50.4l-16.3,0.1c-0.3,0-0.5,0.2-0.5,0.5l0,1.1c0,0.3,0.2,0.5,0.5,0.5l16.3-0.1c0.3,0,0.5-0.2,0.5-0.5
				l0-1.1C83.4,50.6,83.2,50.4,82.9,50.4z"/>
			<path class="st8" d="M82.4,52.6l-7.7,0l-7.7,0l-0.6,6.2c0,0,0.7,2.3,8.3,2.2s8.3-2.3,8.3-2.3L82.4,52.6z"/>
			<g>
				<defs>
					<path id="SVGID_2_" d="M82.4,52.6l-7.7,0l-7.7,0l-0.6,6.2c0,0,0.7,2.3,8.3,2.2s8.3-2.3,8.3-2.3L82.4,52.6z"/>
				</defs>
				<clipPath id="SVGID_3_">
					<use xlink:href="#SVGID_2_"  style="overflow:visible;"/>
				</clipPath>
			</g>
			<path class="st9" d="M66.7,56.2l-0.2,2.6c0,0,0.5,2.3,8.3,2.2c7.8,0,8.3-2.3,8.3-2.3s-7.1,1.3-7.4-0.5c-0.3-1.6-3.3-3.3-5-2.2
				C68.2,57.7,66.7,56.2,66.7,56.2z"/>
		</g>
		<path class="st9" d="M60.6,28c0,0.7-0.6,1.3-1.3,1.3H34.8c-0.7,0-1.3-0.6-1.3-1.3v0.3c0-0.7,0.6-1.3,1.3-1.3h24.6
			c0.7,0,1.3,0.6,1.3,1.3V28z"/>
	</g>
</g>
<g>
	<rect x="19.1" y="17.7" class="st1" width="71.8" height="55"/>
	<g>
		<path class="st2" d="M62,63.7c0,0.6-0.5,1.1-1.1,1.1H33.2c-0.6,0-1.1-0.5-1.1-1.1V30.9c0-0.6,0.5-1.1,1.1-1.1h27.7
			c0.6,0,1.1,0.5,1.1,1.1V63.7z"/>
		<path class="st3" d="M62,61.3c0,0.8-0.6,1.4-1.4,1.4H33.5c-0.8,0-1.4-0.6-1.4-1.4V29.1c0-0.8,0.6-1.4,1.4-1.4h27.1
			c0.8,0,1.4,0.6,1.4,1.4V61.3z"/>
		<path class="st2" d="M62,29.4c0,0.8-0.6,1.4-1.4,1.4H33.5c-0.8,0-1.4-0.6-1.4-1.4v-1.7c0-0.8,0.6-1.4,1.4-1.4h27.1
			c0.8,0,1.4,0.6,1.4,1.4V29.4z"/>
		<path class="st4" d="M47,36.3c-5.7,0-10.3,4.6-10.3,10.3c0,0.5,0,1,0.1,1.5c0.7,5,5,8.8,10.2,8.8c5.2,0,9.5-3.8,10.2-8.8
			c0.1-0.5,0.1-1,0.1-1.5C57.3,40.9,52.7,36.3,47,36.3z"/>
		<path class="st5" d="M52.2,45.9c-0.1,0-0.1,0-0.2,0.1c-0.2,0.5-0.7,0.9-1.1,1.3c0.1-0.5,0.1-1,0-1.5c-0.2-0.7-0.6-1.4-0.7-2.1
			c0-0.2-0.3-0.2-0.3,0c-0.1,0.9-0.9,1.9-1.7,2.5c0.3-0.7,0.6-1.3,0.7-2.1c0.1-0.6-0.2-1.3-0.4-1.9c-0.3-1.1-0.6-2.1-0.9-3.2
			c-0.1-0.2-0.3-0.1-0.3,0c-0.1,1.2-0.9,2-1.7,2.8c-0.7,0.8-1.1,1.7-1.2,2.7c0,0.5,0,1.1,0,1.6c0,0.3,0.6,1.7-0.1,1.1
			c-0.5-0.4-0.7-1.1-1.1-1.5c-0.1-0.1-0.2,0-0.3,0.1c0,0,0,0.1,0,0.1c-0.5,1.4-0.3,3.1,0.5,4.4c0.8,1,2.1,1.7,3.3,2
			c0.2,0,0.3-0.1,0.2-0.2c0,0,0,0,0-0.1c-0.6-1.3-1.1-2.7-0.8-4.1c0.1-0.6,0.3-1.3,0.6-1.9c0.6,1.1,1.1,2.5,0.7,3.6
			c0,0.1,0.1,0.2,0.2,0.2c0.9-0.1,1.6-0.8,2.1-1.6c0.1,0.6,0.1,1.1,0,1.7c-0.2,0.8-0.9,1.4-1.3,2.1c0,0,0,0,0,0c0,0.1,0,0.2,0.1,0.2
			c1.4,0.5,2.8-0.9,3.5-2c0.7-1.3,0.7-3,0.7-4.4C52.4,46,52.3,45.9,52.2,45.9z"/>
		<g>
			<path class="st6" d="M77,43.2l0-11.8c0-1.2-0.9-2.1-2.1-2.1l-0.5,0c-1.2,0-2.1,0.9-2.1,2.1l0,11.8c0,1.2-1,2.1-2.1,2.2l-2.1,0
				c-0.9,0-1.5,0.7-1.5,1.6l0,4.7l16.3-0.1l0-4.7c0-0.9-0.7-1.5-1.6-1.5l-2.1,0C78,45.3,77,44.4,77,43.2z"/>
			<path class="st7" d="M82.9,50.4l-16.3,0.1c-0.3,0-0.5,0.2-0.5,0.5l0,1.1c0,0.3,0.2,0.5,0.5,0.5l16.3-0.1c0.3,0,0.5-0.2,0.5-0.5
				l0-1.1C83.4,50.6,83.2,50.4,82.9,50.4z"/>
			<path class="st8" d="M82.4,52.6l-7.7,0l-7.7,0l-0.6,6.2c0,0,0.7,2.3,8.3,2.2s8.3-2.3,8.3-2.3L82.4,52.6z"/>
			<g>
				<defs>
					<path id="SVGID_4_" d="M82.4,52.6l-7.7,0l-7.7,0l-0.6,6.2c0,0,0.7,2.3,8.3,2.2s8.3-2.3,8.3-2.3L82.4,52.6z"/>
				</defs>
				<clipPath id="SVGID_5_">
					<use xlink:href="#SVGID_4_"  style="overflow:visible;"/>
				</clipPath>
			</g>
			<path class="st9" d="M66.7,56.2l-0.2,2.6c0,0,0.5,2.3,8.3,2.2c7.8,0,8.3-2.3,8.3-2.3s-7.1,1.3-7.4-0.5c-0.3-1.6-3.3-3.3-5-2.2
				C68.2,57.7,66.7,56.2,66.7,56.2z"/>
		</g>
		<path class="st9" d="M60.6,28c0,0.7-0.6,1.3-1.3,1.3H34.8c-0.7,0-1.3-0.6-1.3-1.3v0.3c0-0.7,0.6-1.3,1.3-1.3h24.6
			c0.7,0,1.3,0.6,1.3,1.3V28z"/>
	</g>
</g>
<g>
	<defs>
		<rect id="SVGID_6_" x="0" y="0.4" width="470" height="249.6"/>
	</defs>
	<clipPath id="SVGID_7_">
		<use xlink:href="#SVGID_6_"  style="overflow:visible;"/>
	</clipPath>
	<g class="st10">
		<g>
			<polygon class="st11" points="269.6,222.9 156.3,222.9 159.4,242.9 272.7,242.9 			"/>
			<rect x="156.3" y="215" class="st12" width="113.3" height="7.9"/>
			<polygon class="st13" points="272.7,261.4 156.3,261.4 159.4,267.1 272.7,267.1 			"/>
			<rect x="159.4" y="242.9" class="st12" width="113.3" height="23.2"/>
			<polygon class="st11" points="269.6,176.4 156.3,176.4 159.4,196.5 272.7,196.5 			"/>
			<rect x="156.3" y="168.5" class="st12" width="113.3" height="7.9"/>
			<polygon class="st13" points="272.7,215 156.3,215 159.4,220.6 272.7,220.6 			"/>
			<rect x="159.4" y="196.5" class="st12" width="113.3" height="23.2"/>
		</g>
		<g>
			<path class="st14" d="M356.3-8.1H313c-1.5,0-2.7,1.2-2.7,2.7v16.9c0,1.5,1.2,2.7,2.7,2.7h43.4c1.5,0,2.7-1.2,2.7-2.7V-5.3
				C359.1-6.8,357.8-8.1,356.3-8.1z"/>
			<path class="st15" d="M356.3-9.4H313c-1.5,0-2.7,1.2-2.7,2.7v16.9c0,1.5,1.2,2.7,2.7,2.7h43.4c1.5,0,2.7-1.2,2.7-2.7V-6.7
				C359.1-8.2,357.8-9.4,356.3-9.4z"/>
			<path class="st14" d="M406.7-8.1h-43.4c-1.5,0-2.7,1.2-2.7,2.7v16.9c0,1.5,1.2,2.7,2.7,2.7h43.4c1.5,0,2.7-1.2,2.7-2.7V-5.3
				C409.4-6.8,408.2-8.1,406.7-8.1z"/>
			<path class="st15" d="M406.7-9.4h-43.4c-1.5,0-2.7,1.2-2.7,2.7v16.9c0,1.5,1.2,2.7,2.7,2.7h43.4c1.5,0,2.7-1.2,2.7-2.7V-6.7
				C409.4-8.2,408.2-9.4,406.7-9.4z"/>
			<path class="st14" d="M380,15.6h-43.4c-1.5,0-2.7,1.2-2.7,2.7v16.9c0,1.5,1.2,2.7,2.7,2.7H380c1.5,0,2.7-1.2,2.7-2.7V18.4
				C382.8,16.9,381.5,15.6,380,15.6z"/>
			<path class="st15" d="M380,14.3h-43.4c-1.5,0-2.7,1.2-2.7,2.7v16.9c0,1.5,1.2,2.7,2.7,2.7H380c1.5,0,2.7-1.2,2.7-2.7V17
				C382.8,15.5,381.5,14.3,380,14.3z"/>
			<path class="st14" d="M430.4,15.6H387c-1.5,0-2.7,1.2-2.7,2.7v16.9c0,1.5,1.2,2.7,2.7,2.7h43.4c1.5,0,2.7-1.2,2.7-2.7V18.4
				C433.1,16.9,431.9,15.6,430.4,15.6z"/>
			<path class="st15" d="M430.4,14.3H387c-1.5,0-2.7,1.2-2.7,2.7v16.9c0,1.5,1.2,2.7,2.7,2.7h43.4c1.5,0,2.7-1.2,2.7-2.7V17
				C433.1,15.5,431.9,14.3,430.4,14.3z"/>
			<path class="st14" d="M356.3,39.4H313c-1.5,0-2.7,1.2-2.7,2.7v16.9c0,1.5,1.2,2.7,2.7,2.7h43.4c1.5,0,2.7-1.2,2.7-2.7V42.1
				C359.1,40.6,357.8,39.4,356.3,39.4z"/>
			<path class="st15" d="M356.3,38H313c-1.5,0-2.7,1.2-2.7,2.7v16.9c0,1.5,1.2,2.7,2.7,2.7h43.4c1.5,0,2.7-1.2,2.7-2.7V40.8
				C359.1,39.3,357.8,38,356.3,38z"/>
			<path class="st14" d="M406.7,39.4h-43.4c-1.5,0-2.7,1.2-2.7,2.7v16.9c0,1.5,1.2,2.7,2.7,2.7h43.4c1.5,0,2.7-1.2,2.7-2.7V42.1
				C409.4,40.6,408.2,39.4,406.7,39.4z"/>
			<path class="st15" d="M406.7,38h-43.4c-1.5,0-2.7,1.2-2.7,2.7v16.9c0,1.5,1.2,2.7,2.7,2.7h43.4c1.5,0,2.7-1.2,2.7-2.7V40.8
				C409.4,39.3,408.2,38,406.7,38z"/>
			<path class="st14" d="M380,63.1h-43.4c-1.5,0-2.7,1.2-2.7,2.7v16.9c0,1.5,1.2,2.7,2.7,2.7H380c1.5,0,2.7-1.2,2.7-2.7V65.8
				C382.8,64.3,381.5,63.1,380,63.1z"/>
			<path class="st15" d="M380,61.7h-43.4c-1.5,0-2.7,1.2-2.7,2.7v16.9c0,1.5,1.2,2.7,2.7,2.7H380c1.5,0,2.7-1.2,2.7-2.7V64.5
				C382.8,62.9,381.5,61.7,380,61.7z"/>
			<path class="st14" d="M430.4,63.1H387c-1.5,0-2.7,1.2-2.7,2.7v16.9c0,1.5,1.2,2.7,2.7,2.7h43.4c1.5,0,2.7-1.2,2.7-2.7V65.8
				C433.1,64.3,431.9,63.1,430.4,63.1z"/>
			<path class="st15" d="M430.4,61.7H387c-1.5,0-2.7,1.2-2.7,2.7v16.9c0,1.5,1.2,2.7,2.7,2.7h43.4c1.5,0,2.7-1.2,2.7-2.7V64.5
				C433.1,62.9,431.9,61.7,430.4,61.7z"/>
		</g>
		<g>
			<g>
				<rect x="337.1" y="149.4" class="st12" width="8.5" height="131.1"/>
				<rect x="340.1" y="149.4" class="st16" width="8.5" height="131.1"/>
				<g>
					<rect x="408" y="149.4" class="st12" width="8.5" height="131.1"/>
					<rect x="411.1" y="149.4" class="st16" width="8.5" height="131.1"/>
				</g>
			</g>
			<g>
				<rect x="324.7" y="168.6" class="st17" width="108.4" height="91.2"/>
				<polygon class="st17" points="429.4,263.5 321,263.5 321,172.3 324.7,168.6 429.4,172.3 433.1,259.8 				"/>
				<g>
					<defs>
						<rect id="SVGID_8_" x="324.7" y="168.5" width="108.4" height="91.3"/>
					</defs>
					<clipPath id="SVGID_9_">
						<use xlink:href="#SVGID_8_"  style="overflow:visible;"/>
					</clipPath>
					<g class="st18">
						<path class="st19" d="M359,167.5c0.2,0.2-2.6,0.3-4.1-0.2c-0.9-0.3-3.4,0.2-3.4,0.2s-1.8,0-2.7,0c-2-0.1-5.9-0.4-7.1,0.1
							c-1.1,0.5-2.8-0.1-2.8-0.1s-1.6-0.1-2.1,0c-1.8,0.4-3.3,0.1-4.1,0c-0.2,0-0.4,0-0.7,0c-0.8,0.2-1.2,0.6-2.6,0.2
							c-1.8-0.4-4.7-0.2-4.7-0.2c-1,0-1.7,0.8-1.7,1.7c0,0-0.4,0.7,0,1.6s-0.4,2.7,0,3.1s0,1,0,1s-0.5,2.3,0,3.4
							c0.5,1.1,0,2.3,0,2.3s-0.6,1.8,0,3.3s0,3.6,0,3.6c0,1,0.8,1.7,1.7,1.7c0,0,7.2,0.6,7.2,0c0-0.6,4-0.5,5.9,0c2,0.5,5.3,0,5.3,0
							c1.6-0.4,3.6-0.1,5.8,0c0,0,2.7,0.3,3.8-0.5c0.9-0.7,6.2,0.5,6.2,0.5c1,0,1.7-0.8,1.7-1.7l0.3-1.8c0.1-0.4-0.1-0.9-0.3-1.3
							c-0.2-0.4-0.2-1.6,0.1-2.5c0.4-1.6,0-3.8,0-3.8s-0.6-2.1,0-3.4c0.6-1.3,0-5.5,0-5.5C360.7,168.3,359.9,167.5,359,167.5z"/>
						<g>
							<defs>
								<path id="SVGID_10_" d="M359,167.5c0.2,0.2-2.6,0.3-4.1-0.2c-0.9-0.3-3.4,0.2-3.4,0.2s-1.8,0-2.7,0c-2-0.1-5.9-0.4-7.1,0.1
									c-1.1,0.5-2.8-0.1-2.8-0.1s-1.6-0.1-2.1,0c-1.8,0.4-3.3,0.1-4.1,0c-0.2,0-0.4,0-0.7,0c-0.8,0.2-1.2,0.6-2.6,0.2
									c-1.8-0.4-4.7-0.2-4.7-0.2c-1,0-1.7,0.8-1.7,1.7c0,0-0.4,0.7,0,1.6s-0.4,2.7,0,3.1s0,1,0,1s-0.5,2.3,0,3.4
									c0.5,1.1,0,2.3,0,2.3s-0.6,1.8,0,3.3s0,3.6,0,3.6c0,1,0.8,1.7,1.7,1.7c0,0,7.2,0.6,7.2,0c0-0.6,4-0.5,5.9,0
									c2,0.5,5.3,0,5.3,0c1.6-0.4,3.6-0.1,5.8,0c0,0,2.7,0.3,3.8-0.5c0.9-0.7,6.2,0.5,6.2,0.5c1,0,1.7-0.8,1.7-1.7l0.3-1.8
									c0.1-0.4-0.1-0.9-0.3-1.3c-0.2-0.4-0.2-1.6,0.1-2.5c0.4-1.6,0-3.8,0-3.8s-0.6-2.1,0-3.4c0.6-1.3,0-5.5,0-5.5
									C360.7,168.3,359.9,167.5,359,167.5z"/>
							</defs>
							<clipPath id="SVGID_11_">
								<use xlink:href="#SVGID_10_"  style="overflow:visible;"/>
							</clipPath>
							<g class="st20">
								<path class="st21" d="M323.1,184.4h2.7h0.7c0.9,0,1.7,0.2,2.5,0.6l0.1,0.1c0,0,0.8,0.2,1.3,0.4c0.4,0.2,1.5,0.3,1.8,0.3
									c0.4,0,1.5,0.5,1.7,0.8s0.6,0.8,0.8,1.1c0.2,0.3,0.6,1.1,0.6,1.1s-3-0.1-3.4,0.4c-0.5,0.5-5.7,0.3-5.7,0.3l-3.8-0.4
									L323.1,184.4z"/>
								<path class="st21" d="M345.2,169.1c1.8,1.6,1.6,1.2,1.7,2.7s-0.2,1.3,1.5,1.8c1.8,0.5,2.6,0,3.5,0c0.9,0,1.5,0.2,2.5,0.5
									s1.7,0.2,2.7,0.2c0.9,0,1.3,0.3,2.1,0c0.8-0.3,1.9-0.1,1.9-0.1l0.7-7.8l-6-1.1h-7.4l-3.6,1.2
									C344.6,166.6,344.1,168.2,345.2,169.1z"/>
								<path class="st21" d="M322.4,170.3c0,0,1.1,0.1,1,1.8c-0.1,1.7,0.5,2.8,0.5,2.8s-0.1,0.9,0,2c0.1,1,1.4,0.8,0.8,2.5
									s-0.8,2.3-0.8,2.3l-0.6,0.7l-1.4,0.9L322.4,170.3z"/>
								<path class="st21" d="M361.7,179.8l-1.5,0.7c0,0-0.4,0.2-0.5,1.9c-0.2,1.7-0.9,2.7-1.9,3.1c-1,0.4-1.5,0.1-1.6,0.5
									c-0.1,0.4,0.2,0.7,0,1c-0.2,0.4-1.3,1.6-1.3,1.6s0.8,2,0.8,2.1c0,0.1,4.3,0,4.3,0l3.7-2.1L361.7,179.8z"/>
								<path class="st21" d="M336.5,183.6v1l0.8,0.9c0,0,0.2,1.3,0.2,1.5c0.1,0.1-0.2,0.4,0.4,1c0.5,0.6,0,1.1,0.8,1.4
									c0.8,0.3,1.7,0.8,1.7,0.8l3.3,0.1c0,0,2.3-0.3,2.8,0c0.5,0.3,1.2,0.5,1.5,0.6s-0.5-2.8-0.5-2.8l-2.4-1.2
									c0,0-1.7-1.2-1.9-1.4c-0.2-0.2-1.2-2-1.2-2s-4.8-1.4-5.1,0S336.5,183.6,336.5,183.6z"/>
							</g>
							<path class="st22" d="M327.6,174.5c0,0-1.2-2.3,0.4-3s1.7-2,3.4-1.1c1.7,0.8,4,0.7,4,0.7s2.3,0.7,2.5,0.9
								c0.2,0.2,1.1,0.9,1.8,1.2c0.7,0.3,2.6-0.2,2.8,0.7c0.2,0.9,0,1.7,0,1.7s-5.9,1.2-8,0.2s-1.9-1.5-3.3-0.8
								c-1.4,0.7-1.4,0.8-2.1,0.6C328.4,175.3,327.6,174.5,327.6,174.5z"/>
						</g>
						<path class="st19" d="M383.8,212.9c-0.2-0.2,2.6-0.3,4.1,0.2c0.9,0.3,3.4-0.2,3.4-0.2s1.8,0,2.7,0c2,0.1,5.9,0.4,7.1-0.1
							c1.1-0.5,2.8,0.1,2.8,0.1s1.6,0.1,2.1,0c1.8-0.4,3.3-0.1,4.1,0c0.2,0,0.4,0,0.7,0c0.8-0.2,1.2-0.6,2.6-0.2
							c1.8,0.4,4.7,0.2,4.7,0.2c1,0,1.7-0.8,1.7-1.7c0,0,0.4-0.7,0-1.6c-0.4-0.8,0.4-2.7,0-3.1c-0.4-0.5,0-1,0-1s0.5-2.3,0-3.4
							c-0.5-1.1,0-2.3,0-2.3s0.6-1.8,0-3.3c-0.6-1.4,0-3.6,0-3.6c0-1-0.8-1.7-1.7-1.7c0,0-7.2-0.6-7.2,0s-4,0.5-5.9,0
							c-2-0.5-5.3,0-5.3,0c-1.6,0.4-3.6,0.1-5.8,0c0,0-2.7-0.3-3.8,0.5c-0.9,0.7-6.2-0.5-6.2-0.5c-1,0-1.7,0.8-1.7,1.7l-0.3,1.8
							c-0.1,0.4,0.1,0.9,0.3,1.3c0.2,0.4,0.2,1.6-0.1,2.5c-0.4,1.6,0,3.8,0,3.8s0.6,2.1,0,3.4c-0.6,1.3,0,5.5,0,5.5
							C382.1,212.1,382.9,212.9,383.8,212.9z"/>
						<g>
							<defs>
								<path id="SVGID_12_" d="M383.8,212.9c-0.2-0.2,2.6-0.3,4.1,0.2c0.9,0.3,3.4-0.2,3.4-0.2s1.8,0,2.7,0c2,0.1,5.9,0.4,7.1-0.1
									c1.1-0.5,2.8,0.1,2.8,0.1s1.6,0.1,2.1,0c1.8-0.4,3.3-0.1,4.1,0c0.2,0,0.4,0,0.7,0c0.8-0.2,1.2-0.6,2.6-0.2
									c1.8,0.4,4.7,0.2,4.7,0.2c1,0,1.7-0.8,1.7-1.7c0,0,0.4-0.7,0-1.6c-0.4-0.8,0.4-2.7,0-3.1c-0.4-0.5,0-1,0-1s0.5-2.3,0-3.4
									c-0.5-1.1,0-2.3,0-2.3s0.6-1.8,0-3.3c-0.6-1.4,0-3.6,0-3.6c0-1-0.8-1.7-1.7-1.7c0,0-7.2-0.6-7.2,0s-4,0.5-5.9,0
									c-2-0.5-5.3,0-5.3,0c-1.6,0.4-3.6,0.1-5.8,0c0,0-2.7-0.3-3.8,0.5c-0.9,0.7-6.2-0.5-6.2-0.5c-1,0-1.7,0.8-1.7,1.7l-0.3,1.8
									c-0.1,0.4,0.1,0.9,0.3,1.3c0.2,0.4,0.2,1.6-0.1,2.5c-0.4,1.6,0,3.8,0,3.8s0.6,2.1,0,3.4c-0.6,1.3,0,5.5,0,5.5
									C382.1,212.1,382.9,212.9,383.8,212.9z"/>
							</defs>
							<clipPath id="SVGID_13_">
								<use xlink:href="#SVGID_12_"  style="overflow:visible;"/>
							</clipPath>
							<g class="st23">
								<path class="st21" d="M419.7,195.9h-2.7h-0.7c-0.9,0-1.7-0.2-2.5-0.6l-0.1-0.1c0,0-0.8-0.2-1.3-0.4
									c-0.4-0.2-1.5-0.3-1.8-0.3c-0.4,0-1.5-0.5-1.7-0.8s-0.6-0.8-0.8-1.1c-0.2-0.3-0.6-1.1-0.6-1.1s3,0.1,3.4-0.4
									c0.5-0.5,5.7-0.3,5.7-0.3l3.8,0.4L419.7,195.9z"/>
								<path class="st21" d="M397.6,211.3c-1.8-1.6-1.6-1.2-1.7-2.7c-0.1-1.4,0.2-1.3-1.5-1.8s-2.6,0-3.5,0s-1.5-0.2-2.5-0.5
									c-1-0.3-1.7-0.2-2.7-0.2c-0.9,0-1.3-0.3-2.1,0s-1.9,0.1-1.9,0.1l-0.7,7.8l6,1.1h7.4l3.6-1.2
									C398.2,213.8,398.7,212.2,397.6,211.3z"/>
								<path class="st21" d="M420.4,210.1c0,0-1.1-0.1-1-1.8s-0.5-2.8-0.5-2.8s0.1-0.9,0-2c-0.1-1-1.4-0.8-0.8-2.5
									c0.6-1.7,0.8-2.3,0.8-2.3l0.6-0.7l1.4-0.9L420.4,210.1z"/>
								<path class="st21" d="M381.1,200.5l1.5-0.7c0,0,0.4-0.2,0.5-1.9c0.2-1.7,0.9-2.7,1.9-3.1c1-0.4,1.5-0.1,1.6-0.5
									s-0.2-0.7,0-1c0.2-0.4,1.3-1.6,1.3-1.6s-0.8-2-0.8-2.1c0-0.1-4.3,0-4.3,0l-3.7,2.1L381.1,200.5z"/>
								<path class="st21" d="M406.3,196.7v-1l-0.8-0.9c0,0-0.2-1.3-0.2-1.5c-0.1-0.1,0.2-0.4-0.4-1c-0.5-0.6,0-1.1-0.8-1.4
									c-0.8-0.3-1.7-0.8-1.7-0.8l-3.3-0.1c0,0-2.3,0.3-2.8,0c-0.5-0.3-1.2-0.5-1.5-0.6c-0.4-0.1,0.5,2.8,0.5,2.8l2.4,1.2
									c0,0,1.7,1.2,1.9,1.4c0.2,0.2,1.2,2,1.2,2s4.8,1.4,5.1,0S406.3,196.7,406.3,196.7z"/>
							</g>
							<path class="st24" d="M415.1,205.9c0,0,1.2,2.3-0.4,3c-1.7,0.7-1.7,2-3.4,1.1s-4-0.7-4-0.7s-2.3-0.7-2.5-0.9
								c-0.2-0.2-1.1-0.9-1.8-1.2c-0.7-0.3-2.6,0.2-2.8-0.7s0-1.7,0-1.7s5.9-1.2,8-0.2c2.1,1,1.9,1.5,3.3,0.8
								c1.4-0.7,1.4-0.8,2.1-0.6S415.1,205.9,415.1,205.9z"/>
						</g>
						<path class="st19" d="M304.8,212.9c-0.2-0.2,2.6-0.3,4.1,0.2c0.9,0.3,3.4-0.2,3.4-0.2s1.8,0,2.7,0c2,0.1,5.9,0.4,7.1-0.1
							c1.1-0.5,2.8,0.1,2.8,0.1s1.6,0.1,2.1,0c1.8-0.4,3.3-0.1,4.1,0c0.2,0,0.4,0,0.7,0c0.8-0.2,1.2-0.6,2.6-0.2
							c1.8,0.4,4.7,0.2,4.7,0.2c1,0,1.7-0.8,1.7-1.7c0,0,0.4-0.7,0-1.6c-0.4-0.8,0.4-2.7,0-3.1s0-1,0-1s0.5-2.3,0-3.4
							c-0.5-1.1,0-2.3,0-2.3s0.6-1.8,0-3.3c-0.6-1.4,0-3.6,0-3.6c0-1-0.8-1.7-1.7-1.7c0,0-7.2-0.6-7.2,0s-4,0.5-5.9,0
							c-2-0.5-5.3,0-5.3,0c-1.6,0.4-3.6,0.1-5.8,0c0,0-2.7-0.3-3.8,0.5c-0.9,0.7-6.2-0.5-6.2-0.5c-1,0-1.7,0.8-1.7,1.7l-0.3,1.8
							c-0.1,0.4,0.1,0.9,0.3,1.3c0.2,0.4,0.2,1.6-0.1,2.5c-0.4,1.6,0,3.8,0,3.8s0.6,2.1,0,3.4c-0.6,1.3,0,5.5,0,5.5
							C303.1,212.1,303.9,212.9,304.8,212.9z"/>
						<g>
							<defs>
								<path id="SVGID_14_" d="M304.8,212.9c-0.2-0.2,2.6-0.3,4.1,0.2c0.9,0.3,3.4-0.2,3.4-0.2s1.8,0,2.7,0c2,0.1,5.9,0.4,7.1-0.1
									c1.1-0.5,2.8,0.1,2.8,0.1s1.6,0.1,2.1,0c1.8-0.4,3.3-0.1,4.1,0c0.2,0,0.4,0,0.7,0c0.8-0.2,1.2-0.6,2.6-0.2
									c1.8,0.4,4.7,0.2,4.7,0.2c1,0,1.7-0.8,1.7-1.7c0,0,0.4-0.7,0-1.6c-0.4-0.8,0.4-2.7,0-3.1s0-1,0-1s0.5-2.3,0-3.4
									c-0.5-1.1,0-2.3,0-2.3s0.6-1.8,0-3.3c-0.6-1.4,0-3.6,0-3.6c0-1-0.8-1.7-1.7-1.7c0,0-7.2-0.6-7.2,0s-4,0.5-5.9,0
									c-2-0.5-5.3,0-5.3,0c-1.6,0.4-3.6,0.1-5.8,0c0,0-2.7-0.3-3.8,0.5c-0.9,0.7-6.2-0.5-6.2-0.5c-1,0-1.7,0.8-1.7,1.7l-0.3,1.8
									c-0.1,0.4,0.1,0.9,0.3,1.3c0.2,0.4,0.2,1.6-0.1,2.5c-0.4,1.6,0,3.8,0,3.8s0.6,2.1,0,3.4c-0.6,1.3,0,5.5,0,5.5
									C303.1,212.1,303.9,212.9,304.8,212.9z"/>
							</defs>
							<clipPath id="SVGID_15_">
								<use xlink:href="#SVGID_14_"  style="overflow:visible;"/>
							</clipPath>
							<g class="st25">
								<path class="st21" d="M340.7,195.9H338h-0.7c-0.9,0-1.7-0.2-2.5-0.6l-0.1-0.1c0,0-0.8-0.2-1.3-0.4c-0.4-0.2-1.5-0.3-1.8-0.3
									s-1.5-0.5-1.7-0.8s-0.6-0.8-0.8-1.1c-0.2-0.3-0.6-1.1-0.6-1.1s3,0.1,3.4-0.4c0.5-0.5,5.7-0.3,5.7-0.3l3.8,0.4L340.7,195.9z"
									/>
								<path class="st21" d="M318.6,211.3c-1.8-1.6-1.6-1.2-1.7-2.7c-0.1-1.4,0.2-1.3-1.5-1.8s-2.6,0-3.5,0s-1.5-0.2-2.5-0.5
									c-1-0.3-1.7-0.2-2.7-0.2c-0.9,0-1.3-0.3-2.1,0s-1.9,0.1-1.9,0.1l-0.7,7.8l6,1.1h7.4l3.6-1.2
									C319.2,213.8,319.7,212.2,318.6,211.3z"/>
								<path class="st21" d="M341.4,210.1c0,0-1.1-0.1-1-1.8c0.1-1.7-0.5-2.8-0.5-2.8s0.1-0.9,0-2c-0.1-1-1.4-0.8-0.8-2.5
									s0.8-2.3,0.8-2.3l0.6-0.7l1.4-0.9L341.4,210.1z"/>
								<path class="st21" d="M302.1,200.5l1.5-0.7c0,0,0.4-0.2,0.5-1.9c0.2-1.7,0.9-2.7,1.9-3.1c1-0.4,1.5-0.1,1.6-0.5
									s-0.2-0.7,0-1s1.3-1.6,1.3-1.6s-0.8-2-0.8-2.1c0-0.1-4.3,0-4.3,0l-3.7,2.1L302.1,200.5z"/>
								<path class="st21" d="M327.3,196.7v-1l-0.8-0.9c0,0-0.2-1.3-0.2-1.5c-0.1-0.1,0.2-0.4-0.4-1c-0.5-0.6,0-1.1-0.8-1.4
									c-0.8-0.3-1.7-0.8-1.7-0.8l-3.3-0.1c0,0-2.3,0.3-2.8,0c-0.5-0.3-1.2-0.5-1.5-0.6c-0.4-0.1,0.5,2.8,0.5,2.8l2.4,1.2
									c0,0,1.7,1.2,1.9,1.4c0.2,0.2,1.2,2,1.2,2s4.8,1.4,5.1,0S327.3,196.7,327.3,196.7z"/>
							</g>
							<path class="st26" d="M336.2,205.9c0,0,1.2,2.3-0.4,3c-1.7,0.7-1.7,2-3.4,1.1s-4-0.7-4-0.7s-2.3-0.7-2.5-0.9
								c-0.2-0.2-1.1-0.9-1.8-1.2c-0.7-0.3-2.6,0.2-2.8-0.7s0-1.7,0-1.7s5.9-1.2,8-0.2c2.1,1,1.9,1.5,3.3,0.8
								c1.4-0.7,1.4-0.8,2.1-0.6S336.2,205.9,336.2,205.9z"/>
						</g>
						<g>
							<path class="st19" d="M398.4,167.5c0.2,0.2-2.6,0.3-4.1-0.2c-0.9-0.3-3.4,0.2-3.4,0.2s-1.8,0-2.7,0c-2-0.1-5.9-0.4-7.1,0.1
								s-2.8-0.1-2.8-0.1s-1.6-0.1-2.1,0c-1.8,0.4-3.3,0.1-4.1,0c-0.2,0-0.4,0-0.7,0c-0.8,0.2-1.2,0.6-2.6,0.2
								c-1.8-0.4-4.7-0.2-4.7-0.2c-1,0-1.7,0.8-1.7,1.7c0,0-0.4,0.7,0,1.6c0.4,0.8-0.4,2.7,0,3.1c0.4,0.5,0,1,0,1s-0.5,2.3,0,3.4
								c0.5,1.1,0,2.3,0,2.3s-0.6,1.8,0,3.3s0,3.6,0,3.6c0,1,0.8,1.7,1.7,1.7c0,0,7.2,0.6,7.2,0s4-0.5,5.9,0c2,0.5,5.3,0,5.3,0
								c1.6-0.4,3.6-0.1,5.8,0c0,0,2.7,0.3,3.8-0.5c0.9-0.7,6.2,0.5,6.2,0.5c1,0,1.7-0.8,1.7-1.7l0.3-1.8c0.1-0.4-0.1-0.9-0.3-1.3
								c-0.2-0.4-0.2-1.6,0.1-2.5c0.4-1.6,0-3.8,0-3.8s-0.6-2.1,0-3.4c0.6-1.3,0-5.5,0-5.5C400.2,168.3,399.4,167.5,398.4,167.5z"/>
							<g>
								<defs>
									<path id="SVGID_16_" d="M398.4,167.5c0.2,0.2-2.6,0.3-4.1-0.2c-0.9-0.3-3.4,0.2-3.4,0.2s-1.8,0-2.7,0
										c-2-0.1-5.9-0.4-7.1,0.1s-2.8-0.1-2.8-0.1s-1.6-0.1-2.1,0c-1.8,0.4-3.3,0.1-4.1,0c-0.2,0-0.4,0-0.7,0
										c-0.8,0.2-1.2,0.6-2.6,0.2c-1.8-0.4-4.7-0.2-4.7-0.2c-1,0-1.7,0.8-1.7,1.7c0,0-0.4,0.7,0,1.6c0.4,0.8-0.4,2.7,0,3.1
										c0.4,0.5,0,1,0,1s-0.5,2.3,0,3.4c0.5,1.1,0,2.3,0,2.3s-0.6,1.8,0,3.3s0,3.6,0,3.6c0,1,0.8,1.7,1.7,1.7c0,0,7.2,0.6,7.2,0
										s4-0.5,5.9,0c2,0.5,5.3,0,5.3,0c1.6-0.4,3.6-0.1,5.8,0c0,0,2.7,0.3,3.8-0.5c0.9-0.7,6.2,0.5,6.2,0.5c1,0,1.7-0.8,1.7-1.7
										l0.3-1.8c0.1-0.4-0.1-0.9-0.3-1.3c-0.2-0.4-0.2-1.6,0.1-2.5c0.4-1.6,0-3.8,0-3.8s-0.6-2.1,0-3.4c0.6-1.3,0-5.5,0-5.5
										C400.2,168.3,399.4,167.5,398.4,167.5z"/>
								</defs>
								<clipPath id="SVGID_17_">
									<use xlink:href="#SVGID_16_"  style="overflow:visible;"/>
								</clipPath>
								<g class="st27">
									<path class="st21" d="M402.7,171.4H400h-0.7c-0.9,0-1.7-0.2-2.5-0.6l-0.1-0.1c0,0-0.8-0.2-1.3-0.4
										c-0.4-0.2-1.5-0.3-1.8-0.3c-0.4,0-1.5-0.5-1.7-0.8s-0.6-0.8-0.8-1.1c-0.2-0.3-0.6-1.1-0.6-1.1s3,0.1,3.4-0.4
										c0.5-0.5,5.7-0.3,5.7-0.3l3.8,0.4L402.7,171.4z"/>
									<path class="st21" d="M385.8,185.8c-2.3-0.6-2-0.4-2.7-1.6s-0.4-1.3-2.2-0.9c-1.8,0.4-2.3,1.2-3.1,1.6
										c-0.8,0.4-1.4,0.5-2.5,0.7c-1,0.2-1.6,0.6-2.4,1.1c-0.8,0.4-1.3,0.3-1.9,0.9c-0.5,0.6-1.7,0.9-1.7,0.9l3,7.3l5.8-1.8
										l6.6-3.4l2.6-2.8C387.4,187.9,387.2,186.2,385.8,185.8z"/>
									<path class="st21" d="M400.2,188.7c0,0-1.1-0.2-0.9-1.8c0.2-1.6-0.3-2.8-0.3-2.8s0.1-0.9,0.2-1.9c0-1-1.4-0.9-0.6-2.6
										c0.7-1.7,1-2.2,1-2.2l0.6-0.7l1.4-0.8L400.2,188.7z"/>
									<path class="st21" d="M372.8,190.9l-0.9-1.3c0,0-0.3-0.3-2-0.2s-2.8-0.4-3.4-1.3c-0.5-0.9-0.4-1.4-0.8-1.5
										c-0.4,0-0.6,0.4-1,0.2s-1.8-1-1.8-1s-1.8,1.2-1.9,1.2s0.8,4.2,0.8,4.2l2.8,3.2L372.8,190.9z"/>
									<path class="st21" d="M371.7,164.2l0.3,1l1,0.6c0,0,0.5,1.2,0.6,1.3s-0.1,0.4,0.6,0.8s0.3,1,1.2,1.1
										c0.8,0.1,1.8,0.3,1.8,0.3l3.2-0.8c0,0,2.2-0.9,2.7-0.7c0.5,0.1,1.3,0.2,1.6,0.1c0.4,0-1.3-2.6-1.3-2.6l-2.7-0.5
										c0,0-1.9-0.7-2.2-0.9s-1.7-1.6-1.7-1.6s-5,0-4.9,1.4C371.9,165.2,371.7,164.2,371.7,164.2z"/>
								</g>
								<path class="st28" d="M363,166.8c0,0,2.2-1.5,3,0.1c0.8,1.6,2.1,1.5,1.4,3.3c-0.7,1.7-0.3,4.1-0.3,4.1s-0.5,2.3-0.7,2.6
									c-0.2,0.3-0.8,1.1-1.1,1.9c-0.2,0.7,0.5,2.6-0.4,2.9c-0.9,0.3-1.7,0.2-1.7,0.2s-1.8-5.7-1-8c0.8-2.2,1.4-2,0.5-3.3
									s-0.9-1.3-0.8-2.1C362.3,167.6,363,166.8,363,166.8z"/>
							</g>
						</g>
						<g>
							<path class="st19" d="M344.5,212.9c-0.2-0.2,2.6-0.3,4.1,0.2c0.9,0.3,3.4-0.2,3.4-0.2s1.8,0,2.7,0c2,0.1,5.9,0.4,7.1-0.1
								c1.1-0.5,2.8,0.1,2.8,0.1s1.6,0.1,2.1,0c1.8-0.4,3.3-0.1,4.1,0c0.2,0,0.4,0,0.7,0c0.8-0.2,1.2-0.6,2.6-0.2
								c1.8,0.4,4.7,0.2,4.7,0.2c1,0,1.7-0.8,1.7-1.7c0,0,0.4-0.7,0-1.6c-0.4-0.8,0.4-2.7,0-3.1c-0.4-0.5,0-1,0-1s0.5-2.3,0-3.4
								c-0.5-1.1,0-2.3,0-2.3s0.6-1.8,0-3.3c-0.6-1.4,0-3.6,0-3.6c0-1-0.8-1.7-1.7-1.7c0,0-7.2-0.6-7.2,0c0,0.6-4,0.5-5.9,0
								c-2-0.5-5.3,0-5.3,0c-1.6,0.4-3.6,0.1-5.8,0c0,0-2.7-0.3-3.8,0.5c-0.9,0.7-6.2-0.5-6.2-0.5c-1,0-1.7,0.8-1.7,1.7l-0.3,1.8
								c-0.1,0.4,0.1,0.9,0.3,1.3c0.2,0.4,0.2,1.6-0.1,2.5c-0.4,1.6,0,3.8,0,3.8s0.6,2.1,0,3.4c-0.6,1.3,0,5.5,0,5.5
								C342.8,212.1,343.5,212.9,344.5,212.9z"/>
							<g>
								<defs>
									<path id="SVGID_18_" d="M344.5,212.9c-0.2-0.2,2.6-0.3,4.1,0.2c0.9,0.3,3.4-0.2,3.4-0.2s1.8,0,2.7,0c2,0.1,5.9,0.4,7.1-0.1
										c1.1-0.5,2.8,0.1,2.8,0.1s1.6,0.1,2.1,0c1.8-0.4,3.3-0.1,4.1,0c0.2,0,0.4,0,0.7,0c0.8-0.2,1.2-0.6,2.6-0.2
										c1.8,0.4,4.7,0.2,4.7,0.2c1,0,1.7-0.8,1.7-1.7c0,0,0.4-0.7,0-1.6c-0.4-0.8,0.4-2.7,0-3.1c-0.4-0.5,0-1,0-1s0.5-2.3,0-3.4
										c-0.5-1.1,0-2.3,0-2.3s0.6-1.8,0-3.3c-0.6-1.4,0-3.6,0-3.6c0-1-0.8-1.7-1.7-1.7c0,0-7.2-0.6-7.2,0c0,0.6-4,0.5-5.9,0
										c-2-0.5-5.3,0-5.3,0c-1.6,0.4-3.6,0.1-5.8,0c0,0-2.7-0.3-3.8,0.5c-0.9,0.7-6.2-0.5-6.2-0.5c-1,0-1.7,0.8-1.7,1.7l-0.3,1.8
										c-0.1,0.4,0.1,0.9,0.3,1.3c0.2,0.4,0.2,1.6-0.1,2.5c-0.4,1.6,0,3.8,0,3.8s0.6,2.1,0,3.4c-0.6,1.3,0,5.5,0,5.5
										C342.8,212.1,343.5,212.9,344.5,212.9z"/>
								</defs>
								<clipPath id="SVGID_19_">
									<use xlink:href="#SVGID_18_"  style="overflow:visible;"/>
								</clipPath>
								<g class="st29">
									<path class="st21" d="M340.2,208.9h2.7h0.7c0.9,0,1.7,0.2,2.5,0.6l0.1,0.1c0,0,0.8,0.2,1.3,0.4c0.4,0.2,1.5,0.3,1.8,0.3
										c0.4,0,1.5,0.5,1.7,0.8s0.6,0.8,0.8,1.1c0.2,0.3,0.6,1.1,0.6,1.1s-3-0.1-3.4,0.4s-5.7,0.3-5.7,0.3l-3.8-0.4L340.2,208.9z"
										/>
									<path class="st21" d="M357.1,194.5c2.3,0.6,2,0.4,2.7,1.6c0.7,1.2,0.4,1.3,2.2,0.9c1.8-0.4,2.3-1.2,3.1-1.6
										c0.8-0.4,1.4-0.5,2.5-0.7c1-0.2,1.6-0.6,2.4-1.1c0.8-0.4,1.3-0.3,1.9-0.9c0.5-0.6,1.7-0.9,1.7-0.9l-3-7.3l-5.8,1.8
										l-6.6,3.4l-2.6,2.8C355.5,192.5,355.7,194.2,357.1,194.5z"/>
									<path class="st21" d="M342.8,191.6c0,0,1.1,0.2,0.9,1.8c-0.2,1.6,0.3,2.8,0.3,2.8s-0.1,0.9-0.2,1.9s1.4,0.9,0.6,2.6
										s-1,2.2-1,2.2l-0.6,0.7l-1.4,0.8L342.8,191.6z"/>
									<path class="st21" d="M370.1,189.5l0.9,1.3c0,0,0.3,0.3,2,0.2s2.8,0.4,3.4,1.3c0.5,0.9,0.4,1.4,0.8,1.5
										c0.4,0,0.6-0.4,1-0.2c0.4,0.2,1.8,1,1.8,1s1.8-1.2,1.9-1.2c0.1,0-0.8-4.2-0.8-4.2l-2.8-3.2L370.1,189.5z"/>
									<path class="st21" d="M371.3,216.1l-0.3-1l-1-0.6c0,0-0.5-1.2-0.6-1.3c-0.1-0.1,0.1-0.4-0.6-0.8c-0.7-0.4-0.3-1-1.2-1.1
										c-0.8-0.1-1.8-0.3-1.8-0.3l-3.2,0.8c0,0-2.2,0.9-2.7,0.7c-0.5-0.1-1.3-0.2-1.6-0.1c-0.4,0,1.3,2.6,1.3,2.6l2.7,0.5
										c0,0,1.9,0.7,2.2,0.9c0.3,0.2,1.7,1.6,1.7,1.6s5,0,4.9-1.4C371,215.2,371.3,216.1,371.3,216.1z"/>
								</g>
								<path class="st30" d="M379.9,213.6c0,0-2.2,1.5-3-0.1c-0.8-1.6-2.1-1.5-1.4-3.3c0.7-1.7,0.3-4.1,0.3-4.1s0.5-2.3,0.7-2.6
									c0.2-0.3,0.8-1.1,1.1-1.9c0.2-0.7-0.5-2.6,0.4-2.9c0.9-0.3,1.7-0.2,1.7-0.2s1.8,5.7,1,8c-0.8,2.2-1.4,2-0.5,3.3
									s0.9,1.3,0.8,2.1C380.6,212.8,379.9,213.6,379.9,213.6z"/>
							</g>
						</g>
						<path class="st19" d="M438,167.5c0.2,0.2-2.6,0.3-4.1-0.2c-0.9-0.3-3.4,0.2-3.4,0.2s-1.8,0-2.7,0c-2-0.1-5.9-0.4-7.1,0.1
							s-2.8-0.1-2.8-0.1s-1.6-0.1-2.1,0c-1.8,0.4-3.3,0.1-4.1,0c-0.2,0-0.4,0-0.7,0c-0.8,0.2-1.2,0.6-2.6,0.2
							c-1.8-0.4-4.7-0.2-4.7-0.2c-1,0-1.7,0.8-1.7,1.7c0,0-0.4,0.7,0,1.6c0.4,0.8-0.4,2.7,0,3.1c0.4,0.5,0,1,0,1s-0.5,2.3,0,3.4
							c0.5,1.1,0,2.3,0,2.3s-0.6,1.8,0,3.3s0,3.6,0,3.6c0,1,0.8,1.7,1.7,1.7c0,0,7.2,0.6,7.2,0s4-0.5,5.9,0c2,0.5,5.3,0,5.3,0
							c1.6-0.4,3.6-0.1,5.8,0c0,0,2.7,0.3,3.8-0.5c0.9-0.7,6.2,0.5,6.2,0.5c1,0,1.7-0.8,1.7-1.7l0.3-1.8c0.1-0.4-0.1-0.9-0.3-1.3
							c-0.2-0.4-0.2-1.6,0.1-2.5c0.4-1.6,0-3.8,0-3.8s-0.6-2.1,0-3.4c0.6-1.3,0-5.5,0-5.5C439.7,168.3,438.9,167.5,438,167.5z"/>
						<g>
							<defs>
								<path id="SVGID_20_" d="M438,167.5c0.2,0.2-2.6,0.3-4.1-0.2c-0.9-0.3-3.4,0.2-3.4,0.2s-1.8,0-2.7,0c-2-0.1-5.9-0.4-7.1,0.1
									s-2.8-0.1-2.8-0.1s-1.6-0.1-2.1,0c-1.8,0.4-3.3,0.1-4.1,0c-0.2,0-0.4,0-0.7,0c-0.8,0.2-1.2,0.6-2.6,0.2
									c-1.8-0.4-4.7-0.2-4.7-0.2c-1,0-1.7,0.8-1.7,1.7c0,0-0.4,0.7,0,1.6c0.4,0.8-0.4,2.7,0,3.1c0.4,0.5,0,1,0,1s-0.5,2.3,0,3.4
									c0.5,1.1,0,2.3,0,2.3s-0.6,1.8,0,3.3s0,3.6,0,3.6c0,1,0.8,1.7,1.7,1.7c0,0,7.2,0.6,7.2,0s4-0.5,5.9,0c2,0.5,5.3,0,5.3,0
									c1.6-0.4,3.6-0.1,5.8,0c0,0,2.7,0.3,3.8-0.5c0.9-0.7,6.2,0.5,6.2,0.5c1,0,1.7-0.8,1.7-1.7l0.3-1.8c0.1-0.4-0.1-0.9-0.3-1.3
									c-0.2-0.4-0.2-1.6,0.1-2.5c0.4-1.6,0-3.8,0-3.8s-0.6-2.1,0-3.4c0.6-1.3,0-5.5,0-5.5C439.7,168.3,438.9,167.5,438,167.5z"/>
							</defs>
							<clipPath id="SVGID_21_">
								<use xlink:href="#SVGID_20_"  style="overflow:visible;"/>
							</clipPath>
							<g class="st31">
								<path class="st21" d="M402.1,184.4h2.7h0.7c0.9,0,1.7,0.2,2.5,0.6l0.1,0.1c0,0,0.8,0.2,1.3,0.4c0.4,0.2,1.5,0.3,1.8,0.3
									c0.4,0,1.5,0.5,1.7,0.8s0.6,0.8,0.8,1.1c0.2,0.3,0.6,1.1,0.6,1.1s-3-0.1-3.4,0.4s-5.7,0.3-5.7,0.3l-3.8-0.4L402.1,184.4z"/>
								<path class="st21" d="M424.2,169.1c1.8,1.6,1.6,1.2,1.7,2.7c0.1,1.4-0.2,1.3,1.5,1.8c1.8,0.5,2.6,0,3.5,0s1.5,0.2,2.5,0.5
									c1,0.3,1.7,0.2,2.7,0.2c0.9,0,1.3,0.3,2.1,0c0.8-0.3,1.9-0.1,1.9-0.1l0.7-7.8l-6-1.1h-7.4l-3.6,1.2
									C423.7,166.6,423.1,168.2,424.2,169.1z"/>
								<path class="st21" d="M401.4,170.3c0,0,1.1,0.1,1,1.8s0.5,2.8,0.5,2.8s-0.1,0.9,0,2c0.1,1,1.4,0.8,0.8,2.5s-0.8,2.3-0.8,2.3
									l-0.6,0.7l-1.4,0.9L401.4,170.3z"/>
								<path class="st21" d="M440.7,179.8l-1.5,0.7c0,0-0.4,0.2-0.5,1.9s-0.9,2.7-1.9,3.1c-1,0.4-1.5,0.1-1.6,0.5
									c-0.1,0.4,0.2,0.7,0,1c-0.2,0.4-1.3,1.6-1.3,1.6s0.8,2,0.8,2.1c0,0.1,4.3,0,4.3,0l3.7-2.1L440.7,179.8z"/>
								<path class="st21" d="M415.5,183.6v1l0.8,0.9c0,0,0.2,1.3,0.2,1.5c0.1,0.1-0.2,0.4,0.4,1c0.5,0.6,0,1.1,0.8,1.4
									c0.8,0.3,1.7,0.8,1.7,0.8l3.3,0.1c0,0,2.3-0.3,2.8,0c0.5,0.3,1.2,0.5,1.5,0.6c0.4,0.1-0.5-2.8-0.5-2.8l-2.4-1.2
									c0,0-1.7-1.2-1.9-1.4c-0.2-0.2-1.2-2-1.2-2s-4.8-1.4-5.1,0S415.5,183.6,415.5,183.6z"/>
							</g>
							<path class="st32" d="M406.7,174.5c0,0-1.2-2.3,0.4-3c1.7-0.7,1.7-2,3.4-1.1s4,0.7,4,0.7s2.3,0.7,2.5,0.9
								c0.2,0.2,1.1,0.9,1.8,1.2s2.6-0.2,2.8,0.7s0,1.7,0,1.7s-5.9,1.2-8,0.2c-2.1-1-1.9-1.5-3.3-0.8c-1.4,0.7-1.4,0.8-2.1,0.6
								C407.4,175.3,406.7,174.5,406.7,174.5z"/>
						</g>
						<g>
							<path class="st19" d="M423.5,212.9c-0.2-0.2,2.6-0.3,4.1,0.2c0.9,0.3,3.4-0.2,3.4-0.2s1.8,0,2.7,0c2,0.1,5.9,0.4,7.1-0.1
								c1.1-0.5,2.8,0.1,2.8,0.1s1.6,0.1,2.1,0c1.8-0.4,3.3-0.1,4.1,0c0.2,0,0.4,0,0.7,0c0.8-0.2,1.2-0.6,2.6-0.2
								c1.8,0.4,4.7,0.2,4.7,0.2c1,0,1.7-0.8,1.7-1.7c0,0,0.4-0.7,0-1.6s0.4-2.7,0-3.1s0-1,0-1s0.5-2.3,0-3.4c-0.5-1.1,0-2.3,0-2.3
								s0.6-1.8,0-3.3c-0.6-1.4,0-3.6,0-3.6c0-1-0.8-1.7-1.7-1.7c0,0-7.2-0.6-7.2,0s-4,0.5-5.9,0c-2-0.5-5.3,0-5.3,0
								c-1.6,0.4-3.6,0.1-5.8,0c0,0-2.7-0.3-3.8,0.5c-0.9,0.7-6.2-0.5-6.2-0.5c-1,0-1.7,0.8-1.7,1.7l-0.3,1.8
								c-0.1,0.4,0.1,0.9,0.3,1.3c0.2,0.4,0.2,1.6-0.1,2.5c-0.4,1.6,0,3.8,0,3.8s0.6,2.1,0,3.4c-0.6,1.3,0,5.5,0,5.5
								C421.8,212.1,422.5,212.9,423.5,212.9z"/>
							<g>
								<defs>
									<path id="SVGID_22_" d="M423.5,212.9c-0.2-0.2,2.6-0.3,4.1,0.2c0.9,0.3,3.4-0.2,3.4-0.2s1.8,0,2.7,0c2,0.1,5.9,0.4,7.1-0.1
										c1.1-0.5,2.8,0.1,2.8,0.1s1.6,0.1,2.1,0c1.8-0.4,3.3-0.1,4.1,0c0.2,0,0.4,0,0.7,0c0.8-0.2,1.2-0.6,2.6-0.2
										c1.8,0.4,4.7,0.2,4.7,0.2c1,0,1.7-0.8,1.7-1.7c0,0,0.4-0.7,0-1.6s0.4-2.7,0-3.1s0-1,0-1s0.5-2.3,0-3.4
										c-0.5-1.1,0-2.3,0-2.3s0.6-1.8,0-3.3c-0.6-1.4,0-3.6,0-3.6c0-1-0.8-1.7-1.7-1.7c0,0-7.2-0.6-7.2,0s-4,0.5-5.9,0
										c-2-0.5-5.3,0-5.3,0c-1.6,0.4-3.6,0.1-5.8,0c0,0-2.7-0.3-3.8,0.5c-0.9,0.7-6.2-0.5-6.2-0.5c-1,0-1.7,0.8-1.7,1.7l-0.3,1.8
										c-0.1,0.4,0.1,0.9,0.3,1.3c0.2,0.4,0.2,1.6-0.1,2.5c-0.4,1.6,0,3.8,0,3.8s0.6,2.1,0,3.4c-0.6,1.3,0,5.5,0,5.5
										C421.8,212.1,422.5,212.9,423.5,212.9z"/>
								</defs>
								<clipPath id="SVGID_23_">
									<use xlink:href="#SVGID_22_"  style="overflow:visible;"/>
								</clipPath>
								<g class="st33">
									<path class="st21" d="M419.2,208.9h2.7h0.7c0.9,0,1.7,0.2,2.5,0.6l0.1,0.1c0,0,0.8,0.2,1.3,0.4c0.4,0.2,1.5,0.3,1.8,0.3
										c0.4,0,1.5,0.5,1.7,0.8s0.6,0.8,0.8,1.1c0.2,0.3,0.6,1.1,0.6,1.1s-3-0.1-3.4,0.4c-0.5,0.5-5.7,0.3-5.7,0.3l-3.8-0.4
										L419.2,208.9z"/>
									<path class="st21" d="M436.1,194.5c2.3,0.6,2,0.4,2.7,1.6c0.7,1.2,0.4,1.3,2.2,0.9c1.8-0.4,2.3-1.2,3.1-1.6
										c0.8-0.4,1.4-0.5,2.5-0.7c1-0.2,1.6-0.6,2.4-1.1c0.8-0.4,1.3-0.3,1.9-0.9c0.5-0.6,1.7-0.9,1.7-0.9l-3-7.3l-5.8,1.8
										l-6.6,3.4l-2.6,2.8C434.5,192.5,434.8,194.2,436.1,194.5z"/>
									<path class="st21" d="M421.8,191.6c0,0,1.1,0.2,0.9,1.8c-0.2,1.6,0.3,2.8,0.3,2.8s-0.1,0.9-0.2,1.9c0,1,1.4,0.9,0.6,2.6
										s-1,2.2-1,2.2l-0.6,0.7l-1.4,0.8L421.8,191.6z"/>
									<path class="st21" d="M449.1,189.5l0.9,1.3c0,0,0.3,0.3,2,0.2s2.8,0.4,3.4,1.3s0.4,1.4,0.8,1.5c0.4,0,0.6-0.4,1-0.2
										s1.8,1,1.8,1s1.8-1.2,1.9-1.2c0.1,0-0.8-4.2-0.8-4.2l-2.8-3.2L449.1,189.5z"/>
									<path class="st21" d="M450.3,216.1l-0.3-1l-1-0.6c0,0-0.5-1.2-0.6-1.3c-0.1-0.1,0.1-0.4-0.6-0.8c-0.7-0.4-0.3-1-1.2-1.1
										c-0.8-0.1-1.8-0.3-1.8-0.3l-3.2,0.8c0,0-2.2,0.9-2.7,0.7c-0.5-0.1-1.3-0.2-1.6-0.1c-0.4,0,1.3,2.6,1.3,2.6l2.7,0.5
										c0,0,1.9,0.7,2.2,0.9c0.3,0.2,1.7,1.6,1.7,1.6s5,0,4.9-1.4S450.3,216.1,450.3,216.1z"/>
								</g>
								<path class="st34" d="M458.9,213.6c0,0-2.2,1.5-3-0.1c-0.8-1.6-2.1-1.5-1.4-3.3c0.7-1.7,0.3-4.1,0.3-4.1s0.5-2.3,0.7-2.6
									c0.2-0.3,0.8-1.1,1.1-1.9c0.2-0.7-0.5-2.6,0.4-2.9c0.9-0.3,1.7-0.2,1.7-0.2s1.8,5.7,1,8c-0.8,2.2-1.4,2-0.5,3.3
									c0.8,1.3,0.9,1.3,0.8,2.1C459.6,212.8,458.9,213.6,458.9,213.6z"/>
							</g>
						</g>
						<path class="st19" d="M359,215c0.2,0.2-2.6,0.3-4.1-0.2c-0.9-0.3-3.4,0.2-3.4,0.2s-1.8,0-2.7,0c-2-0.1-5.9-0.4-7.1,0.1
							c-1.1,0.5-2.8-0.1-2.8-0.1s-1.6-0.1-2.1,0c-1.8,0.4-3.3,0.1-4.1,0c-0.2,0-0.4,0-0.7,0c-0.8,0.2-1.2,0.6-2.6,0.2
							c-1.8-0.4-4.7-0.2-4.7-0.2c-1,0-1.7,0.8-1.7,1.7c0,0-0.4,0.7,0,1.6s-0.4,2.7,0,3.1s0,1,0,1s-0.5,2.3,0,3.4
							c0.5,1.1,0,2.3,0,2.3s-0.6,1.8,0,3.3c0.6,1.4,0,3.6,0,3.6c0,1,0.8,1.7,1.7,1.7c0,0,7.2,0.6,7.2,0c0-0.6,4-0.5,5.9,0
							c2,0.5,5.3,0,5.3,0c1.6-0.4,3.6-0.1,5.8,0c0,0,2.7,0.3,3.8-0.5c0.9-0.7,6.2,0.5,6.2,0.5c1,0,1.7-0.8,1.7-1.7l0.3-1.8
							c0.1-0.4-0.1-0.9-0.3-1.3c-0.2-0.4-0.2-1.6,0.1-2.5c0.4-1.6,0-3.8,0-3.8s-0.6-2.1,0-3.4c0.6-1.3,0-5.5,0-5.5
							C360.7,215.8,359.9,215,359,215z"/>
						<g>
							<defs>
								<path id="SVGID_24_" d="M359,215c0.2,0.2-2.6,0.3-4.1-0.2c-0.9-0.3-3.4,0.2-3.4,0.2s-1.8,0-2.7,0c-2-0.1-5.9-0.4-7.1,0.1
									c-1.1,0.5-2.8-0.1-2.8-0.1s-1.6-0.1-2.1,0c-1.8,0.4-3.3,0.1-4.1,0c-0.2,0-0.4,0-0.7,0c-0.8,0.2-1.2,0.6-2.6,0.2
									c-1.8-0.4-4.7-0.2-4.7-0.2c-1,0-1.7,0.8-1.7,1.7c0,0-0.4,0.7,0,1.6s-0.4,2.7,0,3.1s0,1,0,1s-0.5,2.3,0,3.4
									c0.5,1.1,0,2.3,0,2.3s-0.6,1.8,0,3.3c0.6,1.4,0,3.6,0,3.6c0,1,0.8,1.7,1.7,1.7c0,0,7.2,0.6,7.2,0c0-0.6,4-0.5,5.9,0
									c2,0.5,5.3,0,5.3,0c1.6-0.4,3.6-0.1,5.8,0c0,0,2.7,0.3,3.8-0.5c0.9-0.7,6.2,0.5,6.2,0.5c1,0,1.7-0.8,1.7-1.7l0.3-1.8
									c0.1-0.4-0.1-0.9-0.3-1.3c-0.2-0.4-0.2-1.6,0.1-2.5c0.4-1.6,0-3.8,0-3.8s-0.6-2.1,0-3.4c0.6-1.3,0-5.5,0-5.5
									C360.7,215.8,359.9,215,359,215z"/>
							</defs>
							<clipPath id="SVGID_25_">
								<use xlink:href="#SVGID_24_"  style="overflow:visible;"/>
							</clipPath>
							<g class="st35">
								<path class="st21" d="M323.1,232h2.7h0.7c0.9,0,1.7,0.2,2.5,0.6l0.1,0.1c0,0,0.8,0.2,1.3,0.4c0.4,0.2,1.5,0.3,1.8,0.3
									c0.4,0,1.5,0.5,1.7,0.8s0.6,0.8,0.8,1.1c0.2,0.3,0.6,1.1,0.6,1.1s-3-0.1-3.4,0.4c-0.5,0.5-5.7,0.3-5.7,0.3l-3.8-0.4
									L323.1,232z"/>
								<path class="st21" d="M345.2,216.7c1.8,1.6,1.6,1.2,1.7,2.7s-0.2,1.3,1.5,1.8s2.6,0,3.5,0c0.9,0,1.5,0.2,2.5,0.5
									s1.7,0.2,2.7,0.2c0.9,0,1.3,0.3,2.1,0c0.8-0.3,1.9-0.1,1.9-0.1l0.7-7.8l-6-1.1h-7.4l-3.6,1.2
									C344.6,214.1,344.1,215.7,345.2,216.7z"/>
								<path class="st21" d="M322.4,217.9c0,0,1.1,0.1,1,1.8c-0.1,1.7,0.5,2.8,0.5,2.8s-0.1,0.9,0,2c0.1,1,1.4,0.8,0.8,2.5
									s-0.8,2.3-0.8,2.3l-0.6,0.7l-1.4,0.9L322.4,217.9z"/>
								<path class="st21" d="M361.7,227.4l-1.5,0.7c0,0-0.4,0.2-0.5,1.9c-0.2,1.7-0.9,2.7-1.9,3.1c-1,0.4-1.5,0.1-1.6,0.5
									s0.2,0.7,0,1c-0.2,0.4-1.3,1.6-1.3,1.6s0.8,2,0.8,2.1c0,0.1,4.3,0,4.3,0l3.7-2.1L361.7,227.4z"/>
								<path class="st21" d="M336.5,231.2v1l0.8,0.9c0,0,0.2,1.3,0.2,1.5c0.1,0.1-0.2,0.4,0.4,1s0,1.1,0.8,1.4
									c0.8,0.3,1.7,0.8,1.7,0.8l3.3,0.1c0,0,2.3-0.3,2.8,0c0.5,0.3,1.2,0.5,1.5,0.6s-0.5-2.8-0.5-2.8l-2.4-1.2
									c0,0-1.7-1.2-1.9-1.4c-0.2-0.2-1.2-2-1.2-2s-4.8-1.4-5.1,0S336.5,231.2,336.5,231.2z"/>
							</g>
							<path class="st36" d="M327.6,222.1c0,0-1.2-2.3,0.4-3c1.7-0.7,1.7-2,3.4-1.1c1.7,0.8,4,0.7,4,0.7s2.3,0.7,2.5,0.9
								c0.2,0.2,1.1,0.9,1.8,1.2c0.7,0.3,2.6-0.2,2.8,0.7c0.2,0.9,0,1.7,0,1.7s-5.9,1.2-8,0.2c-2.1-1-1.9-1.5-3.3-0.8
								c-1.4,0.7-1.4,0.8-2.1,0.6S327.6,222.1,327.6,222.1z"/>
						</g>
						<path class="st19" d="M383.8,260.5c-0.2-0.2,2.6-0.3,4.1,0.2c0.9,0.3,3.4-0.2,3.4-0.2s1.8,0,2.7,0c2,0.1,5.9,0.4,7.1-0.1
							c1.1-0.5,2.8,0.1,2.8,0.1s1.6,0.1,2.1,0c1.8-0.4,3.3-0.1,4.1,0c0.2,0,0.4,0,0.7,0c0.8-0.2,1.2-0.6,2.6-0.2
							c1.8,0.4,4.7,0.2,4.7,0.2c1,0,1.7-0.8,1.7-1.7c0,0,0.4-0.7,0-1.6c-0.4-0.8,0.4-2.7,0-3.1c-0.4-0.5,0-1,0-1s0.5-2.3,0-3.4
							c-0.5-1.1,0-2.3,0-2.3s0.6-1.8,0-3.3s0-3.6,0-3.6c0-1-0.8-1.7-1.7-1.7c0,0-7.2-0.6-7.2,0s-4,0.5-5.9,0c-2-0.5-5.3,0-5.3,0
							c-1.6,0.4-3.6,0.1-5.8,0c0,0-2.7-0.3-3.8,0.5c-0.9,0.7-6.2-0.5-6.2-0.5c-1,0-1.7,0.8-1.7,1.7l-0.3,1.8
							c-0.1,0.4,0.1,0.9,0.3,1.3c0.2,0.4,0.2,1.6-0.1,2.5c-0.4,1.6,0,3.8,0,3.8s0.6,2.1,0,3.4c-0.6,1.3,0,5.5,0,5.5
							C382.1,259.7,382.9,260.5,383.8,260.5z"/>
						<g>
							<defs>
								<path id="SVGID_26_" d="M383.8,260.5c-0.2-0.2,2.6-0.3,4.1,0.2c0.9,0.3,3.4-0.2,3.4-0.2s1.8,0,2.7,0c2,0.1,5.9,0.4,7.1-0.1
									c1.1-0.5,2.8,0.1,2.8,0.1s1.6,0.1,2.1,0c1.8-0.4,3.3-0.1,4.1,0c0.2,0,0.4,0,0.7,0c0.8-0.2,1.2-0.6,2.6-0.2
									c1.8,0.4,4.7,0.2,4.7,0.2c1,0,1.7-0.8,1.7-1.7c0,0,0.4-0.7,0-1.6c-0.4-0.8,0.4-2.7,0-3.1c-0.4-0.5,0-1,0-1s0.5-2.3,0-3.4
									c-0.5-1.1,0-2.3,0-2.3s0.6-1.8,0-3.3s0-3.6,0-3.6c0-1-0.8-1.7-1.7-1.7c0,0-7.2-0.6-7.2,0s-4,0.5-5.9,0c-2-0.5-5.3,0-5.3,0
									c-1.6,0.4-3.6,0.1-5.8,0c0,0-2.7-0.3-3.8,0.5c-0.9,0.7-6.2-0.5-6.2-0.5c-1,0-1.7,0.8-1.7,1.7l-0.3,1.8
									c-0.1,0.4,0.1,0.9,0.3,1.3c0.2,0.4,0.2,1.6-0.1,2.5c-0.4,1.6,0,3.8,0,3.8s0.6,2.1,0,3.4c-0.6,1.3,0,5.5,0,5.5
									C382.1,259.7,382.9,260.5,383.8,260.5z"/>
							</defs>
							<clipPath id="SVGID_27_">
								<use xlink:href="#SVGID_26_"  style="overflow:visible;"/>
							</clipPath>
							<g class="st37">
								<path class="st21" d="M419.7,243.5h-2.7h-0.7c-0.9,0-1.7-0.2-2.5-0.6l-0.1-0.1c0,0-0.8-0.2-1.3-0.4
									c-0.4-0.2-1.5-0.3-1.8-0.3c-0.4,0-1.5-0.5-1.7-0.8s-0.6-0.8-0.8-1.1c-0.2-0.3-0.6-1.1-0.6-1.1s3,0.1,3.4-0.4
									s5.7-0.3,5.7-0.3l3.8,0.4L419.7,243.5z"/>
								<path class="st21" d="M397.6,258.8c-1.8-1.6-1.6-1.2-1.7-2.7c-0.1-1.4,0.2-1.3-1.5-1.8c-1.8-0.5-2.6,0-3.5,0
									s-1.5-0.2-2.5-0.5c-1-0.3-1.7-0.2-2.7-0.2c-0.9,0-1.3-0.3-2.1,0c-0.8,0.3-1.9,0.1-1.9,0.1l-0.7,7.8l6,1.1h7.4l3.6-1.2
									C398.2,261.3,398.7,259.8,397.6,258.8z"/>
								<path class="st21" d="M420.4,257.6c0,0-1.1-0.1-1-1.8c0.1-1.7-0.5-2.8-0.5-2.8s0.1-0.9,0-2c-0.1-1-1.4-0.8-0.8-2.5
									c0.6-1.7,0.8-2.3,0.8-2.3l0.6-0.7l1.4-0.9L420.4,257.6z"/>
								<path class="st21" d="M381.1,248.1l1.5-0.7c0,0,0.4-0.2,0.5-1.9s0.9-2.7,1.9-3.1c1-0.4,1.5-0.1,1.6-0.5c0.1-0.4-0.2-0.7,0-1
									c0.2-0.4,1.3-1.6,1.3-1.6s-0.8-2-0.8-2.1c0-0.1-4.3,0-4.3,0l-3.7,2.1L381.1,248.1z"/>
								<path class="st21" d="M406.3,244.3v-1l-0.8-0.9c0,0-0.2-1.3-0.2-1.5c-0.1-0.1,0.2-0.4-0.4-1c-0.5-0.6,0-1.1-0.8-1.4
									c-0.8-0.3-1.7-0.8-1.7-0.8l-3.3-0.1c0,0-2.3,0.3-2.8,0c-0.5-0.3-1.2-0.5-1.5-0.6c-0.4-0.1,0.5,2.8,0.5,2.8l2.4,1.2
									c0,0,1.7,1.2,1.9,1.4c0.2,0.2,1.2,2,1.2,2s4.8,1.4,5.1,0S406.3,244.3,406.3,244.3z"/>
							</g>
							<path class="st38" d="M415.1,253.4c0,0,1.2,2.3-0.4,3c-1.7,0.7-1.7,2-3.4,1.1c-1.7-0.8-4-0.7-4-0.7s-2.3-0.7-2.5-0.9
								c-0.2-0.2-1.1-0.9-1.8-1.2c-0.7-0.3-2.6,0.2-2.8-0.7s0-1.7,0-1.7s5.9-1.2,8-0.2c2.1,1,1.9,1.5,3.3,0.8
								c1.4-0.7,1.4-0.8,2.1-0.6C414.4,252.6,415.1,253.4,415.1,253.4z"/>
						</g>
						<path class="st19" d="M304.8,260.5c-0.2-0.2,2.6-0.3,4.1,0.2c0.9,0.3,3.4-0.2,3.4-0.2s1.8,0,2.7,0c2,0.1,5.9,0.4,7.1-0.1
							c1.1-0.5,2.8,0.1,2.8,0.1s1.6,0.1,2.1,0c1.8-0.4,3.3-0.1,4.1,0c0.2,0,0.4,0,0.7,0c0.8-0.2,1.2-0.6,2.6-0.2
							c1.8,0.4,4.7,0.2,4.7,0.2c1,0,1.7-0.8,1.7-1.7c0,0,0.4-0.7,0-1.6c-0.4-0.8,0.4-2.7,0-3.1s0-1,0-1s0.5-2.3,0-3.4
							c-0.5-1.1,0-2.3,0-2.3s0.6-1.8,0-3.3s0-3.6,0-3.6c0-1-0.8-1.7-1.7-1.7c0,0-7.2-0.6-7.2,0s-4,0.5-5.9,0c-2-0.5-5.3,0-5.3,0
							c-1.6,0.4-3.6,0.1-5.8,0c0,0-2.7-0.3-3.8,0.5c-0.9,0.7-6.2-0.5-6.2-0.5c-1,0-1.7,0.8-1.7,1.7l-0.3,1.8
							c-0.1,0.4,0.1,0.9,0.3,1.3c0.2,0.4,0.2,1.6-0.1,2.5c-0.4,1.6,0,3.8,0,3.8s0.6,2.1,0,3.4c-0.6,1.3,0,5.5,0,5.5
							C303.1,259.7,303.9,260.5,304.8,260.5z"/>
						<g>
							<defs>
								<path id="SVGID_28_" d="M304.8,260.5c-0.2-0.2,2.6-0.3,4.1,0.2c0.9,0.3,3.4-0.2,3.4-0.2s1.8,0,2.7,0c2,0.1,5.9,0.4,7.1-0.1
									c1.1-0.5,2.8,0.1,2.8,0.1s1.6,0.1,2.1,0c1.8-0.4,3.3-0.1,4.1,0c0.2,0,0.4,0,0.7,0c0.8-0.2,1.2-0.6,2.6-0.2
									c1.8,0.4,4.7,0.2,4.7,0.2c1,0,1.7-0.8,1.7-1.7c0,0,0.4-0.7,0-1.6c-0.4-0.8,0.4-2.7,0-3.1s0-1,0-1s0.5-2.3,0-3.4
									c-0.5-1.1,0-2.3,0-2.3s0.6-1.8,0-3.3s0-3.6,0-3.6c0-1-0.8-1.7-1.7-1.7c0,0-7.2-0.6-7.2,0s-4,0.5-5.9,0c-2-0.5-5.3,0-5.3,0
									c-1.6,0.4-3.6,0.1-5.8,0c0,0-2.7-0.3-3.8,0.5c-0.9,0.7-6.2-0.5-6.2-0.5c-1,0-1.7,0.8-1.7,1.7l-0.3,1.8
									c-0.1,0.4,0.1,0.9,0.3,1.3c0.2,0.4,0.2,1.6-0.1,2.5c-0.4,1.6,0,3.8,0,3.8s0.6,2.1,0,3.4c-0.6,1.3,0,5.5,0,5.5
									C303.1,259.7,303.9,260.5,304.8,260.5z"/>
							</defs>
							<clipPath id="SVGID_29_">
								<use xlink:href="#SVGID_28_"  style="overflow:visible;"/>
							</clipPath>
							<g class="st39">
								<path class="st21" d="M340.7,243.5H338h-0.7c-0.9,0-1.7-0.2-2.5-0.6l-0.1-0.1c0,0-0.8-0.2-1.3-0.4c-0.4-0.2-1.5-0.3-1.8-0.3
									c-0.4,0-1.5-0.5-1.7-0.8s-0.6-0.8-0.8-1.1c-0.2-0.3-0.6-1.1-0.6-1.1s3,0.1,3.4-0.4s5.7-0.3,5.7-0.3l3.8,0.4L340.7,243.5z"/>
								<path class="st21" d="M318.6,258.8c-1.8-1.6-1.6-1.2-1.7-2.7c-0.1-1.4,0.2-1.3-1.5-1.8c-1.8-0.5-2.6,0-3.5,0
									s-1.5-0.2-2.5-0.5c-1-0.3-1.7-0.2-2.7-0.2c-0.9,0-1.3-0.3-2.1,0c-0.8,0.3-1.9,0.1-1.9,0.1l-0.7,7.8l6,1.1h7.4l3.6-1.2
									C319.2,261.3,319.7,259.8,318.6,258.8z"/>
								<path class="st21" d="M341.4,257.6c0,0-1.1-0.1-1-1.8c0.1-1.7-0.5-2.8-0.5-2.8s0.1-0.9,0-2c-0.1-1-1.4-0.8-0.8-2.5
									s0.8-2.3,0.8-2.3l0.6-0.7l1.4-0.9L341.4,257.6z"/>
								<path class="st21" d="M302.1,248.1l1.5-0.7c0,0,0.4-0.2,0.5-1.9s0.9-2.7,1.9-3.1c1-0.4,1.5-0.1,1.6-0.5c0.1-0.4-0.2-0.7,0-1
									s1.3-1.6,1.3-1.6s-0.8-2-0.8-2.1c0-0.1-4.3,0-4.3,0l-3.7,2.1L302.1,248.1z"/>
								<path class="st21" d="M327.3,244.3v-1l-0.8-0.9c0,0-0.2-1.3-0.2-1.5c-0.1-0.1,0.2-0.4-0.4-1c-0.5-0.6,0-1.1-0.8-1.4
									c-0.8-0.3-1.7-0.8-1.7-0.8l-3.3-0.1c0,0-2.3,0.3-2.8,0c-0.5-0.3-1.2-0.5-1.5-0.6c-0.4-0.1,0.5,2.8,0.5,2.8l2.4,1.2
									c0,0,1.7,1.2,1.9,1.4c0.2,0.2,1.2,2,1.2,2s4.8,1.4,5.1,0S327.3,244.3,327.3,244.3z"/>
							</g>
							<path class="st40" d="M336.2,253.4c0,0,1.2,2.3-0.4,3c-1.7,0.7-1.7,2-3.4,1.1c-1.7-0.8-4-0.7-4-0.7s-2.3-0.7-2.5-0.9
								c-0.2-0.2-1.1-0.9-1.8-1.2c-0.7-0.3-2.6,0.2-2.8-0.7s0-1.7,0-1.7s5.9-1.2,8-0.2s1.9,1.5,3.3,0.8c1.4-0.7,1.4-0.8,2.1-0.6
								C335.5,252.6,336.2,253.4,336.2,253.4z"/>
						</g>
						<g>
							<path class="st19" d="M398.4,215c0.2,0.2-2.6,0.3-4.1-0.2c-0.9-0.3-3.4,0.2-3.4,0.2s-1.8,0-2.7,0c-2-0.1-5.9-0.4-7.1,0.1
								c-1.1,0.5-2.8-0.1-2.8-0.1s-1.6-0.1-2.1,0c-1.8,0.4-3.3,0.1-4.1,0c-0.2,0-0.4,0-0.7,0c-0.8,0.2-1.2,0.6-2.6,0.2
								c-1.8-0.4-4.7-0.2-4.7-0.2c-1,0-1.7,0.8-1.7,1.7c0,0-0.4,0.7,0,1.6c0.4,0.8-0.4,2.7,0,3.1c0.4,0.5,0,1,0,1s-0.5,2.3,0,3.4
								c0.5,1.1,0,2.3,0,2.3s-0.6,1.8,0,3.3c0.6,1.4,0,3.6,0,3.6c0,1,0.8,1.7,1.7,1.7c0,0,7.2,0.6,7.2,0s4-0.5,5.9,0
								c2,0.5,5.3,0,5.3,0c1.6-0.4,3.6-0.1,5.8,0c0,0,2.7,0.3,3.8-0.5c0.9-0.7,6.2,0.5,6.2,0.5c1,0,1.7-0.8,1.7-1.7l0.3-1.8
								c0.1-0.4-0.1-0.9-0.3-1.3c-0.2-0.4-0.2-1.6,0.1-2.5c0.4-1.6,0-3.8,0-3.8s-0.6-2.1,0-3.4c0.6-1.3,0-5.5,0-5.5
								C400.2,215.8,399.4,215,398.4,215z"/>
							<g>
								<defs>
									<path id="SVGID_30_" d="M398.4,215c0.2,0.2-2.6,0.3-4.1-0.2c-0.9-0.3-3.4,0.2-3.4,0.2s-1.8,0-2.7,0c-2-0.1-5.9-0.4-7.1,0.1
										c-1.1,0.5-2.8-0.1-2.8-0.1s-1.6-0.1-2.1,0c-1.8,0.4-3.3,0.1-4.1,0c-0.2,0-0.4,0-0.7,0c-0.8,0.2-1.2,0.6-2.6,0.2
										c-1.8-0.4-4.7-0.2-4.7-0.2c-1,0-1.7,0.8-1.7,1.7c0,0-0.4,0.7,0,1.6c0.4,0.8-0.4,2.7,0,3.1c0.4,0.5,0,1,0,1s-0.5,2.3,0,3.4
										c0.5,1.1,0,2.3,0,2.3s-0.6,1.8,0,3.3c0.6,1.4,0,3.6,0,3.6c0,1,0.8,1.7,1.7,1.7c0,0,7.2,0.6,7.2,0s4-0.5,5.9,0
										c2,0.5,5.3,0,5.3,0c1.6-0.4,3.6-0.1,5.8,0c0,0,2.7,0.3,3.8-0.5c0.9-0.7,6.2,0.5,6.2,0.5c1,0,1.7-0.8,1.7-1.7l0.3-1.8
										c0.1-0.4-0.1-0.9-0.3-1.3c-0.2-0.4-0.2-1.6,0.1-2.5c0.4-1.6,0-3.8,0-3.8s-0.6-2.1,0-3.4c0.6-1.3,0-5.5,0-5.5
										C400.2,215.8,399.4,215,398.4,215z"/>
								</defs>
								<clipPath id="SVGID_31_">
									<use xlink:href="#SVGID_30_"  style="overflow:visible;"/>
								</clipPath>
								<g class="st41">
									<path class="st21" d="M402.7,219H400h-0.7c-0.9,0-1.7-0.2-2.5-0.6l-0.1-0.1c0,0-0.8-0.2-1.3-0.4c-0.4-0.2-1.5-0.3-1.8-0.3
										c-0.4,0-1.5-0.5-1.7-0.8s-0.6-0.8-0.8-1.1c-0.2-0.3-0.6-1.1-0.6-1.1s3,0.1,3.4-0.4s5.7-0.3,5.7-0.3l3.8,0.4L402.7,219z"/>
									<path class="st21" d="M385.8,233.4c-2.3-0.6-2-0.4-2.7-1.6c-0.7-1.2-0.4-1.3-2.2-0.9c-1.8,0.4-2.3,1.2-3.1,1.6
										c-0.8,0.4-1.4,0.5-2.5,0.7c-1,0.2-1.6,0.6-2.4,1.1c-0.8,0.4-1.3,0.3-1.9,0.9c-0.5,0.6-1.7,0.9-1.7,0.9l3,7.3l5.8-1.8
										l6.6-3.4l2.6-2.8C387.4,235.4,387.2,233.7,385.8,233.4z"/>
									<path class="st21" d="M400.2,236.3c0,0-1.1-0.2-0.9-1.8c0.2-1.6-0.3-2.8-0.3-2.8s0.1-0.9,0.2-1.9c0-1-1.4-0.9-0.6-2.6
										s1-2.2,1-2.2l0.6-0.7l1.4-0.8L400.2,236.3z"/>
									<path class="st21" d="M372.8,238.4l-0.9-1.3c0,0-0.3-0.3-2-0.2s-2.8-0.4-3.4-1.3c-0.5-0.9-0.4-1.4-0.8-1.5
										c-0.4,0-0.6,0.4-1,0.2s-1.8-1-1.8-1s-1.8,1.2-1.9,1.2c-0.1,0,0.8,4.2,0.8,4.2l2.8,3.2L372.8,238.4z"/>
									<path class="st21" d="M371.7,211.8l0.3,1l1,0.6c0,0,0.5,1.2,0.6,1.3s-0.1,0.4,0.6,0.8c0.7,0.4,0.3,1,1.2,1.1
										c0.8,0.1,1.8,0.3,1.8,0.3l3.2-0.8c0,0,2.2-0.9,2.7-0.7c0.5,0.1,1.3,0.2,1.6,0.1c0.4,0-1.3-2.6-1.3-2.6l-2.7-0.5
										c0,0-1.9-0.7-2.2-0.9c-0.3-0.2-1.7-1.6-1.7-1.6s-5,0-4.9,1.4C371.9,212.8,371.7,211.8,371.7,211.8z"/>
								</g>
								<path class="st42" d="M363,214.4c0,0,2.2-1.5,3,0.1c0.8,1.6,2.1,1.5,1.4,3.3c-0.7,1.7-0.3,4.1-0.3,4.1s-0.5,2.3-0.7,2.6
									c-0.2,0.3-0.8,1.1-1.1,1.9c-0.2,0.7,0.5,2.6-0.4,2.9c-0.9,0.3-1.7,0.2-1.7,0.2s-1.8-5.7-1-8c0.8-2.2,1.4-2,0.5-3.3
									s-0.9-1.3-0.8-2.1C362.3,215.2,363,214.4,363,214.4z"/>
							</g>
						</g>
						<g>
							<path class="st19" d="M344.5,260.5c-0.2-0.2,2.6-0.3,4.1,0.2c0.9,0.3,3.4-0.2,3.4-0.2s1.8,0,2.7,0c2,0.1,5.9,0.4,7.1-0.1
								c1.1-0.5,2.8,0.1,2.8,0.1s1.6,0.1,2.1,0c1.8-0.4,3.3-0.1,4.1,0c0.2,0,0.4,0,0.7,0c0.8-0.2,1.2-0.6,2.6-0.2
								c1.8,0.4,4.7,0.2,4.7,0.2c1,0,1.7-0.8,1.7-1.7c0,0,0.4-0.7,0-1.6c-0.4-0.8,0.4-2.7,0-3.1c-0.4-0.5,0-1,0-1s0.5-2.3,0-3.4
								c-0.5-1.1,0-2.3,0-2.3s0.6-1.8,0-3.3s0-3.6,0-3.6c0-1-0.8-1.7-1.7-1.7c0,0-7.2-0.6-7.2,0c0,0.6-4,0.5-5.9,0s-5.3,0-5.3,0
								c-1.6,0.4-3.6,0.1-5.8,0c0,0-2.7-0.3-3.8,0.5c-0.9,0.7-6.2-0.5-6.2-0.5c-1,0-1.7,0.8-1.7,1.7l-0.3,1.8
								c-0.1,0.4,0.1,0.9,0.3,1.3c0.2,0.4,0.2,1.6-0.1,2.5c-0.4,1.6,0,3.8,0,3.8s0.6,2.1,0,3.4c-0.6,1.3,0,5.5,0,5.5
								C342.8,259.7,343.5,260.5,344.5,260.5z"/>
							<g>
								<defs>
									<path id="SVGID_32_" d="M344.5,260.5c-0.2-0.2,2.6-0.3,4.1,0.2c0.9,0.3,3.4-0.2,3.4-0.2s1.8,0,2.7,0c2,0.1,5.9,0.4,7.1-0.1
										c1.1-0.5,2.8,0.1,2.8,0.1s1.6,0.1,2.1,0c1.8-0.4,3.3-0.1,4.1,0c0.2,0,0.4,0,0.7,0c0.8-0.2,1.2-0.6,2.6-0.2
										c1.8,0.4,4.7,0.2,4.7,0.2c1,0,1.7-0.8,1.7-1.7c0,0,0.4-0.7,0-1.6c-0.4-0.8,0.4-2.7,0-3.1c-0.4-0.5,0-1,0-1s0.5-2.3,0-3.4
										c-0.5-1.1,0-2.3,0-2.3s0.6-1.8,0-3.3s0-3.6,0-3.6c0-1-0.8-1.7-1.7-1.7c0,0-7.2-0.6-7.2,0c0,0.6-4,0.5-5.9,0s-5.3,0-5.3,0
										c-1.6,0.4-3.6,0.1-5.8,0c0,0-2.7-0.3-3.8,0.5c-0.9,0.7-6.2-0.5-6.2-0.5c-1,0-1.7,0.8-1.7,1.7l-0.3,1.8
										c-0.1,0.4,0.1,0.9,0.3,1.3c0.2,0.4,0.2,1.6-0.1,2.5c-0.4,1.6,0,3.8,0,3.8s0.6,2.1,0,3.4c-0.6,1.3,0,5.5,0,5.5
										C342.8,259.7,343.5,260.5,344.5,260.5z"/>
								</defs>
								<clipPath id="SVGID_33_">
									<use xlink:href="#SVGID_32_"  style="overflow:visible;"/>
								</clipPath>
								<g class="st43">
									<path class="st21" d="M340.2,256.5h2.7h0.7c0.9,0,1.7,0.2,2.5,0.6l0.1,0.1c0,0,0.8,0.2,1.3,0.4c0.4,0.2,1.5,0.3,1.8,0.3
										c0.4,0,1.5,0.5,1.7,0.8s0.6,0.8,0.8,1.1s0.6,1.1,0.6,1.1s-3-0.1-3.4,0.4c-0.5,0.5-5.7,0.3-5.7,0.3l-3.8-0.4L340.2,256.5z"
										/>
									<path class="st21" d="M357.1,242.1c2.3,0.6,2,0.4,2.7,1.6s0.4,1.3,2.2,0.9c1.8-0.4,2.3-1.2,3.1-1.6
										c0.8-0.4,1.4-0.5,2.5-0.7c1-0.2,1.6-0.6,2.4-1.1s1.3-0.3,1.9-0.9c0.5-0.6,1.7-0.9,1.7-0.9l-3-7.3l-5.8,1.8l-6.6,3.4
										l-2.6,2.8C355.5,240.1,355.7,241.7,357.1,242.1z"/>
									<path class="st21" d="M342.8,239.2c0,0,1.1,0.2,0.9,1.8c-0.2,1.6,0.3,2.8,0.3,2.8s-0.1,0.9-0.2,1.9c0,1,1.4,0.9,0.6,2.6
										c-0.7,1.7-1,2.2-1,2.2l-0.6,0.7l-1.4,0.8L342.8,239.2z"/>
									<path class="st21" d="M370.1,237l0.9,1.3c0,0,0.3,0.3,2,0.2s2.8,0.4,3.4,1.3c0.5,0.9,0.4,1.4,0.8,1.5c0.4,0,0.6-0.4,1-0.2
										c0.4,0.2,1.8,1,1.8,1s1.8-1.2,1.9-1.2s-0.8-4.2-0.8-4.2l-2.8-3.2L370.1,237z"/>
									<path class="st21" d="M371.3,263.7l-0.3-1l-1-0.6c0,0-0.5-1.2-0.6-1.3c-0.1-0.1,0.1-0.4-0.6-0.8s-0.3-1-1.2-1.1
										c-0.8-0.1-1.8-0.3-1.8-0.3l-3.2,0.8c0,0-2.2,0.9-2.7,0.7s-1.3-0.2-1.6-0.1c-0.4,0,1.3,2.6,1.3,2.6l2.7,0.5
										c0,0,1.9,0.7,2.2,0.9c0.3,0.2,1.7,1.6,1.7,1.6s5,0,4.9-1.4C371,262.7,371.3,263.7,371.3,263.7z"/>
								</g>
								<path class="st44" d="M379.9,261.1c0,0-2.2,1.5-3-0.1s-2.1-1.5-1.4-3.3c0.7-1.7,0.3-4.1,0.3-4.1s0.5-2.3,0.7-2.6
									c0.2-0.3,0.8-1.1,1.1-1.9c0.2-0.7-0.5-2.6,0.4-2.9c0.9-0.3,1.7-0.2,1.7-0.2s1.8,5.7,1,8c-0.8,2.2-1.4,2-0.5,3.3
									s0.9,1.3,0.8,2.1S379.9,261.1,379.9,261.1z"/>
							</g>
						</g>
						<path class="st19" d="M438,215c0.2,0.2-2.6,0.3-4.1-0.2c-0.9-0.3-3.4,0.2-3.4,0.2s-1.8,0-2.7,0c-2-0.1-5.9-0.4-7.1,0.1
							c-1.1,0.5-2.8-0.1-2.8-0.1s-1.6-0.1-2.1,0c-1.8,0.4-3.3,0.1-4.1,0c-0.2,0-0.4,0-0.7,0c-0.8,0.2-1.2,0.6-2.6,0.2
							c-1.8-0.4-4.7-0.2-4.7-0.2c-1,0-1.7,0.8-1.7,1.7c0,0-0.4,0.7,0,1.6c0.4,0.8-0.4,2.7,0,3.1c0.4,0.5,0,1,0,1s-0.5,2.3,0,3.4
							c0.5,1.1,0,2.3,0,2.3s-0.6,1.8,0,3.3c0.6,1.4,0,3.6,0,3.6c0,1,0.8,1.7,1.7,1.7c0,0,7.2,0.6,7.2,0s4-0.5,5.9,0
							c2,0.5,5.3,0,5.3,0c1.6-0.4,3.6-0.1,5.8,0c0,0,2.7,0.3,3.8-0.5c0.9-0.7,6.2,0.5,6.2,0.5c1,0,1.7-0.8,1.7-1.7l0.3-1.8
							c0.1-0.4-0.1-0.9-0.3-1.3c-0.2-0.4-0.2-1.6,0.1-2.5c0.4-1.6,0-3.8,0-3.8s-0.6-2.1,0-3.4c0.6-1.3,0-5.5,0-5.5
							C439.7,215.8,438.9,215,438,215z"/>
						<g>
							<defs>
								<path id="SVGID_34_" d="M438,215c0.2,0.2-2.6,0.3-4.1-0.2c-0.9-0.3-3.4,0.2-3.4,0.2s-1.8,0-2.7,0c-2-0.1-5.9-0.4-7.1,0.1
									c-1.1,0.5-2.8-0.1-2.8-0.1s-1.6-0.1-2.1,0c-1.8,0.4-3.3,0.1-4.1,0c-0.2,0-0.4,0-0.7,0c-0.8,0.2-1.2,0.6-2.6,0.2
									c-1.8-0.4-4.7-0.2-4.7-0.2c-1,0-1.7,0.8-1.7,1.7c0,0-0.4,0.7,0,1.6c0.4,0.8-0.4,2.7,0,3.1c0.4,0.5,0,1,0,1s-0.5,2.3,0,3.4
									c0.5,1.1,0,2.3,0,2.3s-0.6,1.8,0,3.3c0.6,1.4,0,3.6,0,3.6c0,1,0.8,1.7,1.7,1.7c0,0,7.2,0.6,7.2,0s4-0.5,5.9,0
									c2,0.5,5.3,0,5.3,0c1.6-0.4,3.6-0.1,5.8,0c0,0,2.7,0.3,3.8-0.5c0.9-0.7,6.2,0.5,6.2,0.5c1,0,1.7-0.8,1.7-1.7l0.3-1.8
									c0.1-0.4-0.1-0.9-0.3-1.3c-0.2-0.4-0.2-1.6,0.1-2.5c0.4-1.6,0-3.8,0-3.8s-0.6-2.1,0-3.4c0.6-1.3,0-5.5,0-5.5
									C439.7,215.8,438.9,215,438,215z"/>
							</defs>
							<clipPath id="SVGID_35_">
								<use xlink:href="#SVGID_34_"  style="overflow:visible;"/>
							</clipPath>
							<g class="st45">
								<path class="st21" d="M402.1,232h2.7h0.7c0.9,0,1.7,0.2,2.5,0.6l0.1,0.1c0,0,0.8,0.2,1.3,0.4c0.4,0.2,1.5,0.3,1.8,0.3
									c0.4,0,1.5,0.5,1.7,0.8s0.6,0.8,0.8,1.1c0.2,0.3,0.6,1.1,0.6,1.1s-3-0.1-3.4,0.4c-0.5,0.5-5.7,0.3-5.7,0.3l-3.8-0.4
									L402.1,232z"/>
								<path class="st21" d="M424.2,216.7c1.8,1.6,1.6,1.2,1.7,2.7c0.1,1.4-0.2,1.3,1.5,1.8s2.6,0,3.5,0s1.5,0.2,2.5,0.5
									c1,0.3,1.7,0.2,2.7,0.2c0.9,0,1.3,0.3,2.1,0s1.9-0.1,1.9-0.1l0.7-7.8l-6-1.1h-7.4l-3.6,1.2
									C423.7,214.1,423.1,215.7,424.2,216.7z"/>
								<path class="st21" d="M401.4,217.9c0,0,1.1,0.1,1,1.8s0.5,2.8,0.5,2.8s-0.1,0.9,0,2c0.1,1,1.4,0.8,0.8,2.5s-0.8,2.3-0.8,2.3
									l-0.6,0.7l-1.4,0.9L401.4,217.9z"/>
								<path class="st21" d="M440.7,227.4l-1.5,0.7c0,0-0.4,0.2-0.5,1.9c-0.2,1.7-0.9,2.7-1.9,3.1c-1,0.4-1.5,0.1-1.6,0.5
									s0.2,0.7,0,1c-0.2,0.4-1.3,1.6-1.3,1.6s0.8,2,0.8,2.1c0,0.1,4.3,0,4.3,0l3.7-2.1L440.7,227.4z"/>
								<path class="st21" d="M415.5,231.2v1l0.8,0.9c0,0,0.2,1.3,0.2,1.5c0.1,0.1-0.2,0.4,0.4,1c0.5,0.6,0,1.1,0.8,1.4
									c0.8,0.3,1.7,0.8,1.7,0.8l3.3,0.1c0,0,2.3-0.3,2.8,0c0.5,0.3,1.2,0.5,1.5,0.6c0.4,0.1-0.5-2.8-0.5-2.8l-2.4-1.2
									c0,0-1.7-1.2-1.9-1.4c-0.2-0.2-1.2-2-1.2-2s-4.8-1.4-5.1,0S415.5,231.2,415.5,231.2z"/>
							</g>
							<path class="st46" d="M406.7,222.1c0,0-1.2-2.3,0.4-3c1.7-0.7,1.7-2,3.4-1.1s4,0.7,4,0.7s2.3,0.7,2.5,0.9
								c0.2,0.2,1.1,0.9,1.8,1.2s2.6-0.2,2.8,0.7s0,1.7,0,1.7s-5.9,1.2-8,0.2c-2.1-1-1.9-1.5-3.3-0.8c-1.4,0.7-1.4,0.8-2.1,0.6
								C407.4,222.9,406.7,222.1,406.7,222.1z"/>
						</g>
						<g>
							<path class="st19" d="M423.5,260.5c-0.2-0.2,2.6-0.3,4.1,0.2c0.9,0.3,3.4-0.2,3.4-0.2s1.8,0,2.7,0c2,0.1,5.9,0.4,7.1-0.1
								c1.1-0.5,2.8,0.1,2.8,0.1s1.6,0.1,2.1,0c1.8-0.4,3.3-0.1,4.1,0c0.2,0,0.4,0,0.7,0c0.8-0.2,1.2-0.6,2.6-0.2
								c1.8,0.4,4.7,0.2,4.7,0.2c1,0,1.7-0.8,1.7-1.7c0,0,0.4-0.7,0-1.6s0.4-2.7,0-3.1s0-1,0-1s0.5-2.3,0-3.4c-0.5-1.1,0-2.3,0-2.3
								s0.6-1.8,0-3.3s0-3.6,0-3.6c0-1-0.8-1.7-1.7-1.7c0,0-7.2-0.6-7.2,0s-4,0.5-5.9,0c-2-0.5-5.3,0-5.3,0c-1.6,0.4-3.6,0.1-5.8,0
								c0,0-2.7-0.3-3.8,0.5c-0.9,0.7-6.2-0.5-6.2-0.5c-1,0-1.7,0.8-1.7,1.7l-0.3,1.8c-0.1,0.4,0.1,0.9,0.3,1.3
								c0.2,0.4,0.2,1.6-0.1,2.5c-0.4,1.6,0,3.8,0,3.8s0.6,2.1,0,3.4c-0.6,1.3,0,5.5,0,5.5C421.8,259.7,422.5,260.5,423.5,260.5z"/>
							<g>
								<defs>
									<path id="SVGID_36_" d="M423.5,260.5c-0.2-0.2,2.6-0.3,4.1,0.2c0.9,0.3,3.4-0.2,3.4-0.2s1.8,0,2.7,0c2,0.1,5.9,0.4,7.1-0.1
										c1.1-0.5,2.8,0.1,2.8,0.1s1.6,0.1,2.1,0c1.8-0.4,3.3-0.1,4.1,0c0.2,0,0.4,0,0.7,0c0.8-0.2,1.2-0.6,2.6-0.2
										c1.8,0.4,4.7,0.2,4.7,0.2c1,0,1.7-0.8,1.7-1.7c0,0,0.4-0.7,0-1.6s0.4-2.7,0-3.1s0-1,0-1s0.5-2.3,0-3.4
										c-0.5-1.1,0-2.3,0-2.3s0.6-1.8,0-3.3s0-3.6,0-3.6c0-1-0.8-1.7-1.7-1.7c0,0-7.2-0.6-7.2,0s-4,0.5-5.9,0c-2-0.5-5.3,0-5.3,0
										c-1.6,0.4-3.6,0.1-5.8,0c0,0-2.7-0.3-3.8,0.5c-0.9,0.7-6.2-0.5-6.2-0.5c-1,0-1.7,0.8-1.7,1.7l-0.3,1.8
										c-0.1,0.4,0.1,0.9,0.3,1.3c0.2,0.4,0.2,1.6-0.1,2.5c-0.4,1.6,0,3.8,0,3.8s0.6,2.1,0,3.4c-0.6,1.3,0,5.5,0,5.5
										C421.8,259.7,422.5,260.5,423.5,260.5z"/>
								</defs>
								<clipPath id="SVGID_37_">
									<use xlink:href="#SVGID_36_"  style="overflow:visible;"/>
								</clipPath>
								<g class="st47">
									<path class="st21" d="M419.2,256.5h2.7h0.7c0.9,0,1.7,0.2,2.5,0.6l0.1,0.1c0,0,0.8,0.2,1.3,0.4c0.4,0.2,1.5,0.3,1.8,0.3
										c0.4,0,1.5,0.5,1.7,0.8s0.6,0.8,0.8,1.1s0.6,1.1,0.6,1.1s-3-0.1-3.4,0.4c-0.5,0.5-5.7,0.3-5.7,0.3l-3.8-0.4L419.2,256.5z"
										/>
									<path class="st21" d="M436.1,242.1c2.3,0.6,2,0.4,2.7,1.6s0.4,1.3,2.2,0.9c1.8-0.4,2.3-1.2,3.1-1.6
										c0.8-0.4,1.4-0.5,2.5-0.7c1-0.2,1.6-0.6,2.4-1.1c0.8-0.4,1.3-0.3,1.9-0.9c0.5-0.6,1.7-0.9,1.7-0.9l-3-7.3l-5.8,1.8
										l-6.6,3.4l-2.6,2.8C434.5,240.1,434.8,241.7,436.1,242.1z"/>
									<path class="st21" d="M421.8,239.2c0,0,1.1,0.2,0.9,1.8c-0.2,1.6,0.3,2.8,0.3,2.8s-0.1,0.9-0.2,1.9c0,1,1.4,0.9,0.6,2.6
										c-0.7,1.7-1,2.2-1,2.2l-0.6,0.7l-1.4,0.8L421.8,239.2z"/>
									<path class="st21" d="M449.1,237l0.9,1.3c0,0,0.3,0.3,2,0.2s2.8,0.4,3.4,1.3c0.5,0.9,0.4,1.4,0.8,1.5c0.4,0,0.6-0.4,1-0.2
										s1.8,1,1.8,1s1.8-1.2,1.9-1.2s-0.8-4.2-0.8-4.2l-2.8-3.2L449.1,237z"/>
									<path class="st21" d="M450.3,263.7l-0.3-1l-1-0.6c0,0-0.5-1.2-0.6-1.3c-0.1-0.1,0.1-0.4-0.6-0.8c-0.7-0.4-0.3-1-1.2-1.1
										c-0.8-0.1-1.8-0.3-1.8-0.3l-3.2,0.8c0,0-2.2,0.9-2.7,0.7s-1.3-0.2-1.6-0.1c-0.4,0,1.3,2.6,1.3,2.6l2.7,0.5
										c0,0,1.9,0.7,2.2,0.9c0.3,0.2,1.7,1.6,1.7,1.6s5,0,4.9-1.4C450,262.7,450.3,263.7,450.3,263.7z"/>
								</g>
								<path class="st48" d="M458.9,261.1c0,0-2.2,1.5-3-0.1c-0.8-1.6-2.1-1.5-1.4-3.3c0.7-1.7,0.3-4.1,0.3-4.1s0.5-2.3,0.7-2.6
									c0.2-0.3,0.8-1.1,1.1-1.9c0.2-0.7-0.5-2.6,0.4-2.9c0.9-0.3,1.7-0.2,1.7-0.2s1.8,5.7,1,8c-0.8,2.2-1.4,2-0.5,3.3
									c0.8,1.3,0.9,1.3,0.8,2.1C459.6,260.3,458.9,261.1,458.9,261.1z"/>
							</g>
						</g>
					</g>
				</g>
			</g>
		</g>
		<g>
			<g>
				<rect x="173.1" y="-27.2" class="st12" width="8.3" height="128.3"/>
				<rect x="176.1" y="-27.2" class="st16" width="8.3" height="128.3"/>
				<g>
					<rect x="242.6" y="-27.2" class="st12" width="8.3" height="128.3"/>
					<rect x="245.6" y="-27.2" class="st16" width="8.3" height="128.3"/>
				</g>
			</g>
			<g>
				<g>
					<rect x="162.6" y="-10.4" class="st49" width="106.5" height="18.7"/>
					<polygon class="st50" points="162.6,-10.5 159.4,-6.8 159.4,12.1 162.6,8.3 					"/>
					<polygon class="st51" points="269,8.3 162.6,8.3 159.4,12.1 265.9,12.1 					"/>
				</g>
				<g>
					<rect x="162.6" y="14" class="st49" width="106.5" height="18.7"/>
					<polygon class="st50" points="162.6,13.9 159.4,17.6 159.4,36.5 162.6,32.7 					"/>
					<polygon class="st51" points="269,32.7 162.6,32.7 159.4,36.5 265.9,36.5 					"/>
				</g>
				<g>
					<rect x="162.6" y="38.6" class="st49" width="106.5" height="18.7"/>
					<polygon class="st50" points="162.6,38.4 159.4,42.1 159.4,61 162.6,57.3 					"/>
					<polygon class="st51" points="269,57.3 162.6,57.3 159.4,61 265.9,61 					"/>
				</g>
				<g>
					<rect x="162.6" y="63" class="st49" width="106.5" height="18.7"/>
					<polygon class="st50" points="162.6,62.8 159.4,66.6 159.4,85.4 162.6,81.7 					"/>
					<polygon class="st51" points="269,81.7 162.6,81.7 159.4,85.4 265.9,85.4 					"/>
				</g>
				<path class="st52" d="M162.6,23.4h15.2c0,0,3.2-0.1,4.6-2.5c1.5-2.4,7.8-2.1,9.6,0.3s5.5,2.2,5.5,2.2h10"/>
				<path class="st52" d="M170.1,69.7h30.1c0,0,1.6-0.1,2.3-1.2c0.7-1.2,3.9-1,4.8,0.1c0.9,1.2,2.7,1.1,2.7,1.1h5"/>
				<path class="st52" d="M215.8-1h11.8c0,0,2.5-0.1,3.6-1.9c1.2-1.9,6.1-1.6,7.5,0.2s4.3,1.7,4.3,1.7h7.8"/>
				<line class="st52" x1="210.3" y1="28.6" x2="258.9" y2="28.6"/>
				<line class="st52" x1="215.1" y1="45.3" x2="256.9" y2="45.3"/>
				<line class="st52" x1="237.4" y1="77.9" x2="269" y2="77.9"/>
				<line class="st52" x1="162.6" y1="72.3" x2="187" y2="72.3"/>
				<line class="st52" x1="229" y1="16.6" x2="255.1" y2="16.6"/>
				<line class="st52" x1="179.8" y1="29.9" x2="198.5" y2="29.9"/>
				<line class="st52" x1="162.6" y1="1.3" x2="198.5" y2="1.3"/>
				<path class="st52" d="M240.7,50.7c0,0,5.1-0.3,7.4,1.4c2.4,1.7,5.3,0.6,7-0.7c1.1-0.8,13.9-0.7,13.9-0.7"/>
				<path class="st52" d="M225.6,1.4c0,0,5.1-0.3,7.4,1.4s5.3,0.6,7-0.7c1.1-0.8,13.9-0.7,13.9-0.7"/>
				<line class="st52" x1="162.6" y1="19.3" x2="170.6" y2="19.3"/>
				<line class="st52" x1="162.6" y1="-5.2" x2="177.3" y2="-5.2"/>
				<line class="st52" x1="254.5" y1="4.7" x2="269" y2="4.7"/>
				<line class="st52" x1="162.6" y1="43.6" x2="185" y2="43.6"/>
				<line class="st52" x1="206.7" y1="52.9" x2="174.5" y2="52.9"/>
				<line class="st52" x1="231.7" y1="68.2" x2="220.7" y2="68.2"/>
				<line class="st52" x1="190.6" y1="77.9" x2="219" y2="77.9"/>
				<line class="st52" x1="226.2" y1="72.3" x2="258.9" y2="72.3"/>
				<path class="st52" d="M233.2-1.3c0.5-0.9,1.9-1,3-0.3c1.2,0.7,1.7,2,1.2,2.8s-1.9,1-3,0.3"/>
			</g>
		</g>
	</g>
</g>
</svg>
