<?xml version="1.0" encoding="utf-8"?>
<!-- Generator: Adobe Illustrator 19.1.0, SVG Export Plug-In . SVG Version: 6.00 Build 0)  -->
<svg version="1.1" id="Layer_1" xmlns="http://www.w3.org/2000/svg" xmlns:xlink="http://www.w3.org/1999/xlink" x="0px" y="0px"
	 viewBox="0 0 470 250" style="enable-background:new 0 0 470 250;" xml:space="preserve">
<style type="text/css">
	.st0{fill:url(#SVGID_1_);}
	.st1{fill:none;stroke:#FFFFFF;stroke-width:2;stroke-miterlimit:10;}
	.st2{fill:#414142;}
	.st3{fill:#676865;}
	.st4{fill:#FFFFFF;}
	.st5{fill:#B62127;}
	.st6{fill:#A27A32;}
	.st7{fill:#794722;}
	.st8{fill:#C2A45C;}
	.st9{fill:#068082;}
	.st10{fill:#4E2C17;}
	.st11{clip-path:url(#SVGID_5_);fill:#815E3E;}
	.st12{clip-path:url(#SVGID_5_);}
	.st13{fill:#AF8755;}
	.st14{clip-path:url(#SVGID_7_);fill:#8C693B;}
	.st15{clip-path:url(#SVGID_9_);}
	.st16{clip-path:url(#SVGID_9_);fill:#4E2C17;}
	.st17{clip-path:url(#SVGID_9_);fill:#AF8755;}
	.st18{fill:#B64422;}
	.st19{fill:#96391B;}
	.st20{fill:#807E81;}
	.st21{fill:#4C494B;}
	.st22{clip-path:url(#SVGID_11_);}
	.st23{fill:none;stroke:#A1A09F;stroke-linecap:round;stroke-linejoin:round;stroke-miterlimit:10;}
	.st24{fill:#815E3E;}
</style>
<linearGradient id="SVGID_1_" gradientUnits="userSpaceOnUse" x1="235" y1="-16132.3867" x2="235" y2="-16382" gradientTransform="matrix(1 0 0 -1 0 -16132)">
	<stop  offset="4.659519e-002" style="stop-color:#B8DEDD"/>
	<stop  offset="0.2497" style="stop-color:#BEE0DF"/>
	<stop  offset="0.5296" style="stop-color:#CEE8E5"/>
	<stop  offset="0.7796" style="stop-color:#E1F0EC"/>
	<stop  offset="0.8362" style="stop-color:#E3E6D2"/>
	<stop  offset="0.8932" style="stop-color:#E4DDBF"/>
	<stop  offset="0.9486" style="stop-color:#E5D8B3"/>
	<stop  offset="1" style="stop-color:#E5D7AF"/>
</linearGradient>
<rect x="0" y="0.4" class="st0" width="470" height="249.6"/>
<g>
	<rect x="19.1" y="17.7" class="st1" width="71.8" height="55"/>
	<g>
		<path class="st2" d="M62,63.7c0,0.6-0.5,1.1-1.1,1.1H33.2c-0.6,0-1.1-0.5-1.1-1.1V30.9c0-0.6,0.5-1.1,1.1-1.1h27.7
			c0.6,0,1.1,0.5,1.1,1.1V63.7z"/>
		<path class="st3" d="M62,61.3c0,0.8-0.6,1.4-1.4,1.4H33.5c-0.8,0-1.4-0.6-1.4-1.4V29.1c0-0.8,0.6-1.4,1.4-1.4h27.1
			c0.8,0,1.4,0.6,1.4,1.4V61.3z"/>
		<path class="st2" d="M62,29.4c0,0.8-0.6,1.4-1.4,1.4H33.5c-0.8,0-1.4-0.6-1.4-1.4v-1.7c0-0.8,0.6-1.4,1.4-1.4h27.1
			c0.8,0,1.4,0.6,1.4,1.4V29.4z"/>
		<path class="st4" d="M47,36.3c-5.7,0-10.3,4.6-10.3,10.3c0,0.5,0,1,0.1,1.5c0.7,5,5,8.8,10.2,8.8c5.2,0,9.5-3.8,10.2-8.8
			c0.1-0.5,0.1-1,0.1-1.5C57.3,40.9,52.7,36.3,47,36.3z"/>
		<path class="st5" d="M52.2,45.9c-0.1,0-0.1,0-0.2,0.1c-0.2,0.5-0.7,0.9-1.1,1.3c0.1-0.5,0.1-1,0-1.5c-0.2-0.7-0.6-1.4-0.7-2.1
			c0-0.2-0.3-0.2-0.3,0c-0.1,0.9-0.9,1.9-1.7,2.5c0.3-0.7,0.6-1.3,0.7-2.1c0.1-0.6-0.2-1.3-0.4-1.9c-0.3-1.1-0.6-2.1-0.9-3.2
			c-0.1-0.2-0.3-0.1-0.3,0c-0.1,1.2-0.9,2-1.7,2.8c-0.7,0.8-1.1,1.7-1.2,2.7c0,0.5,0,1.1,0,1.6c0,0.3,0.6,1.7-0.1,1.1
			c-0.5-0.4-0.7-1.1-1.1-1.5c-0.1-0.1-0.2,0-0.3,0.1c0,0,0,0.1,0,0.1c-0.5,1.4-0.3,3.1,0.5,4.4c0.8,1,2.1,1.7,3.3,2
			c0.2,0,0.3-0.1,0.2-0.2c0,0,0,0,0-0.1c-0.6-1.3-1.1-2.7-0.8-4.1c0.1-0.6,0.3-1.3,0.6-1.9c0.6,1.1,1.1,2.5,0.7,3.6
			c0,0.1,0.1,0.2,0.2,0.2c0.9-0.1,1.6-0.8,2.1-1.6c0.1,0.6,0.1,1.1,0,1.7c-0.2,0.8-0.9,1.4-1.3,2.1c0,0,0,0,0,0c0,0.1,0,0.2,0.1,0.2
			c1.4,0.5,2.8-0.9,3.5-2c0.7-1.3,0.7-3,0.7-4.4C52.4,46,52.3,45.9,52.2,45.9z"/>
		<g>
			<path class="st6" d="M77,43.2l0-11.8c0-1.2-0.9-2.1-2.1-2.1l-0.5,0c-1.2,0-2.1,0.9-2.1,2.1l0,11.8c0,1.2-1,2.1-2.1,2.2l-2.1,0
				c-0.9,0-1.5,0.7-1.5,1.6l0,4.7l16.3-0.1l0-4.7c0-0.9-0.7-1.5-1.6-1.5l-2.1,0C78,45.3,77,44.4,77,43.2z"/>
			<path class="st7" d="M82.9,50.4l-16.3,0.1c-0.3,0-0.5,0.2-0.5,0.5l0,1.1c0,0.3,0.2,0.5,0.5,0.5l16.3-0.1c0.3,0,0.5-0.2,0.5-0.5
				l0-1.1C83.4,50.6,83.2,50.4,82.9,50.4z"/>
			<path class="st8" d="M82.4,52.6l-7.7,0l-7.7,0l-0.6,6.2c0,0,0.7,2.3,8.3,2.2s8.3-2.3,8.3-2.3L82.4,52.6z"/>
			<g>
				<defs>
					<path id="SVGID_2_" d="M82.4,52.6l-7.7,0l-7.7,0l-0.6,6.2c0,0,0.7,2.3,8.3,2.2s8.3-2.3,8.3-2.3L82.4,52.6z"/>
				</defs>
				<clipPath id="SVGID_3_">
					<use xlink:href="#SVGID_2_"  style="overflow:visible;"/>
				</clipPath>
			</g>
			<path class="st9" d="M66.7,56.2l-0.2,2.6c0,0,0.5,2.3,8.3,2.2c7.8,0,8.3-2.3,8.3-2.3s-7.1,1.3-7.4-0.5c-0.3-1.6-3.3-3.3-5-2.2
				C68.2,57.7,66.7,56.2,66.7,56.2z"/>
		</g>
		<path class="st9" d="M60.6,28c0,0.7-0.6,1.3-1.3,1.3H34.8c-0.7,0-1.3-0.6-1.3-1.3v0.3c0-0.7,0.6-1.3,1.3-1.3h24.6
			c0.7,0,1.3,0.6,1.3,1.3V28z"/>
	</g>
</g>
<g>
	<polygon class="st10" points="71.4,212.4 156.3,78.6 327,78.6 406.3,212.4 	"/>
	<g>
		<g>
			<defs>
				<polygon id="SVGID_4_" points="322,85.3 160.2,85.3 160.2,212.4 265.5,212.4 345,212.4 398.8,212.4 				"/>
			</defs>
			<clipPath id="SVGID_5_">
				<use xlink:href="#SVGID_4_"  style="overflow:visible;"/>
			</clipPath>
			<rect x="141.4" y="70.2" class="st11" width="299" height="165.6"/>
			<g class="st12">
				<rect x="160.2" y="85.3" class="st13" width="272.6" height="14.5"/>
				<rect x="160.2" y="104" class="st13" width="272.6" height="14.5"/>
				<rect x="160.2" y="122.8" class="st13" width="272.6" height="14.5"/>
				<rect x="160.2" y="141.6" class="st13" width="272.6" height="14.5"/>
				<rect x="160.2" y="160.3" class="st13" width="272.6" height="14.5"/>
				<rect x="160.2" y="179.1" class="st13" width="272.6" height="14.5"/>
				<rect x="160.2" y="197.8" class="st13" width="272.6" height="14.5"/>
			</g>
		</g>
		<polygon class="st10" points="80.6,212.4 160.2,85.3 236.9,212.4 		"/>
		<g>
			<defs>
				<polygon id="SVGID_6_" points="80.6,212.4 160.2,85.3 236.9,212.4 				"/>
			</defs>
			<clipPath id="SVGID_7_">
				<use xlink:href="#SVGID_6_"  style="overflow:visible;"/>
			</clipPath>
			<rect x="80.6" y="160.3" class="st14" width="156.3" height="14.5"/>
			<rect x="80.6" y="85.3" class="st14" width="156.3" height="14.5"/>
			<rect x="80.6" y="104" class="st14" width="156.3" height="14.5"/>
			<rect x="80.6" y="122.8" class="st14" width="156.3" height="14.5"/>
			<rect x="80.6" y="141.6" class="st14" width="156.3" height="14.5"/>
			<rect x="80.6" y="179.1" class="st14" width="156.3" height="14.5"/>
			<rect x="80.6" y="197.8" class="st14" width="156.3" height="14.5"/>
		</g>
	</g>
	<circle class="st10" cx="160.2" cy="162.4" r="23.1"/>
	<circle class="st13" cx="160.2" cy="159.3" r="23.1"/>
	<circle class="st4" cx="160.2" cy="159.3" r="18"/>
	<g>
		<defs>
			<circle id="SVGID_8_" cx="160.2" cy="159.3" r="18"/>
		</defs>
		<clipPath id="SVGID_9_">
			<use xlink:href="#SVGID_8_"  style="overflow:visible;"/>
		</clipPath>
		<g class="st15">
			<path class="st10" d="M138.8,140.3l3.3,21.5c0-10,8.1-18,18-18c10,0,18,8.1,18,18l2.3-21.5H138.8z"/>
		</g>
		<rect x="141.5" y="160.6" class="st16" width="37.3" height="2.4"/>
		<rect x="141.3" y="158.7" class="st17" width="37.3" height="2.4"/>
		<rect x="158.8" y="141.3" class="st17" width="2.4" height="37.3"/>
	</g>
	<rect x="265" y="55" class="st18" width="31.5" height="157.3"/>
	<rect x="296.5" y="55" class="st19" width="8.8" height="157.3"/>
	<rect x="276.4" y="36.8" class="st20" width="12" height="18.3"/>
	<rect x="288.3" y="36.8" class="st21" width="6" height="18.3"/>
	<polygon class="st21" points="265,36.8 284.2,29.9 305.3,36.8 	"/>
	<g>
		<defs>
			<polygon id="SVGID_10_" points="296.5,55 265,55 265,212.4 296.5,212.4 305.3,212.4 305.3,55 			"/>
		</defs>
		<clipPath id="SVGID_11_">
			<use xlink:href="#SVGID_10_"  style="overflow:visible;"/>
		</clipPath>
		<g class="st22">
			<g>
				<rect x="248.9" y="55.6" class="st23" width="19.2" height="8.2"/>
				<rect x="268.1" y="55.6" class="st23" width="19.2" height="8.2"/>
				<rect x="287.3" y="55.6" class="st23" width="19.2" height="8.2"/>
			</g>
			<g>
				<rect x="258.5" y="63.8" class="st23" width="19.2" height="8.2"/>
				<rect x="277.7" y="63.8" class="st23" width="19.2" height="8.2"/>
				<rect x="296.9" y="63.8" class="st23" width="19.2" height="8.2"/>
			</g>
			<g>
				<rect x="248.9" y="72.1" class="st23" width="19.2" height="8.2"/>
				<rect x="268.1" y="72.1" class="st23" width="19.2" height="8.2"/>
				<rect x="287.3" y="72.1" class="st23" width="19.2" height="8.2"/>
			</g>
			<g>
				<rect x="258.5" y="80.3" class="st23" width="19.2" height="8.2"/>
				<rect x="277.7" y="80.3" class="st23" width="19.2" height="8.2"/>
				<rect x="296.9" y="80.3" class="st23" width="19.2" height="8.2"/>
			</g>
			<g>
				<rect x="248.9" y="88.6" class="st23" width="19.2" height="8.2"/>
				<rect x="268.1" y="88.6" class="st23" width="19.2" height="8.2"/>
				<rect x="287.3" y="88.6" class="st23" width="19.2" height="8.2"/>
			</g>
			<g>
				<rect x="258.5" y="96.8" class="st23" width="19.2" height="8.2"/>
				<rect x="277.7" y="96.8" class="st23" width="19.2" height="8.2"/>
				<rect x="296.9" y="96.8" class="st23" width="19.2" height="8.2"/>
			</g>
			<g>
				<rect x="248.9" y="105" class="st23" width="19.2" height="8.2"/>
				<rect x="268.1" y="105" class="st23" width="19.2" height="8.2"/>
				<rect x="287.3" y="105" class="st23" width="19.2" height="8.2"/>
			</g>
			<g>
				<rect x="258.5" y="113" class="st23" width="19.2" height="8.2"/>
				<rect x="277.7" y="113" class="st23" width="19.2" height="8.2"/>
				<rect x="296.9" y="113" class="st23" width="19.2" height="8.2"/>
			</g>
			<g>
				<rect x="248.9" y="121.2" class="st23" width="19.2" height="8.2"/>
				<rect x="268.1" y="121.2" class="st23" width="19.2" height="8.2"/>
				<rect x="287.3" y="121.2" class="st23" width="19.2" height="8.2"/>
			</g>
			<g>
				<rect x="258.5" y="129.4" class="st23" width="19.2" height="8.2"/>
				<rect x="277.7" y="129.4" class="st23" width="19.2" height="8.2"/>
				<rect x="296.9" y="129.4" class="st23" width="19.2" height="8.2"/>
			</g>
			<g>
				<rect x="248.9" y="137.7" class="st23" width="19.2" height="8.2"/>
				<rect x="268.1" y="137.7" class="st23" width="19.2" height="8.2"/>
				<rect x="287.3" y="137.7" class="st23" width="19.2" height="8.2"/>
			</g>
			<g>
				<rect x="258.5" y="145.9" class="st23" width="19.2" height="8.2"/>
				<rect x="277.7" y="145.9" class="st23" width="19.2" height="8.2"/>
				<rect x="296.9" y="145.9" class="st23" width="19.2" height="8.2"/>
			</g>
			<g>
				<rect x="248.9" y="154.1" class="st23" width="19.2" height="8.2"/>
				<rect x="268.1" y="154.1" class="st23" width="19.2" height="8.2"/>
				<rect x="287.3" y="154.1" class="st23" width="19.2" height="8.2"/>
			</g>
			<g>
				<rect x="258.5" y="162.4" class="st23" width="19.2" height="8.2"/>
				<rect x="277.7" y="162.4" class="st23" width="19.2" height="8.2"/>
				<rect x="296.9" y="162.4" class="st23" width="19.2" height="8.2"/>
			</g>
			<g>
				<rect x="248.9" y="170.6" class="st23" width="19.2" height="8.2"/>
				<rect x="268.1" y="170.6" class="st23" width="19.2" height="8.2"/>
				<rect x="287.3" y="170.6" class="st23" width="19.2" height="8.2"/>
			</g>
			<g>
				<rect x="258.5" y="178.9" class="st23" width="19.2" height="8.2"/>
				<rect x="277.7" y="178.9" class="st23" width="19.2" height="8.2"/>
				<rect x="296.9" y="178.9" class="st23" width="19.2" height="8.2"/>
			</g>
			<g>
				<rect x="248.9" y="187.1" class="st23" width="19.2" height="8.2"/>
				<rect x="268.1" y="187.1" class="st23" width="19.2" height="8.2"/>
				<rect x="287.3" y="187.1" class="st23" width="19.2" height="8.2"/>
			</g>
			<g>
				<rect x="258.5" y="195.3" class="st23" width="19.2" height="8.2"/>
				<rect x="277.7" y="195.3" class="st23" width="19.2" height="8.2"/>
				<rect x="296.9" y="195.3" class="st23" width="19.2" height="8.2"/>
			</g>
			<g>
				<rect x="248.9" y="203.6" class="st23" width="19.2" height="8.2"/>
				<rect x="268.1" y="203.6" class="st23" width="19.2" height="8.2"/>
				<rect x="287.3" y="203.6" class="st23" width="19.2" height="8.2"/>
				<rect x="306.5" y="203.6" class="st23" width="19.2" height="8.2"/>
			</g>
		</g>
	</g>
	<rect x="265" y="78.6" class="st10" width="40.3" height="6.7"/>
	<rect x="63.5" y="212.4" class="st24" width="349.6" height="4"/>
	<rect x="63.5" y="216.4" class="st10" width="349.6" height="8"/>
</g>
</svg>
