<?xml version="1.0" encoding="utf-8"?>
<!-- Generator: Adobe Illustrator 19.1.0, SVG Export Plug-In . SVG Version: 6.00 Build 0)  -->
<svg version="1.1" id="Layer_1" xmlns="http://www.w3.org/2000/svg" xmlns:xlink="http://www.w3.org/1999/xlink" x="0px" y="0px"
	 viewBox="0 0 470 250" style="enable-background:new 0 0 470 250;" xml:space="preserve">
<style type="text/css">
	.st0{fill:url(#SVGID_1_);}
	.st1{fill:none;stroke:#FFFFFF;stroke-width:2;stroke-miterlimit:10;}
	.st2{fill:#414142;}
	.st3{fill:#676865;}
	.st4{fill:#FFFFFF;}
	.st5{fill:#B62127;}
	.st6{fill:#A27A32;}
	.st7{fill:#794722;}
	.st8{fill:#C2A45C;}
	.st9{fill:#068082;}
	.st10{fill:#815E3E;}
	.st11{fill:#AF8755;}
	.st12{fill:none;stroke:#815E3E;stroke-miterlimit:10;}
	.st13{fill:#9ED3DF;}
	.st14{fill:#ABABAA;}
	.st15{fill:#DBD7C0;}
	.st16{fill:#AEAB91;}
	.st17{fill:none;stroke:#818180;stroke-width:2;stroke-miterlimit:10;}
	.st18{fill:none;stroke:#645C5C;stroke-width:3;stroke-miterlimit:10;}
</style>
<linearGradient id="SVGID_1_" gradientUnits="userSpaceOnUse" x1="3.051757e-005" y1="-16257.1387" x2="470" y2="-16257.1387" gradientTransform="matrix(1 0 0 -1 0 -16132)">
	<stop  offset="0" style="stop-color:#AEC8CD"/>
	<stop  offset="0.3011" style="stop-color:#D3E4EF"/>
	<stop  offset="0.4241" style="stop-color:#D7E3E9"/>
	<stop  offset="0.5251" style="stop-color:#DCE1E1"/>
	<stop  offset="0.6479" style="stop-color:#E0DDC3"/>
	<stop  offset="0.7778" style="stop-color:#E4D79D"/>
</linearGradient>
<rect x="0" y="0" class="st0" width="470" height="250.3"/>
<g>
	<rect x="19.1" y="17.3" class="st1" width="71.8" height="55"/>
	<g>
		<path class="st2" d="M62,63.3c0,0.6-0.5,1.1-1.1,1.1H33.2c-0.6,0-1.1-0.5-1.1-1.1V30.5c0-0.6,0.5-1.1,1.1-1.1h27.7
			c0.6,0,1.1,0.5,1.1,1.1V63.3z"/>
		<path class="st3" d="M62,60.9c0,0.8-0.6,1.4-1.4,1.4H33.5c-0.8,0-1.4-0.6-1.4-1.4V28.8c0-0.8,0.6-1.4,1.4-1.4h27.1
			c0.8,0,1.4,0.6,1.4,1.4V60.9z"/>
		<path class="st2" d="M62,29c0,0.8-0.6,1.4-1.4,1.4H33.5c-0.8,0-1.4-0.6-1.4-1.4v-1.7c0-0.8,0.6-1.4,1.4-1.4h27.1
			c0.8,0,1.4,0.6,1.4,1.4V29z"/>
		<path class="st4" d="M47,35.9c-5.7,0-10.3,4.6-10.3,10.3c0,0.5,0,1,0.1,1.5c0.7,5,5,8.8,10.2,8.8c5.2,0,9.5-3.8,10.2-8.8
			c0.1-0.5,0.1-1,0.1-1.5C57.3,40.5,52.7,35.9,47,35.9z"/>
		<path class="st5" d="M52.2,45.5c-0.1,0-0.1,0-0.2,0.1c-0.2,0.5-0.7,0.9-1.1,1.3c0.1-0.5,0.1-1,0-1.5c-0.2-0.7-0.6-1.4-0.7-2.1
			c0-0.2-0.3-0.2-0.3,0c-0.1,0.9-0.9,1.9-1.7,2.5c0.3-0.7,0.6-1.3,0.7-2.1c0.1-0.6-0.2-1.3-0.4-1.9c-0.3-1.1-0.6-2.1-0.9-3.2
			c-0.1-0.2-0.3-0.1-0.3,0c-0.1,1.2-0.9,2-1.7,2.8c-0.7,0.8-1.1,1.7-1.2,2.7c0,0.5,0,1.1,0,1.6c0,0.3,0.6,1.7-0.1,1.1
			c-0.5-0.4-0.7-1.1-1.1-1.5c-0.1-0.1-0.2,0-0.3,0.1c0,0,0,0.1,0,0.1c-0.5,1.4-0.3,3.1,0.5,4.4c0.8,1,2.1,1.7,3.3,2
			c0.2,0,0.3-0.1,0.2-0.2c0,0,0,0,0-0.1c-0.6-1.3-1.1-2.7-0.8-4.1c0.1-0.6,0.3-1.3,0.6-1.9c0.6,1.1,1.1,2.5,0.7,3.6
			c0,0.1,0.1,0.2,0.2,0.2c0.9-0.1,1.6-0.8,2.1-1.6c0.1,0.6,0.1,1.1,0,1.7c-0.2,0.8-0.9,1.4-1.3,2.1c0,0,0,0,0,0c0,0.1,0,0.2,0.1,0.2
			c1.4,0.5,2.8-0.9,3.5-2c0.7-1.3,0.7-3,0.7-4.4C52.4,45.6,52.3,45.5,52.2,45.5z"/>
		<g>
			<path class="st6" d="M77,42.8L77,31c0-1.2-0.9-2.1-2.1-2.1l-0.5,0c-1.2,0-2.1,0.9-2.1,2.1l0,11.8c0,1.2-1,2.1-2.1,2.2l-2.1,0
				c-0.9,0-1.5,0.7-1.5,1.6l0,4.7l16.3-0.1l0-4.7c0-0.9-0.7-1.5-1.6-1.5l-2.1,0C78,44.9,77,44,77,42.8z"/>
			<path class="st7" d="M82.9,50L66.5,50c-0.3,0-0.5,0.2-0.5,0.5l0,1.1c0,0.3,0.2,0.5,0.5,0.5l16.3-0.1c0.3,0,0.5-0.2,0.5-0.5l0-1.1
				C83.4,50.2,83.2,50,82.9,50z"/>
			<path class="st8" d="M82.4,52.2l-7.7,0l-7.7,0l-0.6,6.2c0,0,0.7,2.3,8.3,2.2s8.3-2.3,8.3-2.3L82.4,52.2z"/>
			<g>
				<defs>
					<path id="SVGID_2_" d="M82.4,52.2l-7.7,0l-7.7,0l-0.6,6.2c0,0,0.7,2.3,8.3,2.2s8.3-2.3,8.3-2.3L82.4,52.2z"/>
				</defs>
				<clipPath id="SVGID_3_">
					<use xlink:href="#SVGID_2_"  style="overflow:visible;"/>
				</clipPath>
			</g>
			<path class="st9" d="M66.7,55.8l-0.2,2.6c0,0,0.5,2.3,8.3,2.2s8.3-2.3,8.3-2.3s-7.1,1.3-7.4-0.5c-0.3-1.6-3.3-3.3-5-2.2
				C68.2,57.3,66.7,55.8,66.7,55.8z"/>
		</g>
		<path class="st9" d="M60.6,27.7c0,0.7-0.6,1.3-1.3,1.3H34.8c-0.7,0-1.3-0.6-1.3-1.3V28c0-0.7,0.6-1.3,1.3-1.3h24.6
			c0.7,0,1.3,0.6,1.3,1.3V27.7z"/>
	</g>
</g>
<g>
	<rect x="173.5" y="0" class="st10" width="235.6" height="250.3"/>
	<g>
		<g>
			<rect x="182.7" y="176.7" class="st11" width="226.3" height="22.9"/>
			<path class="st12" d="M182.7,188.1h18.5c0,0,3.8-0.2,5.6-3c1.8-3,9.5-2.6,11.7,0.4s6.7,2.6,6.7,2.6h12.2"/>
			<line class="st12" x1="240.7" y1="194.5" x2="300" y2="194.5"/>
			<line class="st12" x1="263.6" y1="183.5" x2="295.3" y2="183.5"/>
			<line class="st12" x1="203.7" y1="196.1" x2="226.4" y2="196.1"/>
			<line class="st12" x1="365.3" y1="188.1" x2="409" y2="188.1"/>
			<path class="st12" d="M327.1,191.8c0,0,6.2-0.4,9,1.7c2.9,2.1,6.4,0.7,8.5-0.9c1.3-1,16.9-0.9,16.9-0.9"/>
			<line class="st12" x1="182.7" y1="183.1" x2="192.4" y2="183.1"/>
			<line class="st12" x1="316.7" y1="186.9" x2="340.8" y2="186.9"/>
		</g>
		<g>
			<rect x="182.7" y="151.6" class="st11" width="226.3" height="22.9"/>
			<path class="st12" d="M247.5,163.1h14.4c0,0,3-0.1,4.3-2.3c1.4-2.3,7.4-2,9.1,0.3c1.7,2.3,5.2,2,5.2,2h9.5"/>
			<line class="st12" x1="333.1" y1="163.1" x2="392.3" y2="163.1"/>
			<line class="st12" x1="182.7" y1="165.9" x2="226.4" y2="165.9"/>
			<path class="st12" d="M259.4,166c0,0,6.2-0.4,9,1.7c2.9,2.1,6.4,0.7,8.5-0.9c1.3-1,16.9-0.9,16.9-0.9"/>
			<line class="st12" x1="182.7" y1="157.9" x2="200.7" y2="157.9"/>
			<line class="st12" x1="294.6" y1="170" x2="312.3" y2="170"/>
			<path class="st12" d="M268.7,162.7c0.6-1.1,2.3-1.2,3.7-0.4s2.1,2.4,1.5,3.4c-0.6,1.1-2.3,1.2-3.7,0.4"/>
			<line class="st12" x1="310.5" y1="156.7" x2="340.8" y2="156.7"/>
			<line class="st12" x1="409" y1="170" x2="396.1" y2="170"/>
		</g>
		<line class="st12" x1="409" y1="205.5" x2="368.1" y2="205.5"/>
		<g>
			<rect x="182.7" y="201.8" class="st11" width="226.3" height="22.9"/>
			<line class="st12" x1="246.6" y1="210" x2="297.5" y2="210"/>
			<line class="st12" x1="338" y1="213.2" x2="376.5" y2="213.2"/>
			<path class="st12" d="M277.8,216.6c0,0,6.2-0.4,9,1.7c2.9,2.1,6.4,0.7,8.5-0.9c1.3-1,16.9-0.9,16.9-0.9"/>
			<line class="st12" x1="182.7" y1="207.9" x2="210" y2="207.9"/>
			<line class="st12" x1="236.4" y1="219.3" x2="197.2" y2="219.3"/>
			<line class="st12" x1="331.9" y1="221.4" x2="370.1" y2="221.4"/>
		</g>
		<g>
			<rect x="182.7" y="227.4" class="st11" width="226.3" height="22.9"/>
			<path class="st12" d="M191.8,235.6h36.7c0,0,1.9-0.1,2.8-1.5c0.9-1.5,4.8-1.3,5.9,0.2c1.1,1.5,3.3,1.3,3.3,1.3h6.1"/>
			<path class="st12" d="M387.9,242.5h-36.7c0,0-1.9,0.1-2.8,1.5c-0.9,1.5-4.8,1.3-5.9-0.2c-1.1-1.5-3.3-1.3-3.3-1.3h-6.1"/>
			<line class="st12" x1="273.8" y1="245.7" x2="312.3" y2="245.7"/>
			<line class="st12" x1="182.7" y1="238.8" x2="212.4" y2="238.8"/>
			<line class="st12" x1="266.8" y1="233.8" x2="253.5" y2="233.8"/>
			<line class="st12" x1="216.8" y1="245.7" x2="251.4" y2="245.7"/>
			<line class="st12" x1="260.1" y1="238.8" x2="300" y2="238.8"/>
			<line class="st12" x1="309" y1="233.1" x2="362.7" y2="233.1"/>
		</g>
		<g>
			<rect x="182.7" y="75.4" class="st11" width="226.3" height="22.9"/>
			<path class="st12" d="M182.7,86.8h18.5c0,0,3.8-0.2,5.6-3c1.8-3,9.5-2.6,11.7,0.4s6.7,2.6,6.7,2.6h12.2"/>
			<line class="st12" x1="240.7" y1="93.3" x2="300" y2="93.3"/>
			<line class="st12" x1="263.6" y1="82.2" x2="295.3" y2="82.2"/>
			<line class="st12" x1="203.7" y1="94.8" x2="226.4" y2="94.8"/>
			<line class="st12" x1="365.3" y1="86.8" x2="409" y2="86.8"/>
			<path class="st12" d="M327.1,90.5c0,0,6.2-0.4,9,1.7s6.4,0.7,8.5-0.9c1.3-1,16.9-0.9,16.9-0.9"/>
			<line class="st12" x1="182.7" y1="81.8" x2="192.4" y2="81.8"/>
			<line class="st12" x1="316.7" y1="85.6" x2="340.8" y2="85.6"/>
		</g>
		<g>
			<rect x="182.7" y="50.3" class="st11" width="226.3" height="22.9"/>
			<path class="st12" d="M247.5,61.8h14.4c0,0,3-0.1,4.3-2.3c1.4-2.3,7.4-2,9.1,0.3c1.7,2.3,5.2,2,5.2,2h9.5"/>
			<line class="st12" x1="333.1" y1="61.8" x2="392.3" y2="61.8"/>
			<line class="st12" x1="182.7" y1="64.7" x2="226.4" y2="64.7"/>
			<path class="st12" d="M259.4,64.7c0,0,6.2-0.4,9,1.7c2.9,2.1,6.4,0.7,8.5-0.9c1.3-1,16.9-0.9,16.9-0.9"/>
			<line class="st12" x1="182.7" y1="56.6" x2="200.7" y2="56.6"/>
			<line class="st12" x1="294.6" y1="68.8" x2="312.3" y2="68.8"/>
			<path class="st12" d="M268.7,61.4c0.6-1.1,2.3-1.2,3.7-0.4c1.4,0.8,2.1,2.4,1.5,3.4c-0.6,1.1-2.3,1.2-3.7,0.4"/>
			<line class="st12" x1="310.5" y1="55.4" x2="340.8" y2="55.4"/>
			<line class="st12" x1="409" y1="68.8" x2="396.1" y2="68.8"/>
		</g>
		<g>
			<rect x="182.7" y="25" class="st11" width="226.3" height="22.9"/>
			<path class="st12" d="M182.7,36.5h18.5c0,0,3.8-0.2,5.6-3c1.8-3,9.5-2.6,11.7,0.4s6.7,2.6,6.7,2.6h12.2"/>
			<line class="st12" x1="240.7" y1="42.9" x2="300" y2="42.9"/>
			<line class="st12" x1="263.6" y1="31.9" x2="295.3" y2="31.9"/>
			<line class="st12" x1="203.7" y1="44.5" x2="226.4" y2="44.5"/>
			<line class="st12" x1="365.3" y1="36.5" x2="409" y2="36.5"/>
			<path class="st12" d="M327.1,40.1c0,0,6.2-0.4,9,1.7s6.4,0.7,8.5-0.9c1.3-1,16.9-0.9,16.9-0.9"/>
			<line class="st12" x1="182.7" y1="31.4" x2="192.4" y2="31.4"/>
			<line class="st12" x1="316.7" y1="35.3" x2="340.8" y2="35.3"/>
		</g>
		<g>
			<rect x="182.7" y="0" class="st11" width="226.3" height="22.9"/>
			<path class="st12" d="M247.5,11.4h14.4c0,0,3-0.1,4.3-2.3c1.4-2.3,7.4-2,9.1,0.3c1.7,2.3,5.2,2,5.2,2h9.5"/>
			<line class="st12" x1="333.1" y1="11.4" x2="392.3" y2="11.4"/>
			<line class="st12" x1="182.7" y1="14.3" x2="226.4" y2="14.3"/>
			<path class="st12" d="M259.4,14.3c0,0,6.2-0.4,9,1.7c2.9,2.1,6.4,0.7,8.5-0.9c1.3-1,16.9-0.9,16.9-0.9"/>
			<line class="st12" x1="182.7" y1="6.3" x2="200.7" y2="6.3"/>
			<line class="st12" x1="294.6" y1="18.4" x2="312.3" y2="18.4"/>
			<path class="st12" d="M268.7,11c0.6-1.1,2.3-1.2,3.7-0.4c1.4,0.8,2.1,2.4,1.5,3.4c-0.6,1.1-2.3,1.2-3.7,0.4"/>
			<line class="st12" x1="310.5" y1="5.1" x2="340.8" y2="5.1"/>
			<line class="st12" x1="409" y1="18.4" x2="396.1" y2="18.4"/>
		</g>
		<line class="st12" x1="409" y1="104.2" x2="368.1" y2="104.2"/>
		<g>
			<rect x="182.7" y="100.5" class="st11" width="226.3" height="22.9"/>
			<line class="st12" x1="246.6" y1="108.7" x2="297.5" y2="108.7"/>
			<line class="st12" x1="338" y1="111.9" x2="376.5" y2="111.9"/>
			<path class="st12" d="M277.8,115.3c0,0,6.2-0.4,9,1.7c2.9,2.1,6.4,0.7,8.5-0.9c1.3-1,16.9-0.9,16.9-0.9"/>
			<line class="st12" x1="182.7" y1="106.6" x2="210" y2="106.6"/>
			<line class="st12" x1="236.4" y1="118" x2="197.2" y2="118"/>
			<line class="st12" x1="331.9" y1="120.1" x2="370.1" y2="120.1"/>
		</g>
		<g>
			<rect x="182.7" y="126.1" class="st11" width="226.3" height="22.9"/>
			<path class="st12" d="M191.8,134.3h36.7c0,0,1.9-0.1,2.8-1.5c0.9-1.5,4.8-1.3,5.9,0.2c1.1,1.5,3.3,1.3,3.3,1.3h6.1"/>
			<path class="st12" d="M387.9,141.3h-36.7c0,0-1.9,0.1-2.8,1.5c-0.9,1.5-4.8,1.3-5.9-0.2c-1.1-1.5-3.3-1.3-3.3-1.3h-6.1"/>
			<line class="st12" x1="273.8" y1="144.4" x2="312.3" y2="144.4"/>
			<line class="st12" x1="182.7" y1="137.6" x2="212.4" y2="137.6"/>
			<line class="st12" x1="266.8" y1="132.5" x2="253.5" y2="132.5"/>
			<line class="st12" x1="216.8" y1="144.4" x2="251.4" y2="144.4"/>
			<line class="st12" x1="260.1" y1="137.6" x2="300" y2="137.6"/>
			<line class="st12" x1="309" y1="131.8" x2="362.7" y2="131.8"/>
		</g>
	</g>
	<rect x="249.7" y="67.5" class="st13" width="86.6" height="86.6"/>
	<g>
		<path class="st14" d="M345.3,166.8H240.8V62.4h104.5V166.8z M249.7,157.9h86.6V71.3h-86.6V157.9z"/>
	</g>
	<g>
		<path class="st4" d="M345.3,163H240.8V58.6h104.5V163z M249.7,154.1h86.6V67.5h-86.6V154.1z"/>
	</g>
	<rect x="291.1" y="67.5" class="st4" width="3.9" height="86.6"/>
	<g>
		<polygon class="st15" points="291.2,163.8 277.6,161 277.6,55.1 291.2,57.8 		"/>
		<polygon class="st16" points="285.1,162.4 277.6,161 277.6,55.1 285.1,56.4 		"/>
		<polygon class="st15" points="283.5,163.8 269.9,161 269.9,55.1 283.5,57.8 		"/>
		<polygon class="st16" points="277.4,162.4 269.9,161 269.9,55.1 277.4,56.4 		"/>
		<polygon class="st15" points="276,163.8 262.3,161 262.3,55.1 276,57.8 		"/>
		<polygon class="st16" points="269.9,162.4 262.3,161 262.3,55.1 269.9,56.4 		"/>
		<polygon class="st15" points="268.5,163.8 254.8,161 254.8,55.1 268.5,57.8 		"/>
		<polygon class="st16" points="262.3,162.4 254.8,161 254.8,55.1 262.3,56.4 		"/>
		<polygon class="st15" points="260.7,163.8 247.1,161 247.1,55.1 260.7,57.8 		"/>
		<polygon class="st16" points="254.6,162.4 247.1,161 247.1,55.1 254.6,56.4 		"/>
		<polygon class="st15" points="253.2,163.8 239.5,161 239.5,55.1 253.2,57.8 		"/>
		<polygon class="st16" points="247.1,162.4 239.5,161 239.5,55.1 247.1,56.4 		"/>
		<polygon class="st15" points="245.5,163.8 231.8,161 231.8,55.1 245.5,57.8 		"/>
	</g>
	<g>
		<line class="st17" x1="239.1" y1="56.5" x2="239.1" y2="42.9"/>
		<line class="st17" x1="247.1" y1="56.5" x2="247.1" y2="42.9"/>
		<line class="st17" x1="254.6" y1="56.5" x2="254.6" y2="42.9"/>
		<line class="st17" x1="262.1" y1="56.5" x2="262.1" y2="42.9"/>
		<line class="st17" x1="270.1" y1="56.5" x2="270.1" y2="42.9"/>
		<line class="st17" x1="277.6" y1="56.5" x2="277.6" y2="42.9"/>
		<line class="st17" x1="285.1" y1="56.5" x2="285.1" y2="42.9"/>
		<line class="st18" x1="234.1" y1="45.6" x2="345.3" y2="45.6"/>
	</g>
</g>
</svg>
