<?xml version="1.0" encoding="utf-8"?>
<!-- Generator: Adobe Illustrator 19.1.0, SVG Export Plug-In . SVG Version: 6.00 Build 0)  -->
<svg version="1.1" id="Layer_1" xmlns="http://www.w3.org/2000/svg" xmlns:xlink="http://www.w3.org/1999/xlink" x="0px" y="0px"
	 viewBox="0 0 470 250" style="enable-background:new 0 0 470 250;" xml:space="preserve">
<style type="text/css">
	.st0{fill:url(#SVGID_1_);}
	.st1{fill:#78572E;}
	.st2{fill:#60422C;}
	.st3{fill:#8C693B;}
	.st4{fill:#6E5034;}
	.st5{fill:#AF8755;}
	.st6{fill:#303937;}
	.st7{opacity:0.76;}
	.st8{fill:#4E2F1E;}
	.st9{fill:#663F2C;}
	.st10{fill:#3B2315;}
	.st11{fill:#6A432B;}
	.st12{fill:#322116;}
	.st13{opacity:0.61;fill:#322116;}
	.st14{fill:#010202;}
	.st15{fill:#4B585B;}
	.st16{fill:#939695;}
	.st17{fill:none;stroke:#FFFFFF;stroke-width:2;stroke-miterlimit:10;}
	.st18{fill:#414142;}
	.st19{fill:#676865;}
	.st20{fill:#FFFFFF;}
	.st21{fill:#B62127;}
	.st22{fill:#A27A32;}
	.st23{fill:#794722;}
	.st24{fill:#C2A45C;}
	.st25{fill:#068082;}
</style>
<linearGradient id="SVGID_1_" gradientUnits="userSpaceOnUse" x1="235" y1="-16132.3867" x2="235" y2="-16382" gradientTransform="matrix(1 0 0 -1 0 -16132)">
	<stop  offset="4.659519e-002" style="stop-color:#F0E3C9"/>
	<stop  offset="0.4963" style="stop-color:#EADEC3"/>
	<stop  offset="0.7258" style="stop-color:#E6DABD"/>
	<stop  offset="0.7709" style="stop-color:#DFD3B6"/>
	<stop  offset="0.8345" style="stop-color:#CCC1A2"/>
	<stop  offset="0.8584" style="stop-color:#C3B899"/>
	<stop  offset="1" style="stop-color:#AEA598"/>
</linearGradient>
<rect x="0" y="0.4" class="st0" width="470" height="249.6"/>
<g>
	<g>
		<rect x="400.6" y="153.4" class="st1" width="15.7" height="76.9"/>
		<rect x="314.3" y="153.4" class="st1" width="15.7" height="76.9"/>
		<rect x="400.6" y="153.4" class="st2" width="8" height="76.9"/>
		<rect x="431.8" y="153.4" class="st3" width="15.7" height="76.9"/>
		<rect x="337.5" y="153.4" class="st4" width="8" height="76.9"/>
		<rect x="314.3" y="153.4" class="st2" width="8" height="76.9"/>
		<rect x="345.5" y="153.4" class="st3" width="15.7" height="76.9"/>
		<rect x="311.2" y="157.6" class="st3" width="34.3" height="15.7"/>
		<rect x="311.2" y="176.7" class="st3" width="34.3" height="15.7"/>
		<rect x="311.2" y="195.7" class="st3" width="34.3" height="15.7"/>
		<rect x="311.2" y="214.5" class="st3" width="34.3" height="15.7"/>
		<rect x="341.5" y="157.6" class="st5" width="109.3" height="15.7"/>
		<rect x="341.5" y="176.7" class="st5" width="109.3" height="15.7"/>
		<rect x="341.5" y="195.7" class="st5" width="109.3" height="15.7"/>
		<rect x="341.5" y="214.5" class="st5" width="109.3" height="15.7"/>
		<g>
			<g>
				<circle class="st6" cx="353.6" cy="162.4" r="1"/>
				<circle class="st6" cx="353.6" cy="168" r="1"/>
			</g>
			<g>
				<circle class="st6" cx="353.6" cy="181.7" r="1"/>
				<circle class="st6" cx="353.6" cy="187.4" r="1"/>
			</g>
			<g>
				<circle class="st6" cx="353.6" cy="200.7" r="1"/>
				<circle class="st6" cx="353.6" cy="206.4" r="1"/>
			</g>
			<g>
				<circle class="st6" cx="353.6" cy="219.6" r="1"/>
				<circle class="st6" cx="353.6" cy="225.2" r="1"/>
			</g>
		</g>
		<g class="st7">
			<g>
				<circle class="st6" cx="337.5" cy="162.4" r="1"/>
				<circle class="st6" cx="337.5" cy="168" r="1"/>
			</g>
			<g>
				<circle class="st6" cx="337.5" cy="181.7" r="1"/>
				<circle class="st6" cx="337.5" cy="187.4" r="1"/>
			</g>
			<g>
				<circle class="st6" cx="337.5" cy="200.7" r="1"/>
				<circle class="st6" cx="337.5" cy="206.4" r="1"/>
			</g>
			<g>
				<circle class="st6" cx="337.5" cy="219.6" r="1"/>
				<circle class="st6" cx="337.5" cy="225.2" r="1"/>
			</g>
		</g>
		<g class="st7">
			<g>
				<circle class="st6" cx="315.3" cy="162.4" r="1"/>
				<circle class="st6" cx="315.3" cy="168" r="1"/>
			</g>
			<g>
				<circle class="st6" cx="315.3" cy="181.7" r="1"/>
				<circle class="st6" cx="315.3" cy="187.4" r="1"/>
			</g>
			<g>
				<circle class="st6" cx="315.3" cy="200.7" r="1"/>
				<circle class="st6" cx="315.3" cy="206.4" r="1"/>
			</g>
			<g>
				<circle class="st6" cx="315.3" cy="219.6" r="1"/>
				<circle class="st6" cx="315.3" cy="225.2" r="1"/>
			</g>
		</g>
		<g>
			<g>
				<circle class="st6" cx="439.7" cy="162.4" r="1"/>
				<circle class="st6" cx="439.7" cy="168" r="1"/>
			</g>
			<g>
				<circle class="st6" cx="439.7" cy="181.7" r="1"/>
				<circle class="st6" cx="439.7" cy="187.4" r="1"/>
			</g>
			<g>
				<circle class="st6" cx="439.7" cy="200.7" r="1"/>
				<circle class="st6" cx="439.7" cy="206.4" r="1"/>
			</g>
			<g>
				<circle class="st6" cx="439.7" cy="219.6" r="1"/>
				<circle class="st6" cx="439.7" cy="225.2" r="1"/>
			</g>
		</g>
	</g>
	<g>
		<polygon class="st8" points="286.4,227 305,227 286.4,115.5 267.9,115.5 		"/>
		<polygon class="st8" points="334.2,227 352.7,227 334.2,115.5 315.6,115.5 		"/>
		<polygon class="st9" points="145.3,227 126.7,227 145.3,115.5 163.8,115.5 		"/>
		<polygon class="st8" points="136.5,227 126.7,227 145.3,115.5 155.1,115.5 		"/>
		<polygon class="st10" points="198.5,154.5 152.1,154.5 153.9,143.3 198.5,143.3 		"/>
		<polygon class="st9" points="342.9,227 352.7,227 334.2,115.5 324.4,115.5 		"/>
		<polygon class="st9" points="295.2,227 305,227 286.4,115.5 276.7,115.5 		"/>
		<polygon class="st10" points="327,154.5 198.5,154.5 198.5,143.3 325,143.3 		"/>
		<polygon class="st9" points="193,227 174.4,227 193,115.5 211.6,115.5 		"/>
		<polygon class="st8" points="184.2,227 174.4,227 193,115.5 202.8,115.5 		"/>
		<rect x="126.7" y="93.6" class="st8" width="226" height="22.6"/>
		<rect x="174.4" y="93.6" class="st9" width="178.3" height="22.6"/>
		<rect x="126.7" y="116.2" class="st10" width="226" height="3.4"/>
		<rect x="170.9" y="225.2" class="st10" width="24.9" height="5"/>
		<rect x="123.3" y="225.2" class="st10" width="24.9" height="5"/>
		<rect x="331.4" y="225.2" class="st10" width="24.9" height="5"/>
		<rect x="283.9" y="225.2" class="st10" width="24.9" height="5"/>
	</g>
	<g>
		<g>
			<path class="st8" d="M94.8,145.9H41.7c-9.6,0-17.4,7.8-17.4,17.4v0.9v2.3v60.5h13.2v-43.6c1.3,0.3,2.7,0.5,4.2,0.5h53.1
				c9.6,0,17.4-7.8,17.4-17.4v-3.2C112.2,153.7,104.4,145.9,94.8,145.9z"/>
			<path class="st11" d="M94.8,145.9H54.9c-9.6,0-17.4,7.8-17.4,17.4v0.9v2.3v60.5h74.7v-60.5v-2.3v-0.9
				C112.2,153.7,104.4,145.9,94.8,145.9z"/>
			<g>
				<path class="st12" d="M93.2,145.9H53.3c-9.6,0-17.4,7.8-17.4,17.4v0.9v5.8h4.9v-4.4v-0.7c0-8.1,6.6-14.7,14.7-14.7H91
					c8.1,0,14.7,6.6,14.7,14.7v0.7v4.4h4.9v-5.8v-0.9C110.6,153.7,102.8,145.9,93.2,145.9z"/>
			</g>
			<rect x="26.9" y="226.9" class="st11" width="23.1" height="3.4"/>
			<rect x="37.5" y="177.5" class="st8" width="4.9" height="41.9"/>
			<rect x="35.8" y="177.5" class="st12" width="1.7" height="41.9"/>
			<rect x="24.3" y="177.5" class="st12" width="1.7" height="41.9"/>
			<rect x="105.6" y="177.5" class="st12" width="1.7" height="41.9"/>
			<rect x="107.3" y="177.5" class="st8" width="4.9" height="41.9"/>
			<rect x="21.7" y="219.3" class="st8" width="92.3" height="7.5"/>
			<rect x="21.7" y="219.3" class="st12" width="17.8" height="7.5"/>
			<rect x="19.1" y="226.9" class="st8" width="18.4" height="3.4"/>
			<rect x="95.3" y="226.9" class="st11" width="23.1" height="3.4"/>
			<rect x="88.4" y="226.9" class="st8" width="18.4" height="3.4"/>
			<rect x="35.8" y="177.5" class="st13" width="6.6" height="2.6"/>
			<rect x="105.6" y="177.5" class="st13" width="6.6" height="2.6"/>
			<g>
				<path class="st8" d="M94.8,145.9H54.9c-9.6,0-17.4,7.8-17.4,17.4v0.9v5.8h4.9v-4.4v-0.7c0-8.1,6.6-14.7,14.7-14.7h35.5
					c8.1,0,14.7,6.6,14.7,14.7v0.7v4.4h4.9v-5.8v-0.9C112.2,153.7,104.4,145.9,94.8,145.9z"/>
			</g>
			<g>
				<path class="st12" d="M25.9,163.3c0-9.6,7.8-17.4,17.4-17.4h-1.6c-9.6,0-17.4,7.8-17.4,17.4v0.9v5.8h1.6v-5.8V163.3z"/>
			</g>
			<rect x="73.3" y="144" class="st8" width="4.9" height="75.3"/>
			<rect x="71.6" y="144" class="st12" width="1.7" height="75.3"/>
			<rect x="21.7" y="169.9" class="st8" width="92.3" height="7.5"/>
			<rect x="71.6" y="177.5" class="st13" width="6.6" height="2.6"/>
			<rect x="21.7" y="169.9" class="st12" width="17.8" height="7.5"/>
		</g>
		<rect x="67.1" y="166.7" class="st14" width="14.1" height="14.1"/>
		<rect x="69.5" y="166.7" class="st15" width="14.1" height="14.1"/>
		<path class="st16" d="M83.6,183.1h-0.1v-4.5c0-3.5-2.9-6.4-6.4-6.4s-6.4,2.9-6.4,6.4v4.5h-0.1c-1.8,0-3.2,1.4-3.2,3.2v13
			c0,1.8,1.4,3.2,3.2,3.2h13c1.8,0,3.2-1.4,3.2-3.2v-13C86.8,184.6,85.4,183.1,83.6,183.1z M72.3,178.7c0-2.7,2.2-4.8,4.8-4.8
			c2.7,0,4.8,2.2,4.8,4.8v4.5h-9.6V178.7z M80.5,195.3c-0.2,0.3-0.5,0.6-0.9,0.9c-4.1,2.5-8.3-1.8-5.8-5.8c0.2-0.3,0.5-0.6,0.9-0.9
			C78.7,187,82.9,191.3,80.5,195.3z"/>
		<rect x="74.2" y="170.2" class="st14" width="4.6" height="7.3"/>
	</g>
</g>
<g>
	<rect x="19.1" y="17.7" class="st17" width="71.8" height="55"/>
	<g>
		<path class="st18" d="M62,63.7c0,0.6-0.5,1.1-1.1,1.1H33.2c-0.6,0-1.1-0.5-1.1-1.1V30.9c0-0.6,0.5-1.1,1.1-1.1h27.7
			c0.6,0,1.1,0.5,1.1,1.1V63.7z"/>
		<path class="st19" d="M62,61.3c0,0.8-0.6,1.4-1.4,1.4H33.5c-0.8,0-1.4-0.6-1.4-1.4V29.1c0-0.8,0.6-1.4,1.4-1.4h27.1
			c0.8,0,1.4,0.6,1.4,1.4V61.3z"/>
		<path class="st18" d="M62,29.4c0,0.8-0.6,1.4-1.4,1.4H33.5c-0.8,0-1.4-0.6-1.4-1.4v-1.7c0-0.8,0.6-1.4,1.4-1.4h27.1
			c0.8,0,1.4,0.6,1.4,1.4V29.4z"/>
		<path class="st20" d="M47,36.3c-5.7,0-10.3,4.6-10.3,10.3c0,0.5,0,1,0.1,1.5c0.7,5,5,8.8,10.2,8.8c5.2,0,9.5-3.8,10.2-8.8
			c0.1-0.5,0.1-1,0.1-1.5C57.3,40.9,52.7,36.3,47,36.3z"/>
		<path class="st21" d="M52.2,45.9c-0.1,0-0.1,0-0.2,0.1c-0.2,0.5-0.7,0.9-1.1,1.3c0.1-0.5,0.1-1,0-1.5c-0.2-0.7-0.6-1.4-0.7-2.1
			c0-0.2-0.3-0.2-0.3,0c-0.1,0.9-0.9,1.9-1.7,2.5c0.3-0.7,0.6-1.3,0.7-2.1c0.1-0.6-0.2-1.3-0.4-1.9c-0.3-1.1-0.6-2.1-0.9-3.2
			c-0.1-0.2-0.3-0.1-0.3,0c-0.1,1.2-0.9,2-1.7,2.8c-0.7,0.8-1.1,1.7-1.2,2.7c0,0.5,0,1.1,0,1.6c0,0.3,0.6,1.7-0.1,1.1
			c-0.5-0.4-0.7-1.1-1.1-1.5c-0.1-0.1-0.2,0-0.3,0.1c0,0,0,0.1,0,0.1c-0.5,1.4-0.3,3.1,0.5,4.4c0.8,1,2.1,1.7,3.3,2
			c0.2,0,0.3-0.1,0.2-0.2c0,0,0,0,0-0.1c-0.6-1.3-1.1-2.7-0.8-4.1c0.1-0.6,0.3-1.3,0.6-1.9c0.6,1.1,1.1,2.5,0.7,3.6
			c0,0.1,0.1,0.2,0.2,0.2c0.9-0.1,1.6-0.8,2.1-1.6c0.1,0.6,0.1,1.1,0,1.7c-0.2,0.8-0.9,1.4-1.3,2.1c0,0,0,0,0,0c0,0.1,0,0.2,0.1,0.2
			c1.4,0.5,2.8-0.9,3.5-2c0.7-1.3,0.7-3,0.7-4.4C52.4,46,52.3,45.9,52.2,45.9z"/>
		<g>
			<path class="st22" d="M77,43.2l0-11.8c0-1.2-0.9-2.1-2.1-2.1l-0.5,0c-1.2,0-2.1,0.9-2.1,2.1l0,11.8c0,1.2-1,2.1-2.1,2.2l-2.1,0
				c-0.9,0-1.5,0.7-1.5,1.6l0,4.7l16.3-0.1l0-4.7c0-0.9-0.7-1.5-1.6-1.5l-2.1,0C78,45.3,77,44.4,77,43.2z"/>
			<path class="st23" d="M82.9,50.4l-16.3,0.1c-0.3,0-0.5,0.2-0.5,0.5l0,1.1c0,0.3,0.2,0.5,0.5,0.5l16.3-0.1c0.3,0,0.5-0.2,0.5-0.5
				l0-1.1C83.4,50.6,83.2,50.4,82.9,50.4z"/>
			<path class="st24" d="M82.4,52.6l-7.7,0l-7.7,0l-0.6,6.2c0,0,0.7,2.3,8.3,2.2s8.3-2.3,8.3-2.3L82.4,52.6z"/>
			<g>
				<defs>
					<path id="SVGID_2_" d="M82.4,52.6l-7.7,0l-7.7,0l-0.6,6.2c0,0,0.7,2.3,8.3,2.2s8.3-2.3,8.3-2.3L82.4,52.6z"/>
				</defs>
				<clipPath id="SVGID_3_">
					<use xlink:href="#SVGID_2_"  style="overflow:visible;"/>
				</clipPath>
			</g>
			<path class="st25" d="M66.7,56.2l-0.2,2.6c0,0,0.5,2.3,8.3,2.2c7.8,0,8.3-2.3,8.3-2.3s-7.1,1.3-7.4-0.5c-0.3-1.6-3.3-3.3-5-2.2
				C68.2,57.7,66.7,56.2,66.7,56.2z"/>
		</g>
		<path class="st25" d="M60.6,28c0,0.7-0.6,1.3-1.3,1.3H34.8c-0.7,0-1.3-0.6-1.3-1.3v0.3c0-0.7,0.6-1.3,1.3-1.3h24.6
			c0.7,0,1.3,0.6,1.3,1.3V28z"/>
	</g>
</g>
</svg>
