
<svg width="19px" height="16px" viewBox="0 0 19 16" version="1.1" xmlns="http://www.w3.org/2000/svg" xmlns:xlink="http://www.w3.org/1999/xlink">
    <!-- Generator: Sketch 44.1 (41455) - http://www.bohemiancoding.com/sketch -->
    <desc>Created with Sketch.</desc>
    <defs></defs>
    <g id="Symbols" stroke="none" stroke-width="1" fill="none" fill-rule="evenodd">
        <g id="top-line" transform="translate(-1032.000000, -12.000000)" fill-rule="nonzero" fill="#FFFFFF">
            <g id="cart" transform="translate(1032.000000, 12.000000)">
                <path d="M0.8,0 C0.3584,0 0,0.3584 0,0.8 C0,1.2416 0.3584,1.6 0.8,1.6 L2.575,1.6 L4.675,10 C4.8534,10.712 5.4914,11.2 6.225,11.2 L7.2,11.2 L14.4,11.2 L15.4,11.2 C16.1216,11.2 16.7346,10.721 16.925,10.025 L19,2.4 L5.6,2.4 L6,4 L16.925,4 L15.4,9.6 L6.225,9.6 L4.125,1.2 C3.9474,0.488 3.3094,0 2.575,0 L0.8,0 Z M14.4,11.2 C13.083992,11.2 12,12.283992 12,13.6 C12,14.916008 13.083992,16 14.4,16 C15.716008,16 16.8,14.916008 16.8,13.6 C16.8,12.283992 15.716008,11.2 14.4,11.2 Z M7.2,11.2 C5.883992,11.2 4.8,12.283992 4.8,13.6 C4.8,14.916008 5.883992,16 7.2,16 C8.516008,16 9.6,14.916008 9.6,13.6 C9.6,12.283992 8.516008,11.2 7.2,11.2 Z M7.2,12.8 C7.6513024,12.8 8,13.1486976 8,13.6 C8,14.0513024 7.6513024,14.4 7.2,14.4 C6.7486976,14.4 6.4,14.0513024 6.4,13.6 C6.4,13.1486976 6.7486976,12.8 7.2,12.8 Z M14.4,12.8 C14.8513024,12.8 15.2,13.1486976 15.2,13.6 C15.2,14.0513024 14.8513024,14.4 14.4,14.4 C13.9486976,14.4 13.6,14.0513024 13.6,13.6 C13.6,13.1486976 13.9486976,12.8 14.4,12.8 Z" id="Shape"></path>
            </g>
        </g>
    </g>
</svg>