<svg xmlns="http://www.w3.org/2000/svg" width="21" height="15" viewBox="0 0 21 15">
  <path fill="#ffffff" fill-rule="evenodd" d="M21.0585938,20.5195312 C22.1002656,20.5195312 22.9856734,20.8873661 23.7148438,21.6230469 C24.4440141,22.3587276 24.8085938,23.2408803 24.8085938,24.2695312 C24.8085938,25.3112031 24.4440141,26.1966109 23.7148438,26.9257812 C22.9856734,27.6549516 22.1002656,28.0195312 21.0585938,28.0195312 C20.0299428,28.0195312 19.1477901,27.6549516 18.4121094,26.9257812 C17.6764286,26.1966109 17.3085938,25.3112031 17.3085938,24.2695312 C17.3085938,23.2408803 17.6764286,22.3587276 18.4121094,21.6230469 C19.1477901,20.8873661 20.0299428,20.5195312 21.0585938,20.5195312 Z M21.0585938,26.7695312 C21.7487014,26.7695312 22.334633,26.5221379 22.8164062,26.0273438 C23.2981795,25.5325496 23.5390625,24.9401076 23.5390625,24.25 C23.5390625,23.5598924 23.2949243,22.9707056 22.8066406,22.4824219 C22.3183569,21.9941382 21.7291701,21.75 21.0390625,21.75 C20.3489549,21.75 19.7597681,21.9941382 19.2714844,22.4824219 C18.7832007,22.9707056 18.5390625,23.5598924 18.5390625,24.25 C18.5390625,24.9401076 18.789711,25.5325496 19.2910156,26.0273438 C19.7923202,26.5221379 20.381507,26.7695312 21.0585938,26.7695312 Z M31,24.1132812 C31,24.139323 31.0032552,24.1653645 31.0097656,24.1914062 C31.0162761,24.217448 31.0195312,24.2434895 31.0195312,24.2695312 C31.0195312,24.295573 31.0162761,24.3248696 31.0097656,24.3574219 C31.0032552,24.3899741 31,24.4192707 31,24.4453125 C30.9869791,24.4583334 30.9804688,24.4713541 30.9804688,24.484375 L30.9804688,24.5429688 L30.9609375,24.5625 L30.9609375,24.5917969 C30.9609375,24.5983073 30.9544271,24.6080729 30.9414062,24.6210938 C30.4986957,25.6627656 29.9257848,26.5872355 29.2226562,27.3945312 C28.5195277,28.201827 27.7317752,28.8821587 26.859375,29.4355469 C25.9869748,29.9889351 25.0527394,30.4121079 24.0566406,30.7050781 C23.0605419,30.9980483 22.0416719,31.1445312 21,31.1445312 C19.9583281,31.1445312 18.9394581,30.9980483 17.9433594,30.7050781 C16.9472606,30.4121079 16.0130252,29.9889351 15.140625,29.4355469 C14.2682248,28.8821587 13.4804723,28.201827 12.7773438,27.3945312 C12.0742152,26.5872355 11.4947939,25.6627656 11.0390625,24.6210938 L11.0390625,24.5625 L11.0292969,24.5527344 C11.0227864,24.5462239 11.0195312,24.5364584 11.0195312,24.5234375 L11.0195312,24.484375 C11.0195312,24.4713541 11.0130209,24.451823 11,24.4257812 C11,24.3997395 10.9967448,24.373698 10.9902344,24.3476562 C10.9837239,24.3216145 10.9804688,24.295573 10.9804688,24.2695312 C10.9804688,24.2434895 10.9837239,24.2141929 10.9902344,24.1816406 C10.9967448,24.1490884 11,24.1197918 11,24.09375 C11.0130209,24.0807291 11.0195312,24.0677084 11.0195312,24.0546875 L11.0195312,23.9960938 L11.0390625,23.9765625 L11.0390625,23.9179688 C11.4947939,22.8762969 12.0774704,21.9485718 12.7871094,21.1347656 C13.4967483,20.3209595 14.2877561,19.6341174 15.1601562,19.0742188 C16.0325564,18.5143201 16.9700471,18.0878921 17.9726562,17.7949219 C18.9752654,17.5019517 19.9973906,17.3554688 21.0390625,17.3554688 C22.0807344,17.3554688 23.0996044,17.5019517 24.0957031,17.7949219 C25.0918019,18.0878921 26.019527,18.5143201 26.8789062,19.0742188 C27.7382855,19.6341174 28.5195277,20.3209595 29.2226562,21.1347656 C29.9257848,21.9485718 30.4986957,22.8762969 30.9414062,23.9179688 C30.9544271,23.9309896 30.9609375,23.9407552 30.9609375,23.9472656 L30.9609375,23.9765625 L30.9707031,23.9863281 C30.9772136,23.9928386 30.9804688,24.0026041 30.9804688,24.015625 L30.9804688,24.0546875 C30.9804688,24.0677084 30.9869791,24.0872395 31,24.1132812 Z M21,29.8945312 C21.8854211,29.8945312 22.7610634,29.7773449 23.6269531,29.5429688 C24.4928429,29.3085926 25.3066368,28.9570336 26.0683594,28.4882812 C26.8300819,28.0195289 27.5266896,27.4335973 28.1582031,26.7304688 C28.7897167,26.0273402 29.3138,25.2070359 29.7304688,24.2695312 C29.3138,23.3320266 28.7929719,22.5117223 28.1679688,21.8085938 C27.5429656,21.1054652 26.8496132,20.5162784 26.0878906,20.0410156 C25.3261681,19.5657528 24.5156293,19.2076835 23.65625,18.9667969 C22.7968707,18.7259103 21.9244836,18.6054688 21.0390625,18.6054688 C20.1536414,18.6054688 19.2779991,18.7259103 18.4121094,18.9667969 C17.5462196,19.2076835 16.7291705,19.5657528 15.9609375,20.0410156 C15.1927045,20.5162784 14.4895865,21.1054652 13.8515625,21.8085938 C13.2135385,22.5117223 12.6862,23.3320266 12.2695312,24.2695312 C12.6862,25.2070359 13.2135385,26.0273402 13.8515625,26.7304688 C14.4895865,27.4335973 15.1894493,28.0195289 15.9511719,28.4882812 C16.7128944,28.9570336 17.5234332,29.3085926 18.3828125,29.5429688 C19.2421918,29.7773449 20.1145789,29.8945312 21,29.8945312 Z" transform="translate(-10 -17)"/>
</svg>
