<svg xmlns="http://www.w3.org/2000/svg" width="60" height="60" viewBox="0 0 60 60">
  <g fill="none" fill-rule="evenodd">
    <path fill="#DC4E41" d="M0,30 C0,13.4314567 13.4314567,0 30,0 C46.5685433,0 60,13.4314567 60,30 C60,46.5685433 46.5685433,60 30,60 C13.4314567,60 0,46.5685433 0,30 Z"/>
    <g fill="#FFF" transform="translate(15 21)">
      <path d="M9.54545455,8.14285714 L9.54545455,11.4 L14.9590909,11.4 C14.7409091,12.7978571 13.3227273,15.4985714 9.54545455,15.4985714 C6.28636364,15.4985714 3.62727273,12.8114286 3.62727273,9.5 C3.62727273,6.18857143 6.28636364,3.50142857 9.54545455,3.50142857 C11.4,3.50142857 12.6409091,4.28857143 13.35,4.96714286 L15.9409091,2.48357143 C14.2772727,0.936428571 12.1227273,0 9.54545455,0 C4.26818182,0 0,4.24785714 0,9.5 C0,14.7521429 4.26818182,19 9.54545455,19 C15.0545455,19 18.7090909,15.1457143 18.7090909,9.71714286 C18.7090909,9.09285714 18.6409091,8.61785714 18.5590909,8.14285714 L9.54545455,8.14285714 L9.54545455,8.14285714 Z"/>
      <polyline points="30 8.143 27.273 8.143 27.273 5.429 24.545 5.429 24.545 8.143 21.818 8.143 21.818 10.857 24.545 10.857 24.545 13.571 27.273 13.571 27.273 10.857 30 10.857"/>
    </g>
  </g>
</svg>
