<?xml version="1.0" encoding="UTF-8"?>
<svg width="26px" height="21px" viewBox="0 0 26 21" version="1.1" xmlns="http://www.w3.org/2000/svg" xmlns:xlink="http://www.w3.org/1999/xlink">
    <!-- Generator: sketchtool 44.1 (41455) - http://www.bohemiancoding.com/sketch -->
    <title>9D975EA0-1E9C-49DB-88F4-13D932D18CFA</title>
    <desc>Created with sketchtool.</desc>
    <defs></defs>
    <g id="Symbols" stroke="none" stroke-width="1" fill="none" fill-rule="evenodd">
        <g id="mail" transform="translate(-17.000000, -19.000000)" fill="#ffffff">
            <path d="M30,28.27 L40.02,22 L19.98,22 L30,28.27 Z M40.02,37 L40.02,24.52 L30,30.73 L19.98,24.52 L19.98,37 L40.02,37 Z M40.02,19.48 C40.7000034,19.48 41.2799976,19.7299975 41.76,20.23 C42.2400024,20.7300025 42.48,21.3199966 42.48,22 L42.48,37 C42.48,37.6800034 42.2400024,38.2699975 41.76,38.77 C41.2799976,39.2700025 40.7000034,39.52 40.02,39.52 L19.98,39.52 C19.2999966,39.52 18.7200024,39.2700025 18.24,38.77 C17.7599976,38.2699975 17.52,37.6800034 17.52,37 L17.52,22 C17.52,21.3199966 17.7599976,20.7300025 18.24,20.23 C18.7200024,19.7299975 19.2999966,19.48 19.98,19.48 L40.02,19.48 Z" id="mail_outline---material"></path>
        </g>
    </g>
</svg>