<svg xmlns="http://www.w3.org/2000/svg" width="60" height="60" viewBox="0 0 60 60">
  <g fill="none" fill-rule="evenodd">
    <path fill="#F68634" d="M0,30 C0,13.4314567 13.4314567,0 30,0 C46.5685433,0 60,13.4314567 60,30 C60,46.5685433 46.5685433,60 30,60 C13.4314567,60 0,46.5685433 0,30 Z"/>
    <path fill="#FFF" d="M29.9796249,19.5370751 C31.8107716,19.5370751 33.3002578,20.9743946 33.3002578,22.7419779 C33.3002578,24.5081716 31.8107716,25.9464175 29.9796249,25.9464175 C28.1499177,25.9464175 26.6589919,24.5081716 26.6589919,22.7419779 C26.6589919,20.9743946 28.1499177,19.5370751 29.9796249,19.5370751 L29.9796249,19.5370751 Z M29.9796249,30.4816398 C25.5567529,30.4816398 21.9597205,27.009932 21.9597205,22.7419779 C21.9597205,18.4726342 25.5567529,15 29.9796249,15 C34.4034565,15 37.9995292,18.4726342 37.9995292,22.7419779 C37.9995292,27.009932 34.4034565,30.4816398 29.9796249,30.4816398 Z M33.2449529,36.8003773 L37.7282872,41.1285478 C38.6467397,42.0132659 38.6467397,43.4501222 37.7282872,44.3357666 C36.8107944,45.2214111 35.3237075,45.2214111 34.4071744,44.3357666 L29.9991781,40.0826351 L25.5950207,44.3357666 C25.1357945,44.7781257 24.5340497,44.9995368 23.932305,44.9995368 C23.3315199,44.9995368 22.7307349,44.7781257 22.2715087,44.3357666 C21.3540159,43.4501222 21.3540159,42.0141923 22.2705489,41.1285478 L26.7543631,36.8003773 C25.1218785,36.4413949 23.5474571,35.816997 22.0973194,34.9387638 C20.999879,34.2708248 20.670215,32.871488 21.3616936,31.8112159 C22.0512528,30.7495542 23.5013905,30.429944 24.6007503,31.097883 C27.8839541,33.0915095 32.1134424,33.0919727 35.3985657,31.097883 C36.4979255,30.429944 37.9475833,30.7495542 38.6385821,31.8112159 C39.3300607,32.8705616 38.999437,34.2708248 37.9019966,34.9387638 C36.4518589,35.8179234 34.8774374,36.4413949 33.2449529,36.8003773 Z"/>
  </g>
</svg>
