<svg xmlns="http://www.w3.org/2000/svg" width="60" height="60" viewBox="0 0 60 60">
  <g fill="none" fill-rule="evenodd">
    <path fill="#F8991D" d="M0,30 C0,13.4314567 13.4314567,0 30,0 C46.5685433,0 60,13.4314567 60,30 C60,46.5685433 46.5685433,60 30,60 C13.4314567,60 0,46.5685433 0,30 Z"/>
    <path fill="#FFF" d="M18.0003,38 C18.0003,35.791 19.7912808,34 22.0002571,34 C24.2092335,34 26.0002143,35.791 26.0002143,38 C26.0002143,40.209 24.2092335,42 22.0002571,42 C19.7912808,42 18.0003,40.209 18.0003,38 Z M46,42 L40.6670571,42 C40.6670571,29.501 30.4991661,19.333 18.0003,19.333 L18.0003,14 C33.4391346,14 46,26.561 46,42 Z M36.6668,42 L31.3338571,42 C31.3338571,34.648 25.3519212,28.667 18,28.667 L18,23.333 C28.2928897,23.333 36.6668,31.707 36.6668,42 Z"/>
  </g>
</svg>
