<svg xmlns="http://www.w3.org/2000/svg" width="16" height="16" viewBox="0 0 16 16">
  <path fill-rule="evenodd" d="M258.94,21.68 C259.620003,21.68 260.246664,21.5100017 260.82,21.17 C261.393336,20.8299983 261.846665,20.3733362 262.18,19.8 C262.513335,19.2266638 262.68,18.6000034 262.68,17.92 C262.68,17.2399966 262.513335,16.6133362 262.18,16.04 C261.846665,15.4666638 261.393336,15.013335 260.82,14.68 C260.246664,14.346665 259.620003,14.18 258.94,14.18 C258.259997,14.18 257.633336,14.346665 257.06,14.68 C256.486664,15.013335 256.030002,15.4666638 255.69,16.04 C255.349998,16.6133362 255.18,17.2399966 255.18,17.92 C255.18,18.6000034 255.349998,19.2266638 255.69,19.8 C256.030002,20.3733362 256.486664,20.8299983 257.06,21.17 C257.633336,21.5100017 258.259997,21.68 258.94,21.68 Z M263.94,21.68 L268.08,25.82 L266.82,27.08 L262.68,22.92 L262.68,22.26 L262.44,22.04 C261.973331,22.4533354 261.43667,22.7699989 260.83,22.99 C260.22333,23.2100011 259.593337,23.32 258.94,23.32 C257.953328,23.32 257.043338,23.0800024 256.21,22.6 C255.376663,22.1199976 254.720002,21.4733374 254.24,20.66 C253.746664,19.8199958 253.5,18.9066716 253.5,17.92 C253.5,16.9333284 253.743331,16.0233375 254.23,15.19 C254.716669,14.3566625 255.376663,13.7000024 256.21,13.22 C257.043338,12.7399976 257.953328,12.5 258.94,12.5 C259.926672,12.5 260.839996,12.7466642 261.68,13.24 C262.493337,13.7200024 263.136664,14.3733292 263.61,15.2 C264.083336,16.0266708 264.32,16.9333284 264.32,17.92 C264.32,18.58667 264.210001,19.2233303 263.99,19.83 C263.769999,20.4366697 263.453335,20.973331 263.04,21.44 L263.26,21.68 L263.94,21.68 Z" transform="translate(-253 -12)"/>
</svg>
