<svg xmlns="http://www.w3.org/2000/svg" width="60" height="60" viewBox="0 0 60 60">
  <g fill="none" fill-rule="evenodd">
    <circle cx="30" cy="30" r="30" fill="#FFF"/>
    <path fill="#00AEF3" d="M45.0799624,33.3969744 C45.6688617,34.5654669 46,35.8804846 46,37.2734017 C46,42.092042 42.0376294,46 37.1495767,46 C35.6349953,46 34.2126058,45.6234858 32.9651929,44.9631948 C32.0583255,45.1282675 31.1251176,45.2154408 30.1693321,45.2154408 C21.7403575,45.2154408 14.9068674,38.4789892 14.9068674,30.1660001 C14.9068674,29.1310497 15.014111,28.1183562 15.215428,27.1427578 C14.4440263,25.8444329 14,24.3383759 14,22.728453 C14,17.9061033 17.9623706,14 22.8523048,14 C24.5813735,14 26.1956726,14.4915087 27.5597366,15.3391294 C28.4101599,15.1944589 29.2812794,15.1184142 30.1693321,15.1184142 C38.6001881,15.1184142 45.4317968,21.8567206 45.4317968,30.1660001 C45.4317968,31.2751406 45.3113829,32.354605 45.0799624,33.3969744 Z M37.9981185,37.3587202 C38.7055503,36.3701385 39.0667921,35.2405958 39.0667921,34.0016229 C39.0667921,32.9648177 38.8579492,32.0745378 38.4459078,31.3493306 C38.0338664,30.6296876 37.4562559,30.0287486 36.7262465,29.5594969 C36.0075259,29.0976642 35.130762,28.7044572 34.1128881,28.3854402 C33.1100659,28.068278 31.9755409,27.7733727 30.7394167,27.5137078 C29.7629351,27.2911378 29.0517404,27.118646 28.6284102,27.0017968 C28.2144873,26.8905118 27.8005644,26.7310033 27.3998119,26.5325451 C27.0122295,26.3396511 26.7055503,26.1133716 26.491063,25.8499971 C26.2841016,25.6051701 26.1843838,25.3176839 26.1843838,24.9764099 C26.1843838,24.4162754 26.494826,23.9433142 27.130762,23.5334145 C27.7911571,23.1049673 28.6829727,22.8898163 29.7742239,22.8898163 C30.953904,22.8898163 31.8099718,23.0827103 32.3236124,23.4684982 C32.8523048,23.8654147 33.3132643,24.4274039 33.6933208,25.1396279 C34.0225776,25.6960529 34.3198495,26.0855503 34.6058325,26.3359416 C34.9106303,26.6030256 35.3546566,26.7402771 35.9190969,26.7402771 C36.5399812,26.7402771 37.0686736,26.5232713 37.4863594,26.0929693 C37.9021637,25.6682316 38.1128881,25.1785776 38.1128881,24.6407002 C38.1128881,24.0824204 37.9510818,23.5055932 37.6349953,22.9250565 C37.3226717,22.350084 36.8222013,21.7992233 36.1505174,21.2798934 C35.4844779,20.7661276 34.6378175,20.3506637 33.6312324,20.0427752 C32.6302916,19.7348867 31.4317968,19.5790877 30.0696143,19.5790877 C28.3631232,19.5790877 26.8579492,19.8127862 25.5917215,20.2746189 C24.3066792,20.7401611 23.3095014,21.4264186 22.6284102,22.3037153 C21.939793,23.1865762 21.5917215,24.2122529 21.5917215,25.3473599 C21.5917215,26.5399641 21.9247413,27.5545123 22.579492,28.365038 C23.2248354,29.1607257 24.1072437,29.7969049 25.2022578,30.2550281 C26.2709313,30.7057323 27.6161806,31.1007941 29.2022578,31.434649 C30.3668862,31.6757665 31.3076199,31.9076103 32.0018815,32.1190518 C32.6660395,32.3267837 33.2135466,32.6235437 33.6312324,33.0056222 C34.0263405,33.3728627 34.2201317,33.8402597 34.2201317,34.4319249 C34.2201317,35.1849533 33.8513641,35.8007303 33.0893697,36.3107865 C32.3123236,36.833826 31.2775165,37.10091 30.0150517,37.10091 C29.098777,37.10091 28.3518344,36.967368 27.798683,36.7114125 C27.2492944,36.4536023 26.8184384,36.1253115 26.5174036,35.7321046 C26.2069614,35.3296238 25.9134525,34.8140034 25.6425212,34.2019359 C25.3998119,33.6436562 25.098777,33.2077899 24.7469426,32.9128847 C24.3800564,32.606851 23.9266228,32.4529067 23.4035748,32.4529067 C22.7638758,32.4529067 22.2276576,32.6476555 21.8099718,33.037153 C21.388523,33.4285052 21.1740357,33.9070307 21.1740357,34.4560366 C21.1740357,35.3407523 21.5014111,36.255144 22.1505174,37.1751 C22.7920978,38.0913464 23.6368768,38.8295369 24.6622766,39.3748334 C26.0978363,40.1260071 27.9360301,40.5062308 30.1279398,40.5062308 C31.9548448,40.5062308 33.5578551,40.2261636 34.8955786,39.6771576 C36.2502352,39.1244421 37.2925682,38.3454472 37.9981185,37.3587202 Z"/>
  </g>
</svg>
