<?xml version="1.0" encoding="UTF-8"?>
<svg width="15px" height="16px" viewBox="0 0 15 16" version="1.1" xmlns="http://www.w3.org/2000/svg" xmlns:xlink="http://www.w3.org/1999/xlink">
    <!-- Generator: sketchtool 44.1 (41455) - http://www.bohemiancoding.com/sketch -->
    <title>820E93ED-B5B8-44DC-8B28-85E0F4DA4FA5</title>
    <desc>Created with sketchtool.</desc>
    <defs></defs>
    <g id="Symbols" stroke="none" stroke-width="1" fill="none" fill-rule="evenodd">
        <g id="top-line" transform="translate(-1151.000000, -12.000000)" fill-rule="nonzero" fill="#FFFFFF">
            <g id="user" transform="translate(1151.000000, 12.000000)">
                <path d="M7.27272727,0 C4.46971055,0 2.18181818,2.28789185 2.18181818,5.09090909 C2.18181818,6.84279491 3.07720727,8.40154182 4.43181818,9.31818182 C1.8375368,10.4307876 0,13.0045542 0,16 L1.45454545,16 C1.45454545,13.8979098 2.56458669,12.0676058 4.22727273,11.0454545 C4.71491345,12.2431731 5.90599927,13.0909091 7.27272727,13.0909091 C8.63945527,13.0909091 9.83054109,12.2431731 10.3181818,11.0454545 C11.9808676,12.0676058 13.0909091,13.8979098 13.0909091,16 L14.5454545,16 C14.5454545,13.0045542 12.7079178,10.4307876 10.1136364,9.31818182 C11.4682473,8.40154182 12.3636364,6.84279491 12.3636364,5.09090909 C12.3636364,2.28789185 10.075744,0 7.27272727,0 Z M7.27272727,1.45454545 C9.28964945,1.45454545 10.9090909,3.07398669 10.9090909,5.09090909 C10.9090909,7.10783127 9.28964945,8.72727273 7.27272727,8.72727273 C5.25580509,8.72727273 3.63636364,7.10783127 3.63636364,5.09090909 C3.63636364,3.07398669 5.25580509,1.45454545 7.27272727,1.45454545 Z M7.27272727,10.1818182 C7.86901091,10.1818182 8.43637018,10.2665156 8.97727273,10.4318182 C8.72577091,11.1325796 8.06592582,11.6363636 7.27272727,11.6363636 C6.47952873,11.6363636 5.81968364,11.1325796 5.56818182,10.4318182 C6.10908436,10.2665156 6.67644364,10.1818182 7.27272727,10.1818182 Z" id="Shape"></path>
            </g>
        </g>
    </g>
</svg>