<svg xmlns="http://www.w3.org/2000/svg" width="60" height="60" viewBox="0 0 60 60">
  <g fill="none" fill-rule="evenodd">
    <circle cx="30" cy="30" r="30" fill="#7F4DA0" transform="matrix(1 0 0 -1 0 60)"/>
    <g fill="#FFF" transform="translate(10 11)">
      <path d="M23.4689363,17.263105 C24.6371056,17.0144158 25.5325751,16.5703632 26.2974877,15.8539246 C27.2818143,14.9244133 27.8215144,13.7994178 28.0586427,12.1830092 C28.2187417,11.1290929 28.1535182,10.7146584 27.7799245,10.3712372 C27.4300855,10.0515238 26.7837921,10.0396699 26.3923632,10.3416301 C26.1077367,10.5548017 26.0187695,10.7797832 25.9535461,11.389592 C25.8765058,12.2007735 25.734143,12.7691652 25.4910953,13.2961509 C24.9692194,14.415181 24.0501163,14.9954376 22.4965365,15.1849015 C21.7670744,15.273734 21.5476713,15.3566121 21.3105321,15.6348536 C20.8776233,16.1499853 21.0436307,16.9848196 21.6425469,17.2927232 C21.8679684,17.4052085 21.9628439,17.4170623 22.4608661,17.3874551 C22.7692363,17.3696908 23.2258887,17.3164199 23.4689363,17.263105 L23.4689363,17.263105 Z" transform="rotate(-85 24.604 13.762)"/>
      <path d="M22.2058916,18.5601833 C25.8053739,18.0332635 28.5923354,16.3635401 30.4187249,13.651809 C31.4446304,12.1242329 32.0850153,10.3302142 32.3044294,8.40595699 C32.3814697,7.70136129 32.3814697,6.41652002 32.298521,6.2033484 C32.2213707,6.00208557 31.9723156,5.72968863 31.7588099,5.6172473 C31.527579,5.49880764 31.0354762,5.51060657 30.7626665,5.65275394 C30.3060141,5.88363492 30.1696697,6.25076382 30.1696697,7.24545484 C30.1696697,8.77893041 29.7723324,10.395339 29.0845592,11.6505731 C28.3018004,13.0834173 27.1633052,14.2675722 25.7757329,15.0906076 C24.58382,15.8011027 22.8226539,16.3280334 21.2156675,16.458272 C20.6344876,16.5056874 20.3142896,16.6240831 20.0948865,16.8786718 C19.7569633,17.263554 19.7212928,17.7845853 20.0059194,18.2167731 C20.3142786,18.6963762 20.7886562,18.7733549 22.2058916,18.5601833 L22.2058916,18.5601833 Z" transform="rotate(-85 26.088 12.105)"/>
      <path d="M8.24116807,37.688127 C8.44875434,37.6171027 8.76895234,37.4513465 8.95279498,37.3329069 C10.0793854,36.5868501 13.2163069,32.5784899 14.2422124,30.5771991 C14.8292017,29.4345052 15.0248612,28.587817 14.8411286,27.9602 C14.6512675,27.2852225 14.3370879,26.9299474 12.9316804,25.7990524 C12.3683356,25.3432009 11.8405514,24.8754406 11.7576027,24.7510905 C11.544108,24.4431869 11.3720822,23.8392776 11.3720822,23.4129783 C11.3781006,22.4241867 12.0184856,20.6301681 12.8605485,19.2505948 C13.5127503,18.1789252 14.6809195,16.8053613 15.837272,15.75139 C17.1951923,14.5079548 18.3930136,13.6613765 19.7450255,12.9922435 C21.4824479,12.127846 22.5439248,11.908775 23.3207642,12.2698945 C23.5164236,12.358727 23.7239109,12.4771667 23.7892334,12.5303827 C23.8484384,12.5837085 24.3050908,13.1403014 24.803212,13.7559986 C25.763795,14.9639162 25.9831981,15.1592796 26.6414183,15.3842611 C27.4775728,15.668457 28.3314524,15.5915333 29.1912405,15.1533801 C29.8435523,14.8158584 31.2666961,13.9336636 32.1857993,13.2942367 C33.3954374,12.4475485 35.980842,10.3397158 36.3308021,9.91927207 C36.9474434,9.16141644 37.0542458,8.19048806 36.6390732,7.11870854 C36.2002561,5.98792342 34.4924858,3.86819294 33.3005729,2.96227948 C32.2213707,2.14519852 31.4564582,1.83149436 30.4483769,1.78407895 C29.6182409,1.74266187 29.2742992,1.81368612 28.2128223,2.25183926 C19.8873773,5.68001985 13.2400395,10.7955674 7.96243892,17.8236941 C5.20512948,21.4946095 3.10593024,25.3017069 1.67085963,29.2509188 C0.834815197,31.5541038 0.793335351,32.5547492 1.48110859,33.7329937 C1.77766198,34.2303172 3.04070676,35.4618876 3.95980991,36.148675 C5.48975603,37.2855134 6.19536451,37.7059132 6.75870922,37.824298 C7.1441307,37.907209 7.81416773,37.8420843 8.24116807,37.688127 L8.24116807,37.688127 Z" transform="rotate(-90 18.944 19.817)"/>
      <path d="M21.7967264,20.280856 C23.8366106,20.0262673 25.4850769,19.5348543 27.2937301,18.6526485 C29.0726214,17.7822417 30.2111276,16.9592613 31.7173301,15.4613143 C33.128646,14.0462234 33.9114048,12.9745098 34.7415409,11.3107847 C35.8978933,8.98978039 36.5561135,6.23068886 36.6687143,3.19330093 C36.7102931,2.15719284 36.6806411,1.92621298 36.4433918,1.63021819 C35.9927578,1.05581714 35.0024128,1.15065895 34.6644896,1.79597439 C34.5576872,2.00914601 34.5280352,2.19261158 34.4924637,3.02159034 C34.4331487,4.29457776 34.3442916,5.11755818 34.1663573,6.10045028 C33.4666573,9.95487522 31.6165241,13.0337352 28.6634452,15.2422432 C26.2025902,17.0895108 23.6586654,17.9895248 20.3261834,18.1848882 C19.199494,18.250013 19.0038236,18.2914191 18.74886,18.4868374 C18.2743724,18.8598657 18.2507388,19.7361171 18.7072812,20.1446521 C18.9859993,20.3992957 19.1816588,20.4348023 20.1482602,20.4051952 C20.6523008,20.3874418 21.3934807,20.3282275 21.7967264,20.280856 L21.7967264,20.280856 Z" transform="rotate(-85 27.531 10.832)"/>
    </g>
  </g>
</svg>
